HennyPenny-Regular.ufo
<glyph name="exclam" format="2">
  <advance width="510"/>
  <unicode hex="0021"/>
  <outline>
    <contour>
      <point x="244" y="-74" type="qcurve" smooth="yes"/>
      <point x="219" y="-74"/>
      <point x="172" y="-55"/>
      <point x="135" y="-21"/>
      <point x="113" y="29"/>
      <point x="113" y="61" type="qcurve" smooth="yes"/>
      <point x="113" y="99"/>
      <point x="137" y="150"/>
      <point x="174" y="182"/>
      <point x="219" y="195"/>
      <point x="240" y="195" type="qcurve" smooth="yes"/>
      <point x="264" y="195"/>
      <point x="310" y="177"/>
      <point x="348" y="144"/>
      <point x="371" y="94"/>
      <point x="371" y="63" type="qcurve" smooth="yes"/>
      <point x="371" y="30"/>
      <point x="351" y="-21"/>
      <point x="316" y="-56"/>
      <point x="270" y="-74"/>
    </contour>
    <contour>
      <point x="244" y="408" type="qcurve" smooth="yes"/>
      <point x="235" y="409"/>
      <point x="228" y="441"/>
      <point x="225" y="498"/>
      <point x="226" y="578"/>
      <point x="225" y="627" type="qcurve" smooth="yes"/>
      <point x="224" y="705"/>
      <point x="218" y="856"/>
      <point x="206" y="1007"/>
      <point x="189" y="1161"/>
      <point x="178" y="1243" type="qcurve" smooth="yes"/>
      <point x="166" y="1334"/>
      <point x="141" y="1489"/>
      <point x="120" y="1620"/>
      <point x="106" y="1726"/>
      <point x="106" y="1767" type="qcurve" smooth="yes"/>
      <point x="106" y="1805"/>
      <point x="121" y="1868"/>
      <point x="154" y="1914"/>
      <point x="206" y="1939"/>
      <point x="242" y="1939" type="qcurve" smooth="yes"/>
      <point x="291" y="1939"/>
      <point x="353" y="1899"/>
      <point x="388" y="1828"/>
      <point x="401" y="1729"/>
      <point x="401" y="1671" type="qcurve" smooth="yes"/>
      <point x="401" y="1599"/>
      <point x="392" y="1418"/>
      <point x="377" y="1222"/>
      <point x="358" y="1022"/>
      <point x="337" y="840"/>
      <point x="317" y="687"/>
      <point x="309" y="635" type="qcurve" smooth="yes"/>
      <point x="291" y="520"/>
      <point x="262" y="406"/>
    </contour>
  </outline>
</glyph>
<glyph name="numbersign" format="2">
  <advance width="2111"/>
  <unicode hex="0023"/>
  <outline>
    <contour>
      <point x="1180" y="1653" type="qcurve" smooth="yes"/>
      <point x="1192" y="1653"/>
      <point x="1200" y="1635"/>
      <point x="1200" y="1624" type="qcurve" smooth="yes"/>
      <point x="1200" y="1608"/>
      <point x="1175" y="1530"/>
      <point x="1137" y="1428"/>
      <point x="1090" y="1311"/>
      <point x="1045" y="1202"/>
      <point x="1008" y="1111"/>
      <point x="999" y="1085" type="qcurve" smooth="yes"/>
      <point x="993" y="1068"/>
      <point x="987" y="1046"/>
      <point x="987" y="1036" type="qcurve" smooth="yes"/>
      <point x="987" y="1020"/>
      <point x="1019" y="1002"/>
      <point x="1064" y="994"/>
      <point x="1114" y="993"/>
      <point x="1133" y="993" type="qcurve" smooth="yes"/>
      <point x="1178" y="993"/>
      <point x="1224" y="1025"/>
      <point x="1241" y="1053" type="qcurve" smooth="yes"/>
      <point x="1256" y="1077"/>
      <point x="1294" y="1154"/>
      <point x="1334" y="1238"/>
      <point x="1370" y="1319"/>
      <point x="1382" y="1348" type="qcurve" smooth="yes"/>
      <point x="1388" y="1360"/>
      <point x="1400" y="1386"/>
      <point x="1415" y="1407"/>
      <point x="1432" y="1421"/>
      <point x="1442" y="1421" type="qcurve" smooth="yes"/>
      <point x="1450" y="1421"/>
      <point x="1460" y="1406"/>
      <point x="1460" y="1395" type="qcurve" smooth="yes"/>
      <point x="1460" y="1374"/>
      <point x="1438" y="1306"/>
      <point x="1404" y="1226"/>
      <point x="1365" y="1143"/>
      <point x="1331" y="1069"/>
      <point x="1309" y="1013"/>
      <point x="1309" y="1001" type="qcurve" smooth="yes"/>
      <point x="1309" y="984"/>
      <point x="1334" y="975"/>
      <point x="1348" y="973" type="qcurve" smooth="yes"/>
      <point x="1370" y="970"/>
      <point x="1456" y="968"/>
      <point x="1565" y="965"/>
      <point x="1688" y="963"/>
      <point x="1809" y="960"/>
      <point x="1918" y="954"/>
      <point x="1958" y="950" type="qcurve" smooth="yes"/>
      <point x="1984" y="947"/>
      <point x="2007" y="934"/>
      <point x="2007" y="920" type="qcurve" smooth="yes"/>
      <point x="2007" y="891"/>
      <point x="1954" y="891" type="qcurve" smooth="yes"/>
      <point x="1930" y="891"/>
      <point x="1846" y="898"/>
      <point x="1753" y="908"/>
      <point x="1666" y="917"/>
      <point x="1640" y="920" type="qcurve" smooth="yes"/>
      <point x="1623" y="921"/>
      <point x="1568" y="926"/>
      <point x="1502" y="929"/>
      <point x="1430" y="932"/>
      <point x="1397" y="932" type="qcurve" smooth="yes"/>
      <point x="1363" y="932"/>
      <point x="1308" y="929"/>
      <point x="1292" y="924" type="qcurve" smooth="yes"/>
      <point x="1271" y="917"/>
      <point x="1248" y="890"/>
      <point x="1237" y="870" type="qcurve" smooth="yes"/>
      <point x="1234" y="866"/>
      <point x="1212" y="818"/>
      <point x="1180" y="751"/>
      <point x="1143" y="673"/>
      <point x="1110" y="602"/>
      <point x="1085" y="547"/>
      <point x="1081" y="537" type="qcurve" smooth="yes"/>
      <point x="1075" y="520"/>
      <point x="1075" y="512" type="qcurve" smooth="yes"/>
      <point x="1075" y="506"/>
      <point x="1085" y="496"/>
      <point x="1096" y="496" type="qcurve" smooth="yes"/>
      <point x="1132" y="496"/>
      <point x="1230" y="508"/>
      <point x="1339" y="525"/>
      <point x="1451" y="546"/>
      <point x="1551" y="563"/>
      <point x="1630" y="575"/>
      <point x="1653" y="575" type="qcurve" smooth="yes"/>
      <point x="1676" y="575"/>
      <point x="1694" y="562"/>
      <point x="1694" y="551" type="qcurve" smooth="yes"/>
      <point x="1694" y="537"/>
      <point x="1668" y="518"/>
      <point x="1630" y="510" type="qcurve" smooth="yes"/>
      <point x="1596" y="504"/>
      <point x="1441" y="485"/>
      <point x="1335" y="471" type="qcurve" smooth="yes"/>
      <point x="1249" y="460"/>
      <point x="1125" y="440"/>
      <point x="1075" y="428" type="qcurve" smooth="yes"/>
      <point x="1046" y="420"/>
      <point x="1010" y="382"/>
      <point x="993" y="344" type="qcurve" smooth="yes"/>
      <point x="990" y="338"/>
      <point x="960" y="267"/>
      <point x="914" y="158"/>
      <point x="857" y="21"/>
      <point x="796" y="-124"/>
      <point x="737" y="-265"/>
      <point x="689" y="-382"/>
      <point x="654" y="-464"/>
      <point x="649" y="-477" type="qcurve" smooth="yes"/>
      <point x="638" y="-504"/>
      <point x="615" y="-558"/>
      <point x="589" y="-600"/>
      <point x="560" y="-627"/>
      <point x="545" y="-627" type="qcurve" smooth="yes"/>
      <point x="531" y="-627"/>
      <point x="514" y="-607"/>
      <point x="514" y="-592" type="qcurve" smooth="yes"/>
      <point x="514" y="-571"/>
      <point x="528" y="-519"/>
      <point x="548" y="-468"/>
      <point x="566" y="-425"/>
      <point x="571" y="-414" type="qcurve" smooth="yes"/>
      <point x="591" y="-364"/>
      <point x="644" y="-239"/>
      <point x="702" y="-106"/>
      <point x="759" y="25"/>
      <point x="808" y="135"/>
      <point x="843" y="215"/>
      <point x="850" y="231" type="qcurve" smooth="yes"/>
      <point x="858" y="251"/>
      <point x="877" y="297"/>
      <point x="893" y="340"/>
      <point x="903" y="374"/>
      <point x="903" y="383" type="qcurve" smooth="yes"/>
      <point x="903" y="399"/>
      <point x="879" y="399" type="qcurve" smooth="yes"/>
      <point x="864" y="399"/>
      <point x="820" y="394"/>
      <point x="776" y="387"/>
      <point x="737" y="377"/>
      <point x="727" y="373" type="qcurve" smooth="yes"/>
      <point x="712" y="365"/>
      <point x="693" y="343"/>
      <point x="684" y="322" type="qcurve" smooth="yes"/>
      <point x="683" y="319"/>
      <point x="654" y="251"/>
      <point x="610" y="150"/>
      <point x="558" y="32"/>
      <point x="511" y="-74"/>
      <point x="475" y="-152"/>
      <point x="469" y="-162" type="qcurve" smooth="yes"/>
      <point x="459" y="-180"/>
      <point x="439" y="-219"/>
      <point x="416" y="-252"/>
      <point x="390" y="-274"/>
      <point x="373" y="-274" type="qcurve" smooth="yes"/>
      <point x="359" y="-274"/>
      <point x="338" y="-252"/>
      <point x="338" y="-229" type="qcurve" smooth="yes"/>
      <point x="338" y="-199"/>
      <point x="372" y="-98"/>
      <point x="422" y="20"/>
      <point x="481" y="144"/>
      <point x="531" y="250"/>
      <point x="565" y="325"/>
      <point x="565" y="336" type="qcurve" smooth="yes"/>
      <point x="565" y="354"/>
      <point x="539" y="354" type="qcurve" smooth="yes"/>
      <point x="506" y="354"/>
      <point x="409" y="342"/>
      <point x="306" y="329"/>
      <point x="210" y="317"/>
      <point x="178" y="317" type="qcurve" smooth="yes"/>
      <point x="158" y="317"/>
      <point x="133" y="324"/>
      <point x="120" y="335"/>
      <point x="115" y="349"/>
      <point x="115" y="356" type="qcurve" smooth="yes"/>
      <point x="115" y="375"/>
      <point x="142" y="394"/>
      <point x="170" y="399" type="qcurve" smooth="yes"/>
      <point x="179" y="401"/>
      <point x="242" y="407"/>
      <point x="326" y="416"/>
      <point x="423" y="425"/>
      <point x="510" y="436"/>
      <point x="577" y="446"/>
      <point x="590" y="451" type="qcurve" smooth="yes"/>
      <point x="616" y="460"/>
      <point x="645" y="488"/>
      <point x="653" y="502" type="qcurve" smooth="yes"/>
      <point x="658" y="511"/>
      <point x="686" y="565"/>
      <point x="722" y="639"/>
      <point x="761" y="726"/>
      <point x="794" y="809"/>
      <point x="815" y="881"/>
      <point x="815" y="903" type="qcurve" smooth="yes"/>
      <point x="815" y="928"/>
      <point x="779" y="958"/>
      <point x="729" y="963" type="qcurve" smooth="yes"/>
      <point x="655" y="969"/>
      <point x="526" y="976"/>
      <point x="396" y="981"/>
      <point x="255" y="986"/>
      <point x="170" y="991" type="qcurve" smooth="yes"/>
      <point x="142" y="993"/>
      <point x="102" y="1002"/>
      <point x="102" y="1022" type="qcurve" smooth="yes"/>
      <point x="102" y="1037"/>
      <point x="136" y="1047"/>
      <point x="162" y="1047" type="qcurve" smooth="yes"/>
      <point x="173" y="1047"/>
      <point x="254" y="1044"/>
      <point x="369" y="1038"/>
      <point x="505" y="1033"/>
      <point x="640" y="1027"/>
      <point x="760" y="1024"/>
      <point x="801" y="1024" type="qcurve" smooth="yes"/>
      <point x="841" y="1024"/>
      <point x="899" y="1038"/>
      <point x="918" y="1067" type="qcurve" smooth="yes"/>
      <point x="925" y="1080"/>
      <point x="960" y="1159"/>
      <point x="1003" y="1264"/>
      <point x="1050" y="1382"/>
      <point x="1091" y="1487"/>
      <point x="1120" y="1564"/>
      <point x="1124" y="1575" type="qcurve" smooth="yes"/>
      <point x="1140" y="1615"/>
      <point x="1164" y="1653"/>
    </contour>
    <contour>
      <point x="999" y="944" type="qcurve" smooth="yes"/>
      <point x="987" y="942"/>
      <point x="963" y="936"/>
      <point x="938" y="920"/>
      <point x="912" y="891"/>
      <point x="899" y="866" type="qcurve" smooth="yes"/>
      <point x="893" y="856"/>
      <point x="874" y="811"/>
      <point x="850" y="752"/>
      <point x="823" y="683"/>
      <point x="810" y="649" type="qcurve" smooth="yes"/>
      <point x="779" y="568"/>
      <point x="743" y="471" type="qcurve"/>
      <point x="788" y="471"/>
      <point x="828" y="474" type="qcurve" smooth="yes"/>
      <point x="862" y="476"/>
      <point x="928" y="484"/>
      <point x="944" y="492" type="qcurve" smooth="yes"/>
      <point x="965" y="502"/>
      <point x="994" y="537"/>
      <point x="1019" y="585"/>
      <point x="1044" y="644"/>
      <point x="1059" y="678" type="qcurve" smooth="yes"/>
      <point x="1078" y="721"/>
      <point x="1115" y="813"/>
      <point x="1143" y="888"/>
      <point x="1160" y="936"/>
      <point x="1159" y="936" type="qcurve" smooth="yes"/>
      <point x="1128" y="939"/>
      <point x="1037" y="944"/>
    </contour>
  </outline>
</glyph>
<glyph name="dollar" format="2">
  <advance width="1638"/>
  <unicode hex="0024"/>
  <outline>
    <contour>
      <point x="1049" y="1849" type="qcurve" smooth="yes"/>
      <point x="1057" y="1849"/>
      <point x="1069" y="1834"/>
      <point x="1069" y="1812" type="qcurve" smooth="yes"/>
      <point x="1069" y="1788"/>
      <point x="1051" y="1675"/>
      <point x="1038" y="1606" type="qcurve"/>
      <point x="1082" y="1598"/>
      <point x="1154" y="1583"/>
      <point x="1188" y="1583" type="qcurve" smooth="yes"/>
      <point x="1215" y="1583"/>
      <point x="1263" y="1607"/>
      <point x="1304" y="1643"/>
      <point x="1340" y="1685"/>
      <point x="1369" y="1721"/>
      <point x="1392" y="1745"/>
      <point x="1401" y="1745" type="qcurve" smooth="yes"/>
      <point x="1409" y="1745"/>
      <point x="1415" y="1735"/>
      <point x="1415" y="1729" type="qcurve" smooth="yes"/>
      <point x="1415" y="1716"/>
      <point x="1397" y="1678"/>
      <point x="1368" y="1617"/>
      <point x="1334" y="1529"/>
      <point x="1319" y="1466" type="qcurve" smooth="yes"/>
      <point x="1304" y="1402"/>
      <point x="1285" y="1270"/>
      <point x="1268" y="1162"/>
      <point x="1251" y="1094"/>
      <point x="1237" y="1094" type="qcurve" smooth="yes"/>
      <point x="1228" y="1094"/>
      <point x="1223" y="1135"/>
      <point x="1219" y="1207"/>
      <point x="1209" y="1306"/>
      <point x="1194" y="1364" type="qcurve" smooth="yes"/>
      <point x="1187" y="1392"/>
      <point x="1160" y="1449"/>
      <point x="1118" y="1501"/>
      <point x="1064" y="1543"/>
      <point x="1030" y="1556" type="qcurve"/>
      <point x="1018" y="1493"/>
      <point x="996" y="1370"/>
      <point x="987" y="1321" type="qcurve" smooth="yes"/>
      <point x="930" y="1014" type="line"/>
      <point x="991" y="942"/>
      <point x="1125" y="792"/>
      <point x="1235" y="629"/>
      <point x="1307" y="449"/>
      <point x="1307" y="346" type="qcurve" smooth="yes"/>
      <point x="1307" y="206"/>
      <point x="1221" y="9"/>
      <point x="1077" y="-115"/>
      <point x="888" y="-172"/>
      <point x="786" y="-172" type="qcurve" smooth="yes"/>
      <point x="727" y="-172"/>
      <point x="678" y="-160" type="qcurve"/>
      <point x="662" y="-225" type="line" smooth="yes"/>
      <point x="636" y="-334"/>
      <point x="598" y="-432"/>
      <point x="580" y="-432" type="qcurve" smooth="yes"/>
      <point x="561" y="-432"/>
      <point x="561" y="-403" type="qcurve" smooth="yes"/>
      <point x="561" y="-391"/>
      <point x="573" y="-331"/>
      <point x="590" y="-256"/>
      <point x="610" y="-175"/>
      <point x="618" y="-141" type="qcurve"/>
      <point x="569" y="-121"/>
      <point x="493" y="-68"/>
      <point x="432" y="-20"/>
      <point x="381" y="14"/>
      <point x="356" y="14" type="qcurve" smooth="yes"/>
      <point x="330" y="14"/>
      <point x="281" y="-29"/>
      <point x="238" y="-80"/>
      <point x="203" y="-123"/>
      <point x="193" y="-123" type="qcurve" smooth="yes"/>
      <point x="184" y="-123"/>
      <point x="184" y="-113" type="qcurve" smooth="yes"/>
      <point x="184" y="-101"/>
      <point x="212" y="-43"/>
      <point x="252" y="44"/>
      <point x="299" y="156"/>
      <point x="317" y="221" type="qcurve" smooth="yes"/>
      <point x="339" y="297"/>
      <point x="359" y="422"/>
      <point x="371" y="512"/>
      <point x="383" y="561"/>
      <point x="395" y="561" type="qcurve" smooth="yes"/>
      <point x="412" y="561"/>
      <point x="412" y="516" type="qcurve" smooth="yes"/>
      <point x="412" y="485"/>
      <point x="413" y="414"/>
      <point x="416" y="340"/>
      <point x="424" y="266"/>
      <point x="432" y="233" type="qcurve" smooth="yes"/>
      <point x="458" y="121"/>
      <point x="563" y="-31"/>
      <point x="637" y="-70" type="qcurve"/>
      <point x="665" y="51"/>
      <point x="711" y="256"/>
      <point x="750" y="441"/>
      <point x="786" y="615"/>
      <point x="805" y="705" type="qcurve"/>
      <point x="748" y="764"/>
      <point x="637" y="885"/>
      <point x="548" y="1014"/>
      <point x="494" y="1155"/>
      <point x="494" y="1233" type="qcurve" smooth="yes"/>
      <point x="494" y="1342"/>
      <point x="572" y="1490"/>
      <point x="694" y="1580"/>
      <point x="845" y="1618"/>
      <point x="918" y="1618" type="qcurve" smooth="yes"/>
      <point x="933" y="1618"/>
      <point x="963" y="1616"/>
      <point x="979" y="1614" type="qcurve"/>
      <point x="988" y="1671"/>
      <point x="1006" y="1762"/>
      <point x="1012" y="1790" type="qcurve" smooth="yes"/>
      <point x="1018" y="1822"/>
      <point x="1036" y="1849"/>
    </contour>
    <contour>
      <point x="1083" y="197" type="qcurve" smooth="yes"/>
      <point x="1083" y="264"/>
      <point x="1047" y="384"/>
      <point x="985" y="494"/>
      <point x="903" y="597"/>
      <point x="858" y="647" type="qcurve"/>
      <point x="694" y="-92" type="line"/>
      <point x="719" y="-98"/>
      <point x="771" y="-106"/>
      <point x="799" y="-106" type="qcurve" smooth="yes"/>
      <point x="865" y="-106"/>
      <point x="970" y="-63"/>
      <point x="1044" y="17"/>
      <point x="1083" y="128"/>
    </contour>
    <contour>
      <point x="743" y="1378" type="qcurve" smooth="yes"/>
      <point x="743" y="1338"/>
      <point x="764" y="1261"/>
      <point x="800" y="1186"/>
      <point x="850" y="1111"/>
      <point x="879" y="1073" type="qcurve"/>
      <point x="973" y="1571" type="line"/>
      <point x="965" y="1573"/>
      <point x="945" y="1575"/>
      <point x="936" y="1575" type="qcurve" smooth="yes"/>
      <point x="893" y="1575"/>
      <point x="822" y="1549"/>
      <point x="771" y="1499"/>
      <point x="743" y="1426"/>
    </contour>
  </outline>
</glyph>
<glyph name="ampersand" format="2">
  <advance width="1585"/>
  <unicode hex="0026"/>
  <outline>
    <contour>
      <point x="668" y="1786" type="qcurve" smooth="yes"/>
      <point x="732" y="1786"/>
      <point x="824" y="1750"/>
      <point x="884" y="1688"/>
      <point x="913" y="1608"/>
      <point x="913" y="1565" type="qcurve" smooth="yes"/>
      <point x="913" y="1480"/>
      <point x="843" y="1326"/>
      <point x="733" y="1178"/>
      <point x="600" y="1032"/>
      <point x="537" y="954" type="qcurve"/>
      <point x="577" y="870"/>
      <point x="665" y="717"/>
      <point x="746" y="593"/>
      <point x="813" y="501"/>
      <point x="831" y="477" type="qcurve" smooth="yes"/>
      <point x="846" y="457"/>
      <point x="892" y="403"/>
      <point x="950" y="340"/>
      <point x="1019" y="273"/>
      <point x="1055" y="240" type="qcurve"/>
      <point x="1098" y="289"/>
      <point x="1162" y="400"/>
      <point x="1204" y="512"/>
      <point x="1225" y="621"/>
      <point x="1225" y="668" type="qcurve" smooth="yes"/>
      <point x="1225" y="766"/>
      <point x="1167" y="848"/>
      <point x="1122" y="848" type="qcurve" smooth="yes"/>
      <point x="1090" y="848"/>
      <point x="1002" y="829"/>
      <point x="911" y="807"/>
      <point x="829" y="788"/>
      <point x="803" y="788" type="qcurve" smooth="yes"/>
      <point x="787" y="788"/>
      <point x="768" y="798"/>
      <point x="768" y="809" type="qcurve" smooth="yes"/>
      <point x="768" y="822"/>
      <point x="805" y="835"/>
      <point x="879" y="854"/>
      <point x="990" y="890"/>
      <point x="1065" y="926" type="qcurve" smooth="yes"/>
      <point x="1127" y="956"/>
      <point x="1213" y="1023"/>
      <point x="1271" y="1080"/>
      <point x="1307" y="1118"/>
      <point x="1319" y="1118" type="qcurve" smooth="yes"/>
      <point x="1330" y="1118"/>
      <point x="1347" y="1090"/>
      <point x="1359" y="1043"/>
      <point x="1366" y="980"/>
      <point x="1366" y="946" type="qcurve" smooth="yes"/>
      <point x="1366" y="842"/>
      <point x="1334" y="634"/>
      <point x="1270" y="439"/>
      <point x="1173" y="264"/>
      <point x="1108" y="193" type="qcurve"/>
      <point x="1142" y="164"/>
      <point x="1209" y="115"/>
      <point x="1273" y="79"/>
      <point x="1332" y="59"/>
      <point x="1358" y="59" type="qcurve" smooth="yes"/>
      <point x="1380" y="59"/>
      <point x="1419" y="86"/>
      <point x="1453" y="128"/>
      <point x="1482" y="175"/>
      <point x="1506" y="217"/>
      <point x="1526" y="244"/>
      <point x="1534" y="244" type="qcurve" smooth="yes"/>
      <point x="1544" y="244"/>
      <point x="1544" y="227" type="qcurve" smooth="yes"/>
      <point x="1544" y="212"/>
      <point x="1517" y="136"/>
      <point x="1474" y="41"/>
      <point x="1418" y="-62"/>
      <point x="1361" y="-148"/>
      <point x="1308" y="-203"/>
      <point x="1288" y="-203" type="qcurve" smooth="yes"/>
      <point x="1270" y="-203"/>
      <point x="1204" y="-176"/>
      <point x="1112" y="-116"/>
      <point x="997" y="-18"/>
      <point x="930" y="53" type="qcurve"/>
      <point x="859" y="15"/>
      <point x="694" y="-29"/>
      <point x="598" y="-29" type="qcurve" smooth="yes"/>
      <point x="481" y="-29"/>
      <point x="286" y="33"/>
      <point x="146" y="155"/>
      <point x="68" y="337"/>
      <point x="68" y="457" type="qcurve" smooth="yes"/>
      <point x="68" y="538"/>
      <point x="110" y="684"/>
      <point x="182" y="818"/>
      <point x="279" y="942"/>
      <point x="334" y="999" type="qcurve"/>
      <point x="279" y="1176"/>
      <point x="279" y="1356" type="qcurve" smooth="yes"/>
      <point x="279" y="1459"/>
      <point x="338" y="1620"/>
      <point x="442" y="1729"/>
      <point x="585" y="1786"/>
    </contour>
    <contour>
      <point x="727" y="291" type="qcurve" smooth="yes"/>
      <point x="531" y="548"/>
      <point x="418" y="788" type="qcurve"/>
      <point x="378" y="717"/>
      <point x="330" y="566"/>
      <point x="330" y="481" type="qcurve" smooth="yes"/>
      <point x="330" y="391"/>
      <point x="377" y="234"/>
      <point x="468" y="119"/>
      <point x="600" y="53"/>
      <point x="684" y="53" type="qcurve" smooth="yes"/>
      <point x="740" y="53"/>
      <point x="840" y="79"/>
      <point x="885" y="100" type="qcurve"/>
      <point x="850" y="142"/>
      <point x="767" y="235"/>
    </contour>
    <contour>
      <point x="406" y="1446" type="qcurve" smooth="yes"/>
      <point x="406" y="1367"/>
      <point x="437" y="1209"/>
      <point x="465" y="1128" type="qcurve"/>
      <point x="529" y="1189"/>
      <point x="645" y="1310"/>
      <point x="731" y="1429"/>
      <point x="782" y="1548"/>
      <point x="782" y="1608" type="qcurve" smooth="yes"/>
      <point x="782" y="1671"/>
      <point x="712" y="1751"/>
      <point x="643" y="1751" type="qcurve" smooth="yes"/>
      <point x="599" y="1751"/>
      <point x="514" y="1718"/>
      <point x="447" y="1646"/>
      <point x="406" y="1530"/>
    </contour>
  </outline>
</glyph>
<glyph name="quotesingle" format="2">
  <advance width="358"/>
  <unicode hex="0027"/>
  <outline>
    <contour>
      <point x="178" y="1597" type="qcurve" smooth="yes"/>
      <point x="216" y="1597"/>
      <point x="254" y="1538"/>
      <point x="254" y="1475" type="qcurve" smooth="yes"/>
      <point x="254" y="1450"/>
      <point x="252" y="1353"/>
      <point x="247" y="1236"/>
      <point x="241" y="1113"/>
      <point x="232" y="1012"/>
      <point x="221" y="948"/>
      <point x="215" y="948" type="qcurve" smooth="yes"/>
      <point x="208" y="948"/>
      <point x="186" y="1011"/>
      <point x="162" y="1110"/>
      <point x="138" y="1232"/>
      <point x="118" y="1351"/>
      <point x="106" y="1453"/>
      <point x="106" y="1483" type="qcurve" smooth="yes"/>
      <point x="106" y="1542"/>
      <point x="141" y="1597"/>
    </contour>
  </outline>
</glyph>
<glyph name="parenleft" format="2">
  <advance width="883"/>
  <unicode hex="0028"/>
  <outline>
    <contour>
      <point x="504" y="2038" type="qcurve" smooth="yes"/>
      <point x="514" y="2038"/>
      <point x="514" y="2025" type="qcurve" smooth="yes"/>
      <point x="514" y="2016"/>
      <point x="484" y="1959"/>
      <point x="438" y="1869"/>
      <point x="384" y="1749"/>
      <point x="360" y="1677" type="qcurve" smooth="yes"/>
      <point x="339" y="1612"/>
      <point x="295" y="1438"/>
      <point x="260" y="1218"/>
      <point x="238" y="952"/>
      <point x="238" y="795" type="qcurve" smooth="yes"/>
      <point x="238" y="631"/>
      <point x="284" y="334"/>
      <point x="357" y="74"/>
      <point x="445" y="-144"/>
      <point x="487" y="-229" type="qcurve" smooth="yes"/>
      <point x="565" y="-388"/>
      <point x="708" y="-599"/>
      <point x="817" y="-733"/>
      <point x="883" y="-805"/>
      <point x="883" y="-825" type="qcurve" smooth="yes"/>
      <point x="883" y="-835"/>
      <point x="868" y="-842"/>
      <point x="862" y="-842" type="qcurve" smooth="yes"/>
      <point x="842" y="-842"/>
      <point x="758" y="-797"/>
      <point x="646" y="-708"/>
      <point x="514" y="-574"/>
      <point x="446" y="-485" type="qcurve" smooth="yes"/>
      <point x="412" y="-440"/>
      <point x="322" y="-312"/>
      <point x="228" y="-148"/>
      <point x="138" y="50"/>
      <point x="67" y="284"/>
      <point x="23" y="551"/>
      <point x="23" y="702" type="qcurve" smooth="yes"/>
      <point x="23" y="907"/>
      <point x="86" y="1264"/>
      <point x="183" y="1561"/>
      <point x="300" y="1794"/>
      <point x="407" y="1954"/>
      <point x="489" y="2038"/>
    </contour>
  </outline>
</glyph>
<glyph name="plus" format="2">
  <advance width="903"/>
  <unicode hex="002B"/>
  <outline>
    <contour>
      <point x="502" y="1200" type="qcurve" smooth="yes"/>
      <point x="516" y="1200"/>
      <point x="532" y="1177"/>
      <point x="532" y="1143" type="qcurve" smooth="yes"/>
      <point x="532" y="1131"/>
      <point x="530" y="1068"/>
      <point x="528" y="984"/>
      <point x="526" y="889"/>
      <point x="526" y="844" type="qcurve" smooth="yes"/>
      <point x="526" y="809"/>
      <point x="527" y="749"/>
      <point x="530" y="727" type="qcurve" smooth="yes"/>
      <point x="533" y="702"/>
      <point x="555" y="702" type="qcurve" smooth="yes"/>
      <point x="580" y="702"/>
      <point x="634" y="709"/>
      <point x="686" y="718"/>
      <point x="736" y="725"/>
      <point x="756" y="725" type="qcurve" smooth="yes"/>
      <point x="782" y="725"/>
      <point x="801" y="709"/>
      <point x="801" y="696" type="qcurve" smooth="yes"/>
      <point x="801" y="667"/>
      <point x="754" y="657" type="qcurve" smooth="yes"/>
      <point x="734" y="653"/>
      <point x="683" y="646"/>
      <point x="632" y="640"/>
      <point x="585" y="634"/>
      <point x="569" y="631" type="qcurve" smooth="yes"/>
      <point x="557" y="628"/>
      <point x="541" y="615"/>
      <point x="541" y="590" type="qcurve" smooth="yes"/>
      <point x="541" y="574"/>
      <point x="547" y="510"/>
      <point x="556" y="430"/>
      <point x="567" y="343"/>
      <point x="576" y="264"/>
      <point x="582" y="201"/>
      <point x="582" y="186" type="qcurve" smooth="yes"/>
      <point x="582" y="155"/>
      <point x="562" y="133"/>
      <point x="551" y="133" type="qcurve" smooth="yes"/>
      <point x="537" y="133"/>
      <point x="517" y="156"/>
      <point x="512" y="184" type="qcurve" smooth="yes"/>
      <point x="510" y="198"/>
      <point x="503" y="253"/>
      <point x="495" y="323"/>
      <point x="486" y="402"/>
      <point x="476" y="478"/>
      <point x="467" y="546"/>
      <point x="463" y="571" type="qcurve" smooth="yes"/>
      <point x="458" y="600"/>
      <point x="436" y="618"/>
      <point x="418" y="618" type="qcurve" smooth="yes"/>
      <point x="398" y="618"/>
      <point x="325" y="615"/>
      <point x="244" y="612"/>
      <point x="169" y="610"/>
      <point x="147" y="610" type="qcurve" smooth="yes"/>
      <point x="123" y="610"/>
      <point x="100" y="634"/>
      <point x="100" y="651" type="qcurve" smooth="yes"/>
      <point x="100" y="670"/>
      <point x="129" y="690"/>
      <point x="154" y="692" type="qcurve" smooth="yes"/>
      <point x="185" y="694"/>
      <point x="255" y="696"/>
      <point x="320" y="696"/>
      <point x="377" y="698"/>
      <point x="395" y="700" type="qcurve" smooth="yes"/>
      <point x="432" y="705"/>
      <point x="460" y="735"/>
      <point x="463" y="772" type="qcurve" smooth="yes"/>
      <point x="468" y="819"/>
      <point x="471" y="909"/>
      <point x="471" y="952" type="qcurve" smooth="yes"/>
      <point x="471" y="1009"/>
      <point x="467" y="1107"/>
      <point x="467" y="1139" type="qcurve" smooth="yes"/>
      <point x="467" y="1200"/>
    </contour>
  </outline>
</glyph>
<glyph name="comma" format="2">
  <advance width="516"/>
  <unicode hex="002C"/>
  <outline>
    <contour>
      <point x="248" y="330" type="qcurve" smooth="yes"/>
      <point x="293" y="330"/>
      <point x="356" y="298"/>
      <point x="396" y="244"/>
      <point x="414" y="175"/>
      <point x="414" y="139" type="qcurve" smooth="yes"/>
      <point x="414" y="82"/>
      <point x="384" y="-33"/>
      <point x="336" y="-141"/>
      <point x="277" y="-234"/>
      <point x="220" y="-304"/>
      <point x="172" y="-344"/>
      <point x="158" y="-344" type="qcurve" smooth="yes"/>
      <point x="141" y="-344"/>
      <point x="141" y="-328" type="qcurve" smooth="yes"/>
      <point x="141" y="-319"/>
      <point x="154" y="-298"/>
      <point x="176" y="-269"/>
      <point x="203" y="-231"/>
      <point x="217" y="-207" type="qcurve" smooth="yes"/>
      <point x="233" y="-179"/>
      <point x="258" y="-119"/>
      <point x="258" y="-88" type="qcurve" smooth="yes"/>
      <point x="258" y="-62"/>
      <point x="235" y="-20"/>
      <point x="200" y="18"/>
      <point x="160" y="55"/>
      <point x="125" y="98"/>
      <point x="102" y="150"/>
      <point x="102" y="184" type="qcurve" smooth="yes"/>
      <point x="102" y="217"/>
      <point x="123" y="271"/>
      <point x="162" y="309"/>
      <point x="216" y="330"/>
    </contour>
  </outline>
</glyph>
<glyph name="period" format="2">
  <advance width="489"/>
  <unicode hex="002E"/>
  <outline>
    <contour>
      <point x="248" y="260" type="qcurve" smooth="yes"/>
      <point x="286" y="260"/>
      <point x="339" y="233"/>
      <point x="372" y="190"/>
      <point x="387" y="137"/>
      <point x="387" y="111" type="qcurve" smooth="yes"/>
      <point x="387" y="65"/>
      <point x="365" y="-3"/>
      <point x="327" y="-47"/>
      <point x="275" y="-68"/>
      <point x="246" y="-68" type="qcurve" smooth="yes"/>
      <point x="215" y="-68"/>
      <point x="163" y="-46"/>
      <point x="124" y="-4"/>
      <point x="102" y="55"/>
      <point x="102" y="92" type="qcurve" smooth="yes"/>
      <point x="102" y="131"/>
      <point x="124" y="193"/>
      <point x="163" y="236"/>
      <point x="216" y="260"/>
    </contour>
  </outline>
</glyph>
<glyph name="zero" format="2">
  <advance width="1481"/>
  <unicode hex="0030"/>
  <outline>
    <contour>
      <point x="428" y="1542" type="qcurve" smooth="yes"/>
      <point x="465" y="1558"/>
      <point x="546" y="1582"/>
      <point x="627" y="1597"/>
      <point x="704" y="1604"/>
      <point x="737" y="1604" type="qcurve" smooth="yes"/>
      <point x="853" y="1604"/>
      <point x="1051" y="1546"/>
      <point x="1211" y="1443"/>
      <point x="1334" y="1302"/>
      <point x="1417" y="1134"/>
      <point x="1460" y="946"/>
      <point x="1460" y="848" type="qcurve" smooth="yes"/>
      <point x="1460" y="695"/>
      <point x="1363" y="432"/>
      <point x="1182" y="239"/>
      <point x="923" y="129"/>
      <point x="762" y="129" type="qcurve" smooth="yes"/>
      <point x="673" y="129"/>
      <point x="494" y="168"/>
      <point x="330" y="250"/>
      <point x="188" y="374"/>
      <point x="83" y="545"/>
      <point x="23" y="762"/>
      <point x="23" y="895" type="qcurve" smooth="yes"/>
      <point x="23" y="997"/>
      <point x="76" y="1192"/>
      <point x="179" y="1362"/>
      <point x="330" y="1499"/>
    </contour>
    <contour>
      <point x="702" y="1542" type="qcurve" smooth="yes"/>
      <point x="588" y="1542"/>
      <point x="419" y="1444"/>
      <point x="307" y="1279"/>
      <point x="252" y="1062"/>
      <point x="252" y="942" type="qcurve" smooth="yes"/>
      <point x="252" y="776"/>
      <point x="326" y="503"/>
      <point x="467" y="307"/>
      <point x="671" y="199"/>
      <point x="801" y="199" type="qcurve" smooth="yes"/>
      <point x="914" y="199"/>
      <point x="1072" y="295"/>
      <point x="1172" y="459"/>
      <point x="1217" y="675"/>
      <point x="1217" y="795" type="qcurve" smooth="yes"/>
      <point x="1217" y="1159"/>
      <point x="961" y="1542"/>
    </contour>
  </outline>
</glyph>
<glyph name="two" format="2">
  <advance width="1094"/>
  <unicode hex="0032"/>
  <outline>
    <contour>
      <point x="504" y="1665" type="qcurve" smooth="yes"/>
      <point x="612" y="1665"/>
      <point x="774" y="1600"/>
      <point x="883" y="1490"/>
      <point x="938" y="1343"/>
      <point x="938" y="1262" type="qcurve" smooth="yes"/>
      <point x="938" y="1182"/>
      <point x="887" y="1025"/>
      <point x="803" y="878"/>
      <point x="695" y="744"/>
      <point x="581" y="626"/>
      <point x="469" y="529"/>
      <point x="377" y="457"/>
      <point x="315" y="413"/>
      <point x="307" y="408" type="qcurve" smooth="yes"/>
      <point x="282" y="391"/>
      <point x="242" y="362"/>
      <point x="242" y="354" type="qcurve" smooth="yes"/>
      <point x="242" y="345"/>
      <point x="310" y="303"/>
      <point x="419" y="250"/>
      <point x="554" y="193"/>
      <point x="687" y="146"/>
      <point x="805" y="115"/>
      <point x="842" y="115" type="qcurve" smooth="yes"/>
      <point x="879" y="115"/>
      <point x="937" y="145"/>
      <point x="984" y="189"/>
      <point x="1020" y="241"/>
      <point x="1049" y="285"/>
      <point x="1071" y="315"/>
      <point x="1081" y="315" type="qcurve" smooth="yes"/>
      <point x="1089" y="315"/>
      <point x="1094" y="306"/>
      <point x="1094" y="301" type="qcurve" smooth="yes"/>
      <point x="1094" y="286"/>
      <point x="1070" y="234"/>
      <point x="1032" y="170"/>
      <point x="986" y="97"/>
      <point x="965" y="61" type="qcurve" smooth="yes"/>
      <point x="939" y="20"/>
      <point x="898" y="-62"/>
      <point x="861" y="-127"/>
      <point x="828" y="-168"/>
      <point x="811" y="-168" type="qcurve" smooth="yes"/>
      <point x="792" y="-168"/>
      <point x="717" y="-120"/>
      <point x="613" y="-45"/>
      <point x="485" y="46"/>
      <point x="412" y="90" type="qcurve" smooth="yes"/>
      <point x="333" y="138"/>
      <point x="198" y="207"/>
      <point x="99" y="256"/>
      <point x="43" y="288"/>
      <point x="43" y="297" type="qcurve" smooth="yes"/>
      <point x="43" y="303"/>
      <point x="67" y="318"/>
      <point x="111" y="343"/>
      <point x="171" y="380"/>
      <point x="207" y="408" type="qcurve" smooth="yes"/>
      <point x="340" y="511"/>
      <point x="519" y="714"/>
      <point x="627" y="909"/>
      <point x="672" y="1094"/>
      <point x="672" y="1180" type="qcurve" smooth="yes"/>
      <point x="672" y="1252"/>
      <point x="635" y="1370"/>
      <point x="563" y="1455"/>
      <point x="457" y="1501"/>
      <point x="389" y="1501" type="qcurve" smooth="yes"/>
      <point x="326" y="1501"/>
      <point x="224" y="1453"/>
      <point x="147" y="1369"/>
      <point x="95" y="1256"/>
      <point x="82" y="1192" type="qcurve" smooth="yes"/>
      <point x="72" y="1144"/>
      <point x="62" y="1066"/>
      <point x="55" y="1010"/>
      <point x="46" y="979"/>
      <point x="37" y="979" type="qcurve" smooth="yes"/>
      <point x="12" y="979"/>
      <point x="12" y="1077" type="qcurve" smooth="yes"/>
      <point x="12" y="1198"/>
      <point x="75" y="1412"/>
      <point x="198" y="1572"/>
      <point x="382" y="1665"/>
    </contour>
  </outline>
</glyph>
<glyph name="four" format="2">
  <advance width="1460"/>
  <unicode hex="0034"/>
  <outline>
    <contour>
      <point x="891" y="1747" type="qcurve" smooth="yes"/>
      <point x="907" y="1747"/>
      <point x="907" y="1722" type="qcurve" smooth="yes"/>
      <point x="907" y="1713"/>
      <point x="898" y="1682"/>
      <point x="884" y="1643"/>
      <point x="870" y="1600"/>
      <point x="864" y="1579" type="qcurve" smooth="yes"/>
      <point x="856" y="1550"/>
      <point x="848" y="1484"/>
      <point x="848" y="1450" type="qcurve" smooth="yes"/>
      <point x="848" y="1399"/>
      <point x="862" y="1288"/>
      <point x="882" y="1183"/>
      <point x="903" y="1089"/>
      <point x="911" y="1055" type="qcurve" smooth="yes"/>
      <point x="945" y="895"/>
      <point x="1008" y="646"/>
      <point x="1036" y="543" type="qcurve"/>
      <point x="1051" y="535"/>
      <point x="1096" y="520"/>
      <point x="1147" y="509"/>
      <point x="1198" y="502"/>
      <point x="1219" y="502" type="qcurve" smooth="yes"/>
      <point x="1246" y="502"/>
      <point x="1292" y="540"/>
      <point x="1330" y="585"/>
      <point x="1359" y="623"/>
      <point x="1370" y="623" type="qcurve" smooth="yes"/>
      <point x="1378" y="623"/>
      <point x="1378" y="612" type="qcurve" smooth="yes"/>
      <point x="1378" y="602"/>
      <point x="1364" y="568"/>
      <point x="1343" y="526"/>
      <point x="1317" y="477"/>
      <point x="1305" y="453" type="qcurve" smooth="yes"/>
      <point x="1286" y="415"/>
      <point x="1260" y="354"/>
      <point x="1240" y="312"/>
      <point x="1224" y="289"/>
      <point x="1217" y="289" type="qcurve" smooth="yes"/>
      <point x="1203" y="289"/>
      <point x="1166" y="301"/>
      <point x="1125" y="318"/>
      <point x="1085" y="337"/>
      <point x="1067" y="344" type="qcurve"/>
      <point x="1068" y="326"/>
      <point x="1075" y="284"/>
      <point x="1084" y="243"/>
      <point x="1093" y="207"/>
      <point x="1096" y="197" type="qcurve" smooth="yes"/>
      <point x="1103" y="166"/>
      <point x="1119" y="107"/>
      <point x="1141" y="47"/>
      <point x="1171" y="-17"/>
      <point x="1192" y="-51" type="qcurve" smooth="yes"/>
      <point x="1210" y="-80"/>
      <point x="1255" y="-121"/>
      <point x="1303" y="-151"/>
      <point x="1348" y="-171"/>
      <point x="1366" y="-178" type="qcurve" smooth="yes"/>
      <point x="1381" y="-184"/>
      <point x="1411" y="-196"/>
      <point x="1435" y="-207"/>
      <point x="1450" y="-220"/>
      <point x="1450" y="-227" type="qcurve" smooth="yes"/>
      <point x="1450" y="-232"/>
      <point x="1441" y="-240"/>
      <point x="1432" y="-240" type="qcurve" smooth="yes"/>
      <point x="1411" y="-240"/>
      <point x="1330" y="-211"/>
      <point x="1221" y="-170"/>
      <point x="1090" y="-128"/>
      <point x="1020" y="-115" type="qcurve" smooth="yes"/>
      <point x="961" y="-104"/>
      <point x="837" y="-100"/>
      <point x="734" y="-100"/>
      <point x="668" y="-96"/>
      <point x="668" y="-84" type="qcurve" smooth="yes"/>
      <point x="668" y="-76"/>
      <point x="695" y="-65"/>
      <point x="736" y="-56"/>
      <point x="785" y="-48"/>
      <point x="807" y="-43" type="qcurve" smooth="yes"/>
      <point x="881" y="-28"/>
      <point x="881" y="41" type="qcurve" smooth="yes"/>
      <point x="881" y="59"/>
      <point x="874" y="119"/>
      <point x="862" y="190"/>
      <point x="848" y="268"/>
      <point x="834" y="340"/>
      <point x="821" y="401"/>
      <point x="817" y="420" type="qcurve"/>
      <point x="778" y="437"/>
      <point x="689" y="478"/>
      <point x="599" y="520"/>
      <point x="513" y="560"/>
      <point x="477" y="575" type="qcurve" smooth="yes"/>
      <point x="380" y="617"/>
      <point x="210" y="680"/>
      <point x="83" y="729"/>
      <point x="10" y="765"/>
      <point x="10" y="780" type="qcurve" smooth="yes"/>
      <point x="10" y="793"/>
      <point x="57" y="845"/>
      <point x="138" y="922"/>
      <point x="247" y="1025"/>
      <point x="309" y="1090" type="qcurve" smooth="yes"/>
      <point x="376" y="1159"/>
      <point x="473" y="1260"/>
      <point x="544" y="1337"/>
      <point x="596" y="1395"/>
      <point x="642" y="1450"/>
      <point x="688" y="1507"/>
      <point x="717" y="1544" type="qcurve" smooth="yes"/>
      <point x="765" y="1604"/>
      <point x="823" y="1682"/>
      <point x="859" y="1729"/>
      <point x="880" y="1747"/>
    </contour>
    <contour>
      <point x="641" y="1350" type="qcurve" smooth="yes"/>
      <point x="634" y="1350"/>
      <point x="601" y="1323"/>
      <point x="555" y="1280"/>
      <point x="502" y="1225"/>
      <point x="449" y="1168"/>
      <point x="401" y="1113"/>
      <point x="383" y="1092" type="qcurve" smooth="yes"/>
      <point x="376" y="1083"/>
      <point x="344" y="1045"/>
      <point x="304" y="997"/>
      <point x="262" y="944"/>
      <point x="227" y="896"/>
      <point x="205" y="858"/>
      <point x="205" y="850" type="qcurve" smooth="yes"/>
      <point x="205" y="838"/>
      <point x="253" y="804"/>
      <point x="326" y="765"/>
      <point x="414" y="726"/>
      <point x="453" y="711" type="qcurve" smooth="yes"/>
      <point x="485" y="698"/>
      <point x="581" y="659"/>
      <point x="679" y="620"/>
      <point x="765" y="588"/>
      <point x="788" y="582" type="qcurve"/>
      <point x="783" y="613"/>
      <point x="769" y="702"/>
      <point x="753" y="809"/>
      <point x="734" y="929"/>
      <point x="723" y="991" type="qcurve" smooth="yes"/>
      <point x="717" y="1024"/>
      <point x="704" y="1102"/>
      <point x="691" y="1182"/>
      <point x="676" y="1257"/>
      <point x="662" y="1315"/>
      <point x="648" y="1350"/>
    </contour>
  </outline>
</glyph>
<glyph name="five" format="2">
  <advance width="1552"/>
  <unicode hex="0035"/>
  <outline>
    <contour>
      <point x="852" y="1696" type="qcurve" smooth="yes"/>
      <point x="867" y="1696"/>
      <point x="930" y="1667"/>
      <point x="1012" y="1622"/>
      <point x="1105" y="1571"/>
      <point x="1194" y="1526"/>
      <point x="1271" y="1497"/>
      <point x="1296" y="1497" type="qcurve" smooth="yes"/>
      <point x="1347" y="1497"/>
      <point x="1418" y="1571"/>
      <point x="1456" y="1634" type="qcurve" smooth="yes"/>
      <point x="1490" y="1688"/>
      <point x="1522" y="1731"/>
      <point x="1536" y="1731" type="qcurve" smooth="yes"/>
      <point x="1542" y="1731"/>
      <point x="1552" y="1722"/>
      <point x="1552" y="1710" type="qcurve" smooth="yes"/>
      <point x="1552" y="1693"/>
      <point x="1535" y="1629"/>
      <point x="1507" y="1548"/>
      <point x="1469" y="1455"/>
      <point x="1428" y="1363"/>
      <point x="1386" y="1279"/>
      <point x="1349" y="1215"/>
      <point x="1318" y="1177"/>
      <point x="1309" y="1178" type="qcurve" smooth="yes"/>
      <point x="1290" y="1179"/>
      <point x="1210" y="1227"/>
      <point x="1109" y="1297"/>
      <point x="999" y="1379"/>
      <point x="901" y="1449"/>
      <point x="827" y="1496"/>
      <point x="813" y="1497" type="qcurve" smooth="yes"/>
      <point x="803" y="1498"/>
      <point x="758" y="1436"/>
      <point x="701" y="1343"/>
      <point x="640" y="1233"/>
      <point x="590" y="1138"/>
      <point x="557" y="1072"/>
      <point x="557" y="1069" type="qcurve" smooth="yes"/>
      <point x="557" y="1064"/>
      <point x="602" y="1059"/>
      <point x="678" y="1051"/>
      <point x="781" y="1037"/>
      <point x="840" y="1022" type="qcurve" smooth="yes"/>
      <point x="930" y="999"/>
      <point x="1083" y="909"/>
      <point x="1193" y="781"/>
      <point x="1255" y="620"/>
      <point x="1255" y="526" type="qcurve" smooth="yes"/>
      <point x="1255" y="359"/>
      <point x="1150" y="89"/>
      <point x="968" y="-103"/>
      <point x="722" y="-207"/>
      <point x="580" y="-207" type="qcurve" smooth="yes"/>
      <point x="448" y="-207"/>
      <point x="237" y="-126"/>
      <point x="89" y="19"/>
      <point x="10" y="223"/>
      <point x="10" y="346" type="qcurve" smooth="yes"/>
      <point x="10" y="438"/>
      <point x="42" y="585"/>
      <point x="89" y="688"/>
      <point x="140" y="743"/>
      <point x="158" y="743" type="qcurve" smooth="yes"/>
      <point x="166" y="743"/>
      <point x="170" y="736"/>
      <point x="170" y="731" type="qcurve" smooth="yes"/>
      <point x="170" y="723"/>
      <point x="156" y="693"/>
      <point x="135" y="650"/>
      <point x="113" y="597"/>
      <point x="104" y="567" type="qcurve" smooth="yes"/>
      <point x="93" y="527"/>
      <point x="80" y="427"/>
      <point x="80" y="358" type="qcurve" smooth="yes"/>
      <point x="80" y="251"/>
      <point x="155" y="87"/>
      <point x="283" y="-24"/>
      <point x="449" y="-80"/>
      <point x="541" y="-80" type="qcurve" smooth="yes"/>
      <point x="635" y="-80"/>
      <point x="800" y="-10"/>
      <point x="921" y="130"/>
      <point x="991" y="342"/>
      <point x="991" y="483" type="qcurve" smooth="yes"/>
      <point x="991" y="547"/>
      <point x="962" y="653"/>
      <point x="911" y="739"/>
      <point x="843" y="806"/>
      <point x="803" y="831" type="qcurve" smooth="yes"/>
      <point x="747" y="867"/>
      <point x="623" y="912"/>
      <point x="520" y="940"/>
      <point x="453" y="955"/>
      <point x="453" y="961" type="qcurve" smooth="yes"/>
      <point x="453" y="979"/>
      <point x="540" y="1150"/>
      <point x="629" y="1317" type="qcurve" smooth="yes"/>
      <point x="680" y="1414"/>
      <point x="752" y="1556"/>
      <point x="803" y="1650"/>
      <point x="837" y="1696"/>
    </contour>
  </outline>
</glyph>
<glyph name="six" format="2">
  <advance width="1225"/>
  <unicode hex="0036"/>
  <outline>
    <contour>
      <point x="702" y="1610" type="qcurve" smooth="yes"/>
      <point x="781" y="1610"/>
      <point x="908" y="1579"/>
      <point x="1009" y="1528"/>
      <point x="1084" y="1464"/>
      <point x="1138" y="1399"/>
      <point x="1171" y="1340"/>
      <point x="1180" y="1319" type="qcurve" smooth="yes"/>
      <point x="1189" y="1297"/>
      <point x="1196" y="1257"/>
      <point x="1196" y="1243" type="qcurve" smooth="yes"/>
      <point x="1196" y="1229"/>
      <point x="1185" y="1219"/>
      <point x="1176" y="1219" type="qcurve" smooth="yes"/>
      <point x="1162" y="1219"/>
      <point x="1137" y="1253"/>
      <point x="1112" y="1294" type="qcurve" smooth="yes"/>
      <point x="1094" y="1325"/>
      <point x="1032" y="1404"/>
      <point x="938" y="1475"/>
      <point x="811" y="1524"/>
      <point x="729" y="1524" type="qcurve" smooth="yes"/>
      <point x="635" y="1524"/>
      <point x="501" y="1453"/>
      <point x="408" y="1344"/>
      <point x="352" y="1212"/>
      <point x="323" y="1092"/>
      <point x="313" y="998"/>
      <point x="313" y="981" type="qcurve"/>
      <point x="335" y="1002"/>
      <point x="405" y="1057"/>
      <point x="497" y="1108"/>
      <point x="610" y="1143"/>
      <point x="676" y="1143" type="qcurve" smooth="yes"/>
      <point x="812" y="1143"/>
      <point x="1012" y="1054"/>
      <point x="1141" y="904"/>
      <point x="1204" y="706"/>
      <point x="1204" y="598" type="qcurve" smooth="yes"/>
      <point x="1204" y="462"/>
      <point x="1115" y="246"/>
      <point x="969" y="96"/>
      <point x="782" y="16"/>
      <point x="684" y="16" type="qcurve" smooth="yes"/>
      <point x="614" y="16"/>
      <point x="462" y="51"/>
      <point x="317" y="127"/>
      <point x="186" y="247"/>
      <point x="87" y="419"/>
      <point x="29" y="645"/>
      <point x="29" y="788" type="qcurve" smooth="yes"/>
      <point x="29" y="977"/>
      <point x="129" y="1281"/>
      <point x="308" y="1495"/>
      <point x="555" y="1610"/>
    </contour>
    <contour>
      <point x="635" y="1081" type="qcurve" smooth="yes"/>
      <point x="573" y="1081"/>
      <point x="453" y="1029"/>
      <point x="358" y="912"/>
      <point x="299" y="725"/>
      <point x="299" y="590" type="qcurve" smooth="yes"/>
      <point x="299" y="464"/>
      <point x="359" y="270"/>
      <point x="465" y="138"/>
      <point x="608" y="70"/>
      <point x="692" y="70" type="qcurve" smooth="yes"/>
      <point x="767" y="70"/>
      <point x="887" y="141"/>
      <point x="971" y="268"/>
      <point x="1016" y="446"/>
      <point x="1016" y="553" type="qcurve" smooth="yes"/>
      <point x="1016" y="614"/>
      <point x="1004" y="740"/>
      <point x="972" y="857"/>
      <point x="918" y="960"/>
      <point x="833" y="1037"/>
      <point x="715" y="1081"/>
    </contour>
  </outline>
</glyph>
<glyph name="eight" format="2">
  <advance width="975"/>
  <unicode hex="0038"/>
  <outline>
    <contour>
      <point x="496" y="1606" type="qcurve" smooth="yes"/>
      <point x="585" y="1606"/>
      <point x="713" y="1557"/>
      <point x="796" y="1476"/>
      <point x="836" y="1370"/>
      <point x="836" y="1313" type="qcurve" smooth="yes"/>
      <point x="836" y="1269"/>
      <point x="817" y="1191"/>
      <point x="785" y="1123"/>
      <point x="746" y="1067"/>
      <point x="725" y="1044" type="qcurve" smooth="yes"/>
      <point x="676" y="990"/>
      <point x="614" y="952" type="qcurve"/>
      <point x="712" y="891"/>
      <point x="789" y="809" type="qcurve" smooth="yes"/>
      <point x="822" y="774"/>
      <point x="885" y="689"/>
      <point x="935" y="589"/>
      <point x="965" y="474"/>
      <point x="965" y="410" type="qcurve" smooth="yes"/>
      <point x="965" y="305"/>
      <point x="897" y="125"/>
      <point x="771" y="-7"/>
      <point x="594" y="-82"/>
      <point x="485" y="-82" type="qcurve" smooth="yes"/>
      <point x="399" y="-82"/>
      <point x="230" y="-38"/>
      <point x="95" y="64"/>
      <point x="12" y="230"/>
      <point x="12" y="352" type="qcurve" smooth="yes"/>
      <point x="12" y="412"/>
      <point x="38" y="515"/>
      <point x="81" y="602"/>
      <point x="136" y="673"/>
      <point x="165" y="702" type="qcurve" smooth="yes"/>
      <point x="233" y="768"/>
      <point x="319" y="813" type="qcurve"/>
      <point x="254" y="859"/>
      <point x="203" y="920" type="qcurve" smooth="yes"/>
      <point x="181" y="946"/>
      <point x="140" y="1009"/>
      <point x="108" y="1083"/>
      <point x="88" y="1167"/>
      <point x="88" y="1214" type="qcurve" smooth="yes"/>
      <point x="88" y="1312"/>
      <point x="157" y="1459"/>
      <point x="271" y="1557"/>
      <point x="418" y="1606"/>
    </contour>
    <contour>
      <point x="580" y="1001" type="qcurve" smooth="yes"/>
      <point x="596" y="1001"/>
      <point x="660" y="1046"/>
      <point x="724" y="1128"/>
      <point x="772" y="1243"/>
      <point x="772" y="1313" type="qcurve" smooth="yes"/>
      <point x="772" y="1363"/>
      <point x="745" y="1448"/>
      <point x="692" y="1511"/>
      <point x="614" y="1546"/>
      <point x="563" y="1546" type="qcurve" smooth="yes"/>
      <point x="520" y="1546"/>
      <point x="447" y="1518"/>
      <point x="393" y="1462"/>
      <point x="362" y="1375"/>
      <point x="362" y="1317" type="qcurve" smooth="yes"/>
      <point x="362" y="1242"/>
      <point x="418" y="1125"/>
      <point x="492" y="1044"/>
      <point x="564" y="1001"/>
    </contour>
    <contour>
      <point x="406" y="735" type="qcurve" smooth="yes"/>
      <point x="373" y="735"/>
      <point x="281" y="681"/>
      <point x="197" y="577"/>
      <point x="139" y="428"/>
      <point x="139" y="334" type="qcurve" smooth="yes"/>
      <point x="139" y="253"/>
      <point x="186" y="116"/>
      <point x="277" y="18"/>
      <point x="408" y="-37"/>
      <point x="492" y="-37" type="qcurve" smooth="yes"/>
      <point x="566" y="-37"/>
      <point x="680" y="8"/>
      <point x="757" y="93"/>
      <point x="797" y="214"/>
      <point x="797" y="289" type="qcurve" smooth="yes"/>
      <point x="797" y="349"/>
      <point x="764" y="461"/>
      <point x="707" y="560"/>
      <point x="630" y="643"/>
      <point x="543" y="702"/>
      <point x="450" y="735"/>
    </contour>
  </outline>
</glyph>
<glyph name="nine" format="2">
  <advance width="1231"/>
  <unicode hex="0039"/>
  <outline>
    <contour>
      <point x="561" y="1534" type="qcurve" smooth="yes"/>
      <point x="699" y="1534"/>
      <point x="937" y="1441"/>
      <point x="1111" y="1262"/>
      <point x="1210" y="1000"/>
      <point x="1210" y="831" type="qcurve" smooth="yes"/>
      <point x="1210" y="614"/>
      <point x="1091" y="291"/>
      <point x="893" y="77"/>
      <point x="638" y="-29"/>
      <point x="502" y="-29" type="qcurve" smooth="yes"/>
      <point x="397" y="-29"/>
      <point x="238" y="18"/>
      <point x="133" y="82"/>
      <point x="80" y="148"/>
      <point x="80" y="166" type="qcurve" smooth="yes"/>
      <point x="80" y="177"/>
      <point x="91" y="190"/>
      <point x="102" y="190" type="qcurve" smooth="yes"/>
      <point x="114" y="190"/>
      <point x="148" y="172"/>
      <point x="193" y="146"/>
      <point x="251" y="114"/>
      <point x="322" y="88"/>
      <point x="409" y="70"/>
      <point x="461" y="70" type="qcurve" smooth="yes"/>
      <point x="550" y="70"/>
      <point x="683" y="123"/>
      <point x="778" y="208"/>
      <point x="839" y="314"/>
      <point x="874" y="420"/>
      <point x="887" y="515"/>
      <point x="887" y="547" type="qcurve" smooth="yes"/>
      <point x="887" y="559"/>
      <point x="884" y="580"/>
      <point x="879" y="580" type="qcurve" smooth="yes"/>
      <point x="873" y="580"/>
      <point x="825" y="556"/>
      <point x="745" y="528"/>
      <point x="634" y="504"/>
      <point x="565" y="504" type="qcurve" smooth="yes"/>
      <point x="427" y="504"/>
      <point x="222" y="583"/>
      <point x="87" y="724"/>
      <point x="20" y="918"/>
      <point x="20" y="1032" type="qcurve" smooth="yes"/>
      <point x="20" y="1150"/>
      <point x="102" y="1337"/>
      <point x="246" y="1466"/>
      <point x="444" y="1534"/>
    </contour>
    <contour>
      <point x="539" y="1485" type="qcurve" smooth="yes"/>
      <point x="396" y="1485"/>
      <point x="236" y="1269"/>
      <point x="236" y="1053" type="qcurve" smooth="yes"/>
      <point x="236" y="931"/>
      <point x="299" y="750"/>
      <point x="407" y="630"/>
      <point x="550" y="571"/>
      <point x="631" y="571" type="qcurve" smooth="yes"/>
      <point x="708" y="571"/>
      <point x="815" y="619"/>
      <point x="881" y="711"/>
      <point x="911" y="844"/>
      <point x="911" y="930" type="qcurve" smooth="yes"/>
      <point x="911" y="994"/>
      <point x="893" y="1125"/>
      <point x="854" y="1248"/>
      <point x="795" y="1357"/>
      <point x="712" y="1438"/>
      <point x="605" y="1485"/>
    </contour>
  </outline>
</glyph>
<glyph name="semicolon" format="2">
  <advance width="545"/>
  <unicode hex="003B"/>
  <outline>
    <contour>
      <point x="293" y="920" type="qcurve" smooth="yes"/>
      <point x="334" y="920"/>
      <point x="390" y="894"/>
      <point x="425" y="853"/>
      <point x="440" y="801"/>
      <point x="440" y="776" type="qcurve" smooth="yes"/>
      <point x="440" y="748"/>
      <point x="425" y="688"/>
      <point x="390" y="637"/>
      <point x="334" y="604"/>
      <point x="293" y="604" type="qcurve" smooth="yes"/>
      <point x="219" y="604"/>
      <point x="139" y="690"/>
      <point x="139" y="762" type="qcurve" smooth="yes"/>
      <point x="139" y="787"/>
      <point x="154" y="843"/>
      <point x="189" y="889"/>
      <point x="248" y="920"/>
    </contour>
    <contour>
      <point x="260" y="184" type="qcurve" smooth="yes"/>
      <point x="301" y="184"/>
      <point x="362" y="159"/>
      <point x="403" y="116"/>
      <point x="424" y="58"/>
      <point x="424" y="25" type="qcurve" smooth="yes"/>
      <point x="424" y="-26"/>
      <point x="386" y="-130"/>
      <point x="326" y="-226"/>
      <point x="254" y="-310"/>
      <point x="185" y="-372"/>
      <point x="129" y="-408"/>
      <point x="115" y="-408" type="qcurve" smooth="yes"/>
      <point x="102" y="-408"/>
      <point x="102" y="-395" type="qcurve" smooth="yes"/>
      <point x="102" y="-386"/>
      <point x="111" y="-375" type="qcurve" smooth="yes"/>
      <point x="120" y="-362"/>
      <point x="163" y="-319"/>
      <point x="206" y="-265"/>
      <point x="240" y="-204"/>
      <point x="240" y="-172" type="qcurve" smooth="yes"/>
      <point x="240" y="-141"/>
      <point x="201" y="-100"/>
      <point x="154" y="-59"/>
      <point x="115" y="-4"/>
      <point x="115" y="41" type="qcurve" smooth="yes"/>
      <point x="115" y="69"/>
      <point x="136" y="121"/>
      <point x="173" y="161"/>
      <point x="227" y="184"/>
    </contour>
  </outline>
</glyph>
<glyph name="less" format="2">
  <advance width="1071"/>
  <unicode hex="003C"/>
  <outline>
    <contour>
      <point x="909" y="1104" type="qcurve" smooth="yes"/>
      <point x="930" y="1104"/>
      <point x="930" y="1085" type="qcurve" smooth="yes"/>
      <point x="930" y="1071"/>
      <point x="889" y="1025"/>
      <point x="826" y="971"/>
      <point x="748" y="915"/>
      <point x="673" y="864"/>
      <point x="612" y="823"/>
      <point x="596" y="813" type="qcurve" smooth="yes"/>
      <point x="510" y="758"/>
      <point x="391" y="685"/>
      <point x="316" y="639"/>
      <point x="283" y="614"/>
      <point x="283" y="606" type="qcurve" smooth="yes"/>
      <point x="283" y="596"/>
      <point x="337" y="557"/>
      <point x="428" y="505"/>
      <point x="547" y="443"/>
      <point x="612" y="410" type="qcurve" smooth="yes"/>
      <point x="636" y="397"/>
      <point x="708" y="360"/>
      <point x="787" y="317"/>
      <point x="866" y="271"/>
      <point x="930" y="229"/>
      <point x="969" y="193"/>
      <point x="969" y="182" type="qcurve" smooth="yes"/>
      <point x="969" y="171"/>
      <point x="956" y="158"/>
      <point x="940" y="158" type="qcurve" smooth="yes"/>
      <point x="916" y="158"/>
      <point x="833" y="188"/>
      <point x="729" y="238"/>
      <point x="609" y="302"/>
      <point x="487" y="370"/>
      <point x="367" y="436"/>
      <point x="315" y="463" type="qcurve" smooth="yes"/>
      <point x="276" y="483"/>
      <point x="200" y="521"/>
      <point x="139" y="554"/>
      <point x="102" y="579"/>
      <point x="102" y="586" type="qcurve" smooth="yes"/>
      <point x="102" y="595"/>
      <point x="133" y="620"/>
      <point x="174" y="645" type="qcurve" smooth="yes"/>
      <point x="195" y="657"/>
      <point x="279" y="707"/>
      <point x="381" y="768"/>
      <point x="490" y="833"/>
      <point x="535" y="862" type="qcurve" smooth="yes"/>
      <point x="623" y="917"/>
      <point x="747" y="1007"/>
      <point x="832" y="1070"/>
      <point x="888" y="1104"/>
    </contour>
  </outline>
</glyph>
<glyph name="greater" format="2">
  <advance width="1092"/>
  <unicode hex="003E"/>
  <outline>
    <contour>
      <point x="117" y="1133" type="qcurve" smooth="yes"/>
      <point x="127" y="1133"/>
      <point x="164" y="1118"/>
      <point x="209" y="1095"/>
      <point x="258" y="1068"/>
      <point x="300" y="1043"/>
      <point x="332" y="1023"/>
      <point x="338" y="1020" type="qcurve" smooth="yes"/>
      <point x="362" y="1006"/>
      <point x="428" y="966"/>
      <point x="501" y="922"/>
      <point x="577" y="875"/>
      <point x="647" y="833"/>
      <point x="707" y="797"/>
      <point x="727" y="786" type="qcurve" smooth="yes"/>
      <point x="793" y="748"/>
      <point x="883" y="695"/>
      <point x="939" y="657"/>
      <point x="963" y="631"/>
      <point x="963" y="621" type="qcurve" smooth="yes"/>
      <point x="963" y="605"/>
      <point x="925" y="560"/>
      <point x="868" y="510"/>
      <point x="800" y="460"/>
      <point x="770" y="438" type="qcurve" smooth="yes"/>
      <point x="761" y="432"/>
      <point x="714" y="399"/>
      <point x="652" y="356"/>
      <point x="579" y="307"/>
      <point x="509" y="259"/>
      <point x="447" y="217"/>
      <point x="426" y="203" type="qcurve" smooth="yes"/>
      <point x="369" y="166"/>
      <point x="285" y="115"/>
      <point x="266" y="115" type="qcurve" smooth="yes"/>
      <point x="246" y="115"/>
      <point x="246" y="135" type="qcurve" smooth="yes"/>
      <point x="246" y="146"/>
      <point x="263" y="169"/>
      <point x="289" y="190" type="qcurve" smooth="yes"/>
      <point x="299" y="199"/>
      <point x="350" y="237"/>
      <point x="417" y="284"/>
      <point x="491" y="338"/>
      <point x="560" y="385"/>
      <point x="614" y="423"/>
      <point x="627" y="432" type="qcurve" smooth="yes"/>
      <point x="671" y="463"/>
      <point x="746" y="520"/>
      <point x="800" y="568"/>
      <point x="831" y="602"/>
      <point x="831" y="610" type="qcurve" smooth="yes"/>
      <point x="831" y="616"/>
      <point x="811" y="634"/>
      <point x="780" y="656"/>
      <point x="744" y="678"/>
      <point x="729" y="688" type="qcurve" smooth="yes"/>
      <point x="710" y="700"/>
      <point x="645" y="741"/>
      <point x="566" y="791"/>
      <point x="480" y="845"/>
      <point x="403" y="894"/>
      <point x="340" y="935"/>
      <point x="324" y="946" type="qcurve" smooth="yes"/>
      <point x="299" y="963"/>
      <point x="224" y="1012"/>
      <point x="153" y="1063"/>
      <point x="102" y="1108"/>
      <point x="102" y="1120" type="qcurve" smooth="yes"/>
      <point x="102" y="1126"/>
      <point x="111" y="1133"/>
    </contour>
  </outline>
</glyph>
<glyph name="at" format="2">
  <advance width="1841"/>
  <unicode hex="0040"/>
  <outline>
    <contour>
      <point x="788" y="-539" type="qcurve" smooth="yes"/>
      <point x="909" y="-539"/>
      <point x="1040" y="-467"/>
      <point x="1040" y="-412" type="qcurve" smooth="yes"/>
      <point x="1040" y="-392"/>
      <point x="1020" y="-362"/>
      <point x="991" y="-337"/>
      <point x="956" y="-313"/>
      <point x="927" y="-283"/>
      <point x="907" y="-243"/>
      <point x="907" y="-215" type="qcurve" smooth="yes"/>
      <point x="907" y="-193"/>
      <point x="924" y="-148"/>
      <point x="959" y="-112"/>
      <point x="1011" y="-90"/>
      <point x="1047" y="-90" type="qcurve" smooth="yes"/>
      <point x="1081" y="-90"/>
      <point x="1139" y="-116"/>
      <point x="1183" y="-164"/>
      <point x="1208" y="-233"/>
      <point x="1208" y="-276" type="qcurve" smooth="yes"/>
      <point x="1208" y="-305"/>
      <point x="1194" y="-376"/>
      <point x="1157" y="-448"/>
      <point x="1096" y="-516"/>
      <point x="1001" y="-568"/>
      <point x="870" y="-600"/>
      <point x="782" y="-600" type="qcurve" smooth="yes"/>
      <point x="645" y="-599"/>
      <point x="399" y="-467"/>
      <point x="212" y="-217"/>
      <point x="102" y="144"/>
      <point x="102" y="375" type="qcurve" smooth="yes"/>
      <point x="102" y="532"/>
      <point x="164" y="812"/>
      <point x="280" y="1048"/>
      <point x="445" y="1236"/>
      <point x="650" y="1368"/>
      <point x="892" y="1438"/>
      <point x="1026" y="1438" type="qcurve" smooth="yes"/>
      <point x="1216" y="1438"/>
      <point x="1493" y="1317"/>
      <point x="1671" y="1103"/>
      <point x="1757" y="807"/>
      <point x="1757" y="633" type="qcurve" smooth="yes"/>
      <point x="1757" y="463"/>
      <point x="1699" y="206"/>
      <point x="1601" y="33"/>
      <point x="1474" y="-55"/>
      <point x="1405" y="-55" type="qcurve" smooth="yes"/>
      <point x="1341" y="-55"/>
      <point x="1246" y="-3"/>
      <point x="1180" y="79"/>
      <point x="1141" y="183"/>
      <point x="1133" y="236" type="qcurve"/>
      <point x="1130" y="219"/>
      <point x="1117" y="154"/>
      <point x="1087" y="78"/>
      <point x="1039" y="-1"/>
      <point x="963" y="-65"/>
      <point x="858" y="-106"/>
      <point x="786" y="-106" type="qcurve" smooth="yes"/>
      <point x="718" y="-106"/>
      <point x="578" y="-57"/>
      <point x="462" y="54"/>
      <point x="387" y="232"/>
      <point x="383" y="360" type="qcurve"/>
      <point x="385" y="470"/>
      <point x="430" y="641"/>
      <point x="502" y="769"/>
      <point x="594" y="858"/>
      <point x="695" y="913"/>
      <point x="798" y="938"/>
      <point x="844" y="938" type="qcurve" smooth="yes"/>
      <point x="905" y="938"/>
      <point x="995" y="912"/>
      <point x="1059" y="876"/>
      <point x="1100" y="839"/>
      <point x="1112" y="827" type="qcurve"/>
      <point x="1112" y="865"/>
      <point x="1110" y="917"/>
      <point x="1110" y="948" type="qcurve" smooth="yes"/>
      <point x="1110" y="970"/>
      <point x="1127" y="989"/>
      <point x="1155" y="995"/>
      <point x="1194" y="993"/>
      <point x="1217" y="995" type="qcurve" smooth="yes"/>
      <point x="1249" y="997"/>
      <point x="1299" y="1004"/>
      <point x="1313" y="1004" type="qcurve" smooth="yes"/>
      <point x="1327" y="1004"/>
      <point x="1333" y="982"/>
      <point x="1333" y="961" type="qcurve" smooth="yes"/>
      <point x="1333" y="939"/>
      <point x="1328" y="854"/>
      <point x="1321" y="746"/>
      <point x="1312" y="626"/>
      <point x="1305" y="511"/>
      <point x="1300" y="413"/>
      <point x="1300" y="381" type="qcurve" smooth="yes"/>
      <point x="1300" y="311"/>
      <point x="1312" y="193"/>
      <point x="1344" y="106"/>
      <point x="1397" y="57"/>
      <point x="1438" y="57" type="qcurve" smooth="yes"/>
      <point x="1482" y="57"/>
      <point x="1571" y="128"/>
      <point x="1643" y="271"/>
      <point x="1688" y="484"/>
      <point x="1688" y="625" type="qcurve" smooth="yes"/>
      <point x="1688" y="822"/>
      <point x="1586" y="1106"/>
      <point x="1406" y="1289"/>
      <point x="1162" y="1376"/>
      <point x="1020" y="1376" type="qcurve" smooth="yes"/>
      <point x="901" y="1376"/>
      <point x="683" y="1312"/>
      <point x="495" y="1192"/>
      <point x="341" y="1018"/>
      <point x="232" y="796"/>
      <point x="172" y="530"/>
      <point x="172" y="379" type="qcurve" smooth="yes"/>
      <point x="172" y="201"/>
      <point x="235" y="-74"/>
      <point x="337" y="-278"/>
      <point x="468" y="-417"/>
      <point x="605" y="-502"/>
      <point x="736" y="-539"/>
    </contour>
    <contour>
      <point x="862" y="885" type="qcurve" smooth="yes"/>
      <point x="805" y="885"/>
      <point x="710" y="832"/>
      <point x="642" y="731"/>
      <point x="604" y="586"/>
      <point x="604" y="494" type="qcurve" smooth="yes"/>
      <point x="604" y="404"/>
      <point x="637" y="243"/>
      <point x="702" y="122"/>
      <point x="799" y="51"/>
      <point x="864" y="51" type="qcurve" smooth="yes"/>
      <point x="930" y="51"/>
      <point x="1024" y="125"/>
      <point x="1084" y="248"/>
      <point x="1112" y="409"/>
      <point x="1112" y="496" type="qcurve" smooth="yes"/>
      <point x="1112" y="570"/>
      <point x="1083" y="710"/>
      <point x="1023" y="819"/>
      <point x="928" y="885"/>
    </contour>
  </outline>
</glyph>
<glyph name="A" format="2">
  <advance width="1606"/>
  <unicode hex="0041"/>
  <outline>
    <contour>
      <point x="852" y="1679" type="qcurve" smooth="yes"/>
      <point x="859" y="1679"/>
      <point x="877" y="1645"/>
      <point x="894" y="1600"/>
      <point x="909" y="1555"/>
      <point x="913" y="1544" type="qcurve" smooth="yes"/>
      <point x="935" y="1479"/>
      <point x="989" y="1315"/>
      <point x="1050" y="1129"/>
      <point x="1117" y="928"/>
      <point x="1184" y="727"/>
      <point x="1250" y="531"/>
      <point x="1310" y="354"/>
      <point x="1363" y="205"/>
      <point x="1384" y="150" type="qcurve" smooth="yes"/>
      <point x="1408" y="85"/>
      <point x="1454" y="7"/>
      <point x="1506" y="-39"/>
      <point x="1569" y="-61"/>
      <point x="1610" y="-70" type="qcurve" smooth="yes"/>
      <point x="1640" y="-76"/>
      <point x="1640" y="-92" type="qcurve" smooth="yes"/>
      <point x="1640" y="-103"/>
      <point x="1618" y="-111"/>
      <point x="1604" y="-111" type="qcurve" smooth="yes"/>
      <point x="1582" y="-111"/>
      <point x="1514" y="-109"/>
      <point x="1470" y="-109" type="qcurve" smooth="yes"/>
      <point x="1435" y="-109"/>
      <point x="1354" y="-112"/>
      <point x="1311" y="-115" type="qcurve" smooth="yes"/>
      <point x="1244" y="-120"/>
      <point x="1130" y="-143"/>
      <point x="1038" y="-166"/>
      <point x="969" y="-184"/>
      <point x="948" y="-184" type="qcurve" smooth="yes"/>
      <point x="937" y="-184"/>
      <point x="924" y="-173"/>
      <point x="924" y="-164" type="qcurve" smooth="yes"/>
      <point x="924" y="-151"/>
      <point x="938" y="-135"/>
      <point x="958" y="-129" type="qcurve" smooth="yes"/>
      <point x="966" y="-127"/>
      <point x="996" y="-119"/>
      <point x="1032" y="-109"/>
      <point x="1071" y="-96"/>
      <point x="1087" y="-88" type="qcurve" smooth="yes"/>
      <point x="1107" y="-77"/>
      <point x="1139" y="-41"/>
      <point x="1139" y="-4" type="qcurve" smooth="yes"/>
      <point x="1139" y="4"/>
      <point x="1136" y="32"/>
      <point x="1133" y="43" type="qcurve" smooth="yes"/>
      <point x="1115" y="113"/>
      <point x="1077" y="257"/>
      <point x="1039" y="387"/>
      <point x="1005" y="497"/>
      <point x="991" y="532" type="qcurve" smooth="yes"/>
      <point x="968" y="590"/>
      <point x="908" y="651"/>
      <point x="872" y="668" type="qcurve" smooth="yes"/>
      <point x="862" y="672"/>
      <point x="816" y="690"/>
      <point x="753" y="711"/>
      <point x="681" y="735"/>
      <point x="611" y="758"/>
      <point x="550" y="777"/>
      <point x="530" y="784" type="qcurve"/>
      <point x="506" y="707"/>
      <point x="459" y="556"/>
      <point x="420" y="429"/>
      <point x="391" y="333"/>
      <point x="385" y="311" type="qcurve" smooth="yes"/>
      <point x="377" y="285"/>
      <point x="371" y="243"/>
      <point x="371" y="227" type="qcurve" smooth="yes"/>
      <point x="371" y="198"/>
      <point x="388" y="159"/>
      <point x="416" y="132"/>
      <point x="453" y="113"/>
      <point x="473" y="104" type="qcurve" smooth="yes"/>
      <point x="490" y="96"/>
      <point x="516" y="77"/>
      <point x="516" y="63" type="qcurve" smooth="yes"/>
      <point x="516" y="54"/>
      <point x="501" y="41"/>
      <point x="485" y="41" type="qcurve" smooth="yes"/>
      <point x="468" y="41"/>
      <point x="416" y="57"/>
      <point x="353" y="81"/>
      <point x="283" y="108"/>
      <point x="248" y="119" type="qcurve" smooth="yes"/>
      <point x="220" y="127"/>
      <point x="160" y="140"/>
      <point x="104" y="148"/>
      <point x="59" y="153"/>
      <point x="47" y="154" type="qcurve" smooth="yes"/>
      <point x="22" y="156"/>
      <point x="0" y="166"/>
      <point x="0" y="180" type="qcurve" smooth="yes"/>
      <point x="0" y="190"/>
      <point x="13" y="203"/>
      <point x="29" y="203" type="qcurve" smooth="yes"/>
      <point x="35" y="203"/>
      <point x="66" y="201"/>
      <point x="86" y="201" type="qcurve" smooth="yes"/>
      <point x="134" y="201"/>
      <point x="198" y="213"/>
      <point x="242" y="239"/>
      <point x="271" y="278"/>
      <point x="283" y="305" type="qcurve" smooth="yes"/>
      <point x="295" y="331"/>
      <point x="329" y="418"/>
      <point x="368" y="521"/>
      <point x="408" y="632"/>
      <point x="443" y="731"/>
      <point x="469" y="808"/>
      <point x="475" y="827" type="qcurve" smooth="yes"/>
      <point x="483" y="853"/>
      <point x="512" y="944"/>
      <point x="548" y="1056"/>
      <point x="585" y="1177"/>
      <point x="616" y="1288"/>
      <point x="635" y="1379"/>
      <point x="635" y="1405" type="qcurve" smooth="yes"/>
      <point x="635" y="1425"/>
      <point x="613" y="1452"/>
      <point x="588" y="1452" type="qcurve" smooth="yes"/>
      <point x="566" y="1452"/>
      <point x="511" y="1446"/>
      <point x="455" y="1440"/>
      <point x="402" y="1434"/>
      <point x="383" y="1434" type="qcurve" smooth="yes"/>
      <point x="346" y="1434"/>
      <point x="346" y="1460" type="qcurve" smooth="yes"/>
      <point x="346" y="1484"/>
      <point x="381" y="1487" type="qcurve" smooth="yes"/>
      <point x="405" y="1488"/>
      <point x="466" y="1496"/>
      <point x="534" y="1510"/>
      <point x="603" y="1531"/>
      <point x="635" y="1546" type="qcurve" smooth="yes"/>
      <point x="686" y="1569"/>
      <point x="758" y="1617"/>
      <point x="809" y="1655"/>
      <point x="842" y="1679"/>
    </contour>
    <contour>
      <point x="547" y="838" type="line"/>
      <point x="578" y="827"/>
      <point x="675" y="794"/>
      <point x="775" y="763"/>
      <point x="860" y="741"/>
      <point x="879" y="741" type="qcurve" smooth="yes"/>
      <point x="891" y="741"/>
      <point x="909" y="758"/>
      <point x="909" y="776" type="qcurve" smooth="yes"/>
      <point x="909" y="791"/>
      <point x="891" y="870"/>
      <point x="864" y="971"/>
      <point x="832" y="1082"/>
      <point x="804" y="1176"/>
      <point x="785" y="1239"/>
      <point x="784" y="1243" type="qcurve" smooth="yes"/>
      <point x="780" y="1255"/>
      <point x="767" y="1300"/>
      <point x="752" y="1344"/>
      <point x="737" y="1376"/>
      <point x="733" y="1376" type="qcurve" smooth="yes"/>
      <point x="729" y="1376"/>
      <point x="716" y="1354"/>
      <point x="702" y="1323"/>
      <point x="688" y="1287"/>
      <point x="684" y="1272" type="qcurve" smooth="yes"/>
    </contour>
  </outline>
</glyph>
<glyph name="B" format="2">
  <advance width="1403"/>
  <unicode hex="0042"/>
  <outline>
    <contour>
      <point x="836" y="1749" type="qcurve" smooth="yes"/>
      <point x="899" y="1749"/>
      <point x="1030" y="1719"/>
      <point x="1136" y="1645"/>
      <point x="1204" y="1519"/>
      <point x="1204" y="1423" type="qcurve" smooth="yes"/>
      <point x="1204" y="1348"/>
      <point x="1159" y="1228"/>
      <point x="1087" y="1134"/>
      <point x="997" y="1063"/>
      <point x="907" y="1013"/>
      <point x="826" y="980"/>
      <point x="799" y="971" type="qcurve"/>
      <point x="840" y="971"/>
      <point x="957" y="952"/>
      <point x="1086" y="906"/>
      <point x="1212" y="828"/>
      <point x="1313" y="708"/>
      <point x="1376" y="543"/>
      <point x="1376" y="434" type="qcurve" smooth="yes"/>
      <point x="1376" y="338"/>
      <point x="1334" y="186"/>
      <point x="1262" y="68"/>
      <point x="1168" y="-18"/>
      <point x="1064" y="-76"/>
      <point x="957" y="-108"/>
      <point x="909" y="-113" type="qcurve" smooth="yes"/>
      <point x="857" y="-119"/>
      <point x="767" y="-123"/>
      <point x="729" y="-123" type="qcurve" smooth="yes"/>
      <point x="667" y="-123"/>
      <point x="565" y="-117"/>
      <point x="514" y="-117" type="qcurve" smooth="yes"/>
      <point x="448" y="-117"/>
      <point x="332" y="-144"/>
      <point x="234" y="-184"/>
      <point x="153" y="-232"/>
      <point x="88" y="-272"/>
      <point x="41" y="-299"/>
      <point x="25" y="-299" type="qcurve" smooth="yes"/>
      <point x="2" y="-299"/>
      <point x="2" y="-274" type="qcurve" smooth="yes"/>
      <point x="2" y="-255"/>
      <point x="43" y="-217"/>
      <point x="107" y="-175"/>
      <point x="184" y="-129"/>
      <point x="219" y="-102" type="qcurve" smooth="yes"/>
      <point x="241" y="-85"/>
      <point x="278" y="-45"/>
      <point x="307" y="6"/>
      <point x="326" y="73"/>
      <point x="332" y="117" type="qcurve" smooth="yes"/>
      <point x="340" y="179"/>
      <point x="346" y="363"/>
      <point x="346" y="477" type="qcurve" smooth="yes"/>
      <point x="346" y="537"/>
      <point x="348" y="705"/>
      <point x="348" y="799" type="qcurve" smooth="yes"/>
      <point x="348" y="896"/>
      <point x="344" y="1098"/>
      <point x="331" y="1281"/>
      <point x="308" y="1431"/>
      <point x="289" y="1475" type="qcurve" smooth="yes"/>
      <point x="272" y="1514"/>
      <point x="225" y="1569"/>
      <point x="166" y="1606"/>
      <point x="99" y="1628"/>
      <point x="63" y="1634" type="qcurve" smooth="yes"/>
      <point x="37" y="1639"/>
      <point x="20" y="1652"/>
      <point x="20" y="1661" type="qcurve" smooth="yes"/>
      <point x="20" y="1670"/>
      <point x="35" y="1677"/>
      <point x="47" y="1677" type="qcurve" smooth="yes"/>
      <point x="65" y="1677"/>
      <point x="105" y="1672"/>
      <point x="158" y="1666"/>
      <point x="224" y="1661"/>
      <point x="268" y="1661" type="qcurve" smooth="yes"/>
      <point x="359" y="1661"/>
      <point x="500" y="1688"/>
      <point x="627" y="1721"/>
      <point x="756" y="1749"/>
    </contour>
    <contour>
      <point x="494" y="1638" type="qcurve"/>
      <point x="497" y="1593"/>
      <point x="503" y="1487"/>
      <point x="511" y="1374"/>
      <point x="518" y="1259"/>
      <point x="522" y="1206" type="qcurve" smooth="yes"/>
      <point x="530" y="1081"/>
      <point x="539" y="952" type="qcurve"/>
      <point x="655" y="960"/>
      <point x="747" y="1002" type="qcurve" smooth="yes"/>
      <point x="786" y="1020"/>
      <point x="861" y="1074"/>
      <point x="920" y="1152"/>
      <point x="956" y="1257"/>
      <point x="956" y="1325" type="qcurve" smooth="yes"/>
      <point x="956" y="1423"/>
      <point x="908" y="1553"/>
      <point x="828" y="1631"/>
      <point x="722" y="1663"/>
      <point x="664" y="1663" type="qcurve" smooth="yes"/>
      <point x="616" y="1663"/>
      <point x="529" y="1649"/>
    </contour>
    <contour>
      <point x="543" y="879" type="qcurve"/>
      <point x="546" y="823"/>
      <point x="555" y="683"/>
      <point x="565" y="537"/>
      <point x="576" y="392"/>
      <point x="585" y="268"/>
      <point x="593" y="173"/>
      <point x="596" y="150" type="qcurve" smooth="yes"/>
      <point x="601" y="100"/>
      <point x="628" y="16"/>
      <point x="676" y="-44"/>
      <point x="748" y="-78"/>
      <point x="799" y="-78" type="qcurve" smooth="yes"/>
      <point x="869" y="-78"/>
      <point x="988" y="-21"/>
      <point x="1075" y="99"/>
      <point x="1124" y="282"/>
      <point x="1124" y="408" type="qcurve" smooth="yes"/>
      <point x="1124" y="530"/>
      <point x="1063" y="717"/>
      <point x="955" y="844"/>
      <point x="808" y="909"/>
      <point x="721" y="909" type="qcurve" smooth="yes"/>
      <point x="667" y="909"/>
      <point x="569" y="891"/>
    </contour>
  </outline>
</glyph>
<glyph name="D" format="2">
  <advance width="1487"/>
  <unicode hex="0044"/>
  <outline>
    <contour>
      <point x="883" y="1368" type="qcurve" smooth="yes"/>
      <point x="987" y="1368"/>
      <point x="1153" y="1320"/>
      <point x="1281" y="1236"/>
      <point x="1371" y="1121"/>
      <point x="1429" y="986"/>
      <point x="1456" y="836"/>
      <point x="1456" y="760" type="qcurve" smooth="yes"/>
      <point x="1456" y="665"/>
      <point x="1418" y="483"/>
      <point x="1334" y="324"/>
      <point x="1199" y="196"/>
      <point x="1102" y="154" type="qcurve" smooth="yes"/>
      <point x="1048" y="130"/>
      <point x="946" y="98"/>
      <point x="845" y="73"/>
      <point x="741" y="49"/>
      <point x="630" y="18"/>
      <point x="510" y="-26"/>
      <point x="442" y="-59" type="qcurve" smooth="yes"/>
      <point x="334" y="-112"/>
      <point x="190" y="-213"/>
      <point x="95" y="-293"/>
      <point x="39" y="-342"/>
      <point x="20" y="-342" type="qcurve" smooth="yes"/>
      <point x="0" y="-342"/>
      <point x="0" y="-322" type="qcurve" smooth="yes"/>
      <point x="0" y="-309"/>
      <point x="33" y="-278"/>
      <point x="87" y="-233"/>
      <point x="153" y="-169"/>
      <point x="186" y="-123" type="qcurve" smooth="yes"/>
      <point x="230" y="-63"/>
      <point x="288" y="85"/>
      <point x="297" y="170" type="qcurve" smooth="yes"/>
      <point x="299" y="192"/>
      <point x="304" y="265"/>
      <point x="307" y="358"/>
      <point x="309" y="467"/>
      <point x="309" y="526" type="qcurve" smooth="yes"/>
      <point x="309" y="618"/>
      <point x="303" y="811"/>
      <point x="290" y="983"/>
      <point x="268" y="1120"/>
      <point x="252" y="1157" type="qcurve" smooth="yes"/>
      <point x="238" y="1189"/>
      <point x="197" y="1231"/>
      <point x="154" y="1259"/>
      <point x="111" y="1276"/>
      <point x="76" y="1289"/>
      <point x="55" y="1302"/>
      <point x="55" y="1311" type="qcurve" smooth="yes"/>
      <point x="55" y="1327"/>
      <point x="82" y="1327" type="qcurve" smooth="yes"/>
      <point x="100" y="1327"/>
      <point x="143" y="1322"/>
      <point x="199" y="1316"/>
      <point x="269" y="1311"/>
      <point x="315" y="1311" type="qcurve" smooth="yes"/>
      <point x="389" y="1311"/>
      <point x="539" y="1329"/>
      <point x="684" y="1350"/>
      <point x="821" y="1368"/>
    </contour>
    <contour>
      <point x="737" y="1300" type="qcurve" smooth="yes"/>
      <point x="632" y="1300"/>
      <point x="510" y="1254"/>
      <point x="498" y="1217" type="qcurve" smooth="yes"/>
      <point x="490" y="1192"/>
      <point x="481" y="1092"/>
      <point x="481" y="1026" type="qcurve" smooth="yes"/>
      <point x="481" y="951"/>
      <point x="488" y="774"/>
      <point x="499" y="605"/>
      <point x="512" y="458"/>
      <point x="518" y="412" type="qcurve" smooth="yes"/>
      <point x="524" y="365"/>
      <point x="541" y="293"/>
      <point x="560" y="237"/>
      <point x="584" y="195"/>
      <point x="598" y="178" type="qcurve" smooth="yes"/>
      <point x="613" y="160"/>
      <point x="655" y="134"/>
      <point x="702" y="118"/>
      <point x="751" y="111"/>
      <point x="774" y="111" type="qcurve" smooth="yes"/>
      <point x="851" y="111"/>
      <point x="970" y="168"/>
      <point x="1059" y="263"/>
      <point x="1121" y="388"/>
      <point x="1159" y="526"/>
      <point x="1176" y="667"/>
      <point x="1176" y="731" type="qcurve" smooth="yes"/>
      <point x="1176" y="840"/>
      <point x="1135" y="1009"/>
      <point x="1067" y="1136"/>
      <point x="978" y="1222"/>
      <point x="880" y="1276"/>
      <point x="781" y="1300"/>
    </contour>
  </outline>
</glyph>
<glyph name="F" format="2">
  <advance width="1092"/>
  <unicode hex="0046"/>
  <outline>
    <contour>
      <point x="1079" y="1724" type="qcurve" smooth="yes"/>
      <point x="1102" y="1724"/>
      <point x="1133" y="1697"/>
      <point x="1133" y="1659" type="qcurve" smooth="yes"/>
      <point x="1133" y="1632"/>
      <point x="1119" y="1545"/>
      <point x="1101" y="1457"/>
      <point x="1084" y="1384"/>
      <point x="1081" y="1370" type="qcurve" smooth="yes"/>
      <point x="1079" y="1361"/>
      <point x="1068" y="1317"/>
      <point x="1051" y="1263"/>
      <point x="1032" y="1205"/>
      <point x="1012" y="1157"/>
      <point x="993" y="1126"/>
      <point x="985" y="1126" type="qcurve" smooth="yes"/>
      <point x="980" y="1126"/>
      <point x="973" y="1136"/>
      <point x="973" y="1153" type="qcurve" smooth="yes"/>
      <point x="973" y="1170"/>
      <point x="979" y="1231"/>
      <point x="985" y="1306"/>
      <point x="991" y="1387"/>
      <point x="991" y="1423" type="qcurve" smooth="yes"/>
      <point x="991" y="1478"/>
      <point x="968" y="1541"/>
      <point x="925" y="1574"/>
      <point x="864" y="1583"/>
      <point x="827" y="1583" type="qcurve" smooth="yes"/>
      <point x="778" y="1583"/>
      <point x="659" y="1570"/>
      <point x="606" y="1556" type="qcurve" smooth="yes"/>
      <point x="562" y="1545"/>
      <point x="535" y="1491"/>
      <point x="535" y="1448" type="qcurve" smooth="yes"/>
      <point x="535" y="1441"/>
      <point x="537" y="1343"/>
      <point x="541" y="1189"/>
      <point x="546" y="990"/>
      <point x="549" y="883" type="qcurve"/>
      <point x="577" y="885"/>
      <point x="635" y="892"/>
      <point x="655" y="901" type="qcurve" smooth="yes"/>
      <point x="676" y="910"/>
      <point x="705" y="939"/>
      <point x="723" y="972"/>
      <point x="734" y="1006"/>
      <point x="737" y="1020" type="qcurve" smooth="yes"/>
      <point x="753" y="1084"/>
      <point x="771" y="1137"/>
      <point x="786" y="1137" type="qcurve" smooth="yes"/>
      <point x="805" y="1137"/>
      <point x="805" y="1100" type="qcurve" smooth="yes"/>
      <point x="805" y="1082"/>
      <point x="797" y="1032"/>
      <point x="786" y="969"/>
      <point x="778" y="893"/>
      <point x="778" y="850" type="qcurve" smooth="yes"/>
      <point x="778" y="811"/>
      <point x="781" y="729"/>
      <point x="785" y="659"/>
      <point x="788" y="604"/>
      <point x="788" y="592" type="qcurve" smooth="yes"/>
      <point x="788" y="558"/>
      <point x="775" y="524"/>
      <point x="764" y="524" type="qcurve" smooth="yes"/>
      <point x="752" y="524"/>
      <point x="736" y="561"/>
      <point x="735" y="614" type="qcurve" smooth="yes"/>
      <point x="734" y="653"/>
      <point x="727" y="718"/>
      <point x="708" y="767"/>
      <point x="674" y="800"/>
      <point x="647" y="809" type="qcurve" smooth="yes"/>
      <point x="630" y="814"/>
      <point x="577" y="817"/>
      <point x="551" y="817" type="qcurve"/>
      <point x="554" y="710"/>
      <point x="561" y="498"/>
      <point x="567" y="317"/>
      <point x="573" y="181"/>
      <point x="575" y="150" type="qcurve" smooth="yes"/>
      <point x="578" y="102"/>
      <point x="596" y="43"/>
      <point x="626" y="7"/>
      <point x="666" y="-11"/>
      <point x="692" y="-18" type="qcurve" smooth="yes"/>
      <point x="701" y="-21"/>
      <point x="723" y="-25"/>
      <point x="744" y="-33"/>
      <point x="758" y="-44"/>
      <point x="758" y="-53" type="qcurve" smooth="yes"/>
      <point x="758" y="-62"/>
      <point x="747" y="-72"/>
      <point x="730" y="-77"/>
      <point x="711" y="-78"/>
      <point x="702" y="-78" type="qcurve" smooth="yes"/>
      <point x="687" y="-78"/>
      <point x="633" y="-71"/>
      <point x="563" y="-64"/>
      <point x="483" y="-57"/>
      <point x="442" y="-57" type="qcurve" smooth="yes"/>
      <point x="405" y="-57"/>
      <point x="337" y="-62"/>
      <point x="265" y="-69"/>
      <point x="187" y="-74"/>
      <point x="141" y="-74" type="qcurve" smooth="yes"/>
      <point x="113" y="-74"/>
      <point x="79" y="-68"/>
      <point x="61" y="-59"/>
      <point x="55" y="-47"/>
      <point x="55" y="-41" type="qcurve" smooth="yes"/>
      <point x="55" y="-18"/>
      <point x="92" y="-12" type="qcurve" smooth="yes"/>
      <point x="101" y="-11"/>
      <point x="141" y="-8"/>
      <point x="190" y="-4"/>
      <point x="242" y="3"/>
      <point x="262" y="8" type="qcurve" smooth="yes"/>
      <point x="283" y="14"/>
      <point x="325" y="35"/>
      <point x="357" y="72"/>
      <point x="377" y="133"/>
      <point x="377" y="180" type="qcurve" smooth="yes"/>
      <point x="377" y="260"/>
      <point x="364" y="468"/>
      <point x="343" y="693"/>
      <point x="316" y="920"/>
      <point x="287" y="1123"/>
      <point x="259" y="1284"/>
      <point x="248" y="1331" type="qcurve" smooth="yes"/>
      <point x="239" y="1369"/>
      <point x="205" y="1416"/>
      <point x="162" y="1443"/>
      <point x="111" y="1456"/>
      <point x="84" y="1460" type="qcurve" smooth="yes"/>
      <point x="55" y="1465"/>
      <point x="20" y="1481"/>
      <point x="20" y="1499" type="qcurve" smooth="yes"/>
      <point x="20" y="1516"/>
      <point x="47" y="1528"/>
      <point x="66" y="1528" type="qcurve" smooth="yes"/>
      <point x="151" y="1528"/>
      <point x="407" y="1552"/>
      <point x="569" y="1589" type="qcurve" smooth="yes"/>
      <point x="694" y="1617"/>
      <point x="863" y="1667"/>
      <point x="977" y="1703"/>
      <point x="1050" y="1724"/>
    </contour>
  </outline>
</glyph>
<glyph name="I" format="2">
  <advance width="899"/>
  <unicode hex="0049"/>
  <outline>
    <contour>
      <point x="918" y="1733" type="qcurve" smooth="yes"/>
      <point x="952" y="1733"/>
      <point x="991" y="1726"/>
      <point x="1012" y="1716"/>
      <point x="1018" y="1703"/>
      <point x="1018" y="1696" type="qcurve" smooth="yes"/>
      <point x="1018" y="1679"/>
      <point x="975" y="1659"/>
      <point x="926" y="1659" type="qcurve" smooth="yes"/>
      <point x="876" y="1659"/>
      <point x="790" y="1653"/>
      <point x="752" y="1642" type="qcurve" smooth="yes"/>
      <point x="718" y="1633"/>
      <point x="662" y="1598"/>
      <point x="617" y="1540"/>
      <point x="583" y="1456"/>
      <point x="571" y="1397" type="qcurve" smooth="yes"/>
      <point x="558" y="1333"/>
      <point x="531" y="1131"/>
      <point x="504" y="886"/>
      <point x="480" y="614"/>
      <point x="462" y="346"/>
      <point x="451" y="98"/>
      <point x="451" y="0" type="qcurve" smooth="yes"/>
      <point x="451" y="-56"/>
      <point x="470" y="-121"/>
      <point x="499" y="-155"/>
      <point x="531" y="-167"/>
      <point x="543" y="-170" type="qcurve" smooth="yes"/>
      <point x="571" y="-178"/>
      <point x="643" y="-180"/>
      <point x="668" y="-180" type="qcurve" smooth="yes"/>
      <point x="717" y="-180"/>
      <point x="717" y="-207" type="qcurve" smooth="yes"/>
      <point x="717" y="-219"/>
      <point x="694" y="-240"/>
      <point x="655" y="-240" type="qcurve" smooth="yes"/>
      <point x="635" y="-240"/>
      <point x="584" y="-238"/>
      <point x="553" y="-238" type="qcurve" smooth="yes"/>
      <point x="510" y="-238"/>
      <point x="402" y="-245"/>
      <point x="336" y="-254" type="qcurve" smooth="yes"/>
      <point x="271" y="-263"/>
      <point x="145" y="-303"/>
      <point x="35" y="-343"/>
      <point x="-51" y="-373"/>
      <point x="-76" y="-373" type="qcurve" smooth="yes"/>
      <point x="-102" y="-373"/>
      <point x="-102" y="-350" type="qcurve" smooth="yes"/>
      <point x="-102" y="-333"/>
      <point x="-78" y="-324" type="qcurve" smooth="yes"/>
      <point x="-70" y="-321"/>
      <point x="-4" y="-298"/>
      <point x="78" y="-268"/>
      <point x="156" y="-237"/>
      <point x="176" y="-225" type="qcurve" smooth="yes"/>
      <point x="206" y="-208"/>
      <point x="245" y="-166"/>
      <point x="269" y="-115"/>
      <point x="280" y="-55"/>
      <point x="283" y="-20" type="qcurve" smooth="yes"/>
      <point x="285" y="20"/>
      <point x="289" y="168"/>
      <point x="292" y="360"/>
      <point x="293" y="584"/>
      <point x="293" y="700" type="qcurve" smooth="yes"/>
      <point x="293" y="794"/>
      <point x="292" y="979"/>
      <point x="291" y="1146"/>
      <point x="288" y="1286"/>
      <point x="287" y="1337" type="qcurve" smooth="yes"/>
      <point x="285" y="1412"/>
      <point x="268" y="1507"/>
      <point x="242" y="1566"/>
      <point x="209" y="1598"/>
      <point x="190" y="1610" type="qcurve" smooth="yes"/>
      <point x="160" y="1630"/>
      <point x="59" y="1649"/>
      <point x="8" y="1649" type="qcurve" smooth="yes"/>
      <point x="-15" y="1649"/>
      <point x="-35" y="1666"/>
      <point x="-35" y="1677" type="qcurve" smooth="yes"/>
      <point x="-35" y="1683"/>
      <point x="-31" y="1694"/>
      <point x="-19" y="1704"/>
      <point x="6" y="1710"/>
      <point x="27" y="1710" type="qcurve" smooth="yes"/>
      <point x="54" y="1710"/>
      <point x="141" y="1704"/>
      <point x="245" y="1698"/>
      <point x="361" y="1692"/>
      <point x="418" y="1692" type="qcurve" smooth="yes"/>
      <point x="479" y="1692"/>
      <point x="609" y="1705"/>
      <point x="739" y="1720"/>
      <point x="863" y="1733"/>
    </contour>
  </outline>
</glyph>
<glyph name="J" format="2">
  <advance width="1288"/>
  <unicode hex="004A"/>
  <outline>
    <contour>
      <point x="1364" y="1878" type="qcurve" smooth="yes"/>
      <point x="1378" y="1878"/>
      <point x="1391" y="1868"/>
      <point x="1391" y="1860" type="qcurve" smooth="yes"/>
      <point x="1391" y="1846"/>
      <point x="1362" y="1828"/>
      <point x="1337" y="1819" type="qcurve" smooth="yes"/>
      <point x="1314" y="1809"/>
      <point x="1231" y="1783"/>
      <point x="1180" y="1755" type="qcurve" smooth="yes"/>
      <point x="1157" y="1742"/>
      <point x="1114" y="1708"/>
      <point x="1079" y="1657"/>
      <point x="1054" y="1585"/>
      <point x="1049" y="1534" type="qcurve" smooth="yes"/>
      <point x="1042" y="1481"/>
      <point x="1040" y="1347"/>
      <point x="1040" y="1264" type="qcurve" smooth="yes"/>
      <point x="1040" y="1193"/>
      <point x="1038" y="1022"/>
      <point x="1027" y="813"/>
      <point x="1006" y="562"/>
      <point x="987" y="412" type="qcurve" smooth="yes"/>
      <point x="974" y="309"/>
      <point x="923" y="90"/>
      <point x="845" y="-118"/>
      <point x="737" y="-303"/>
      <point x="596" y="-443"/>
      <point x="420" y="-524"/>
      <point x="313" y="-524" type="qcurve" smooth="yes"/>
      <point x="237" y="-524"/>
      <point x="124" y="-473"/>
      <point x="48" y="-389"/>
      <point x="10" y="-281"/>
      <point x="10" y="-223" type="qcurve" smooth="yes"/>
      <point x="10" y="-146"/>
      <point x="59" y="-41"/>
      <point x="134" y="24"/>
      <point x="225" y="53"/>
      <point x="266" y="53" type="qcurve" smooth="yes"/>
      <point x="360" y="53"/>
      <point x="475" y="-39"/>
      <point x="475" y="-123" type="qcurve" smooth="yes"/>
      <point x="475" y="-200"/>
      <point x="399" y="-285"/>
      <point x="336" y="-285" type="qcurve" smooth="yes"/>
      <point x="298" y="-285"/>
      <point x="235" y="-264"/>
      <point x="203" y="-264" type="qcurve" smooth="yes"/>
      <point x="165" y="-264"/>
      <point x="125" y="-305"/>
      <point x="125" y="-342" type="qcurve" smooth="yes"/>
      <point x="125" y="-375"/>
      <point x="153" y="-428"/>
      <point x="203" y="-465"/>
      <point x="270" y="-485"/>
      <point x="309" y="-485" type="qcurve" smooth="yes"/>
      <point x="411" y="-485"/>
      <point x="566" y="-377"/>
      <point x="680" y="-193"/>
      <point x="756" y="51"/>
      <point x="802" y="321"/>
      <point x="821" y="603"/>
      <point x="821" y="733" type="qcurve" smooth="yes"/>
      <point x="821" y="893"/>
      <point x="807" y="1170"/>
      <point x="781" y="1387"/>
      <point x="745" y="1536"/>
      <point x="723" y="1569" type="qcurve" smooth="yes"/>
      <point x="704" y="1598"/>
      <point x="653" y="1631"/>
      <point x="597" y="1647"/>
      <point x="538" y="1651"/>
      <point x="510" y="1651" type="qcurve" smooth="yes"/>
      <point x="487" y="1651"/>
      <point x="459" y="1662"/>
      <point x="459" y="1679" type="qcurve" smooth="yes"/>
      <point x="459" y="1692"/>
      <point x="479" y="1708"/>
      <point x="502" y="1710" type="qcurve" smooth="yes"/>
      <point x="524" y="1711"/>
      <point x="607" y="1714"/>
      <point x="717" y="1722"/>
      <point x="850" y="1738"/>
      <point x="922" y="1753" type="qcurve" smooth="yes"/>
      <point x="1010" y="1771"/>
      <point x="1151" y="1814"/>
      <point x="1260" y="1852"/>
      <point x="1338" y="1878"/>
    </contour>
  </outline>
</glyph>
<glyph name="K" format="2">
  <advance width="1774"/>
  <unicode hex="004B"/>
  <outline>
    <contour>
      <point x="897" y="1657" type="qcurve" smooth="yes"/>
      <point x="914" y="1657"/>
      <point x="949" y="1641"/>
      <point x="1002" y="1616"/>
      <point x="1080" y="1586"/>
      <point x="1139" y="1573" type="qcurve" smooth="yes"/>
      <point x="1172" y="1566"/>
      <point x="1242" y="1558"/>
      <point x="1310" y="1555"/>
      <point x="1374" y="1554"/>
      <point x="1401" y="1554" type="qcurve" smooth="yes"/>
      <point x="1416" y="1554"/>
      <point x="1444" y="1552"/>
      <point x="1467" y="1546"/>
      <point x="1481" y="1534"/>
      <point x="1481" y="1524" type="qcurve" smooth="yes"/>
      <point x="1481" y="1513"/>
      <point x="1471" y="1500"/>
      <point x="1456" y="1493"/>
      <point x="1438" y="1491"/>
      <point x="1430" y="1491" type="qcurve" smooth="yes"/>
      <point x="1408" y="1491"/>
      <point x="1358" y="1495"/>
      <point x="1329" y="1495" type="qcurve" smooth="yes"/>
      <point x="1238" y="1495"/>
      <point x="1109" y="1434"/>
      <point x="1063" y="1386" type="qcurve" smooth="yes"/>
      <point x="1051" y="1374"/>
      <point x="1004" y="1323"/>
      <point x="949" y="1261"/>
      <point x="891" y="1192"/>
      <point x="843" y="1132"/>
      <point x="813" y="1087"/>
      <point x="813" y="1079" type="qcurve" smooth="yes"/>
      <point x="813" y="1064"/>
      <point x="842" y="977"/>
      <point x="895" y="853"/>
      <point x="973" y="704"/>
      <point x="1071" y="554"/>
      <point x="1187" y="413"/>
      <point x="1320" y="304"/>
      <point x="1466" y="238"/>
      <point x="1544" y="238" type="qcurve" smooth="yes"/>
      <point x="1589" y="238"/>
      <point x="1659" y="266"/>
      <point x="1705" y="315"/>
      <point x="1729" y="383"/>
      <point x="1729" y="422" type="qcurve" smooth="yes"/>
      <point x="1729" y="460"/>
      <point x="1706" y="535"/>
      <point x="1683" y="569" type="qcurve" smooth="yes"/>
      <point x="1666" y="594"/>
      <point x="1637" y="625"/>
      <point x="1615" y="646"/>
      <point x="1602" y="663"/>
      <point x="1602" y="674" type="qcurve" smooth="yes"/>
      <point x="1602" y="682"/>
      <point x="1612" y="698"/>
      <point x="1626" y="698" type="qcurve" smooth="yes"/>
      <point x="1651" y="698"/>
      <point x="1718" y="655"/>
      <point x="1776" y="576"/>
      <point x="1817" y="463"/>
      <point x="1817" y="393" type="qcurve" smooth="yes"/>
      <point x="1817" y="362"/>
      <point x="1805" y="288"/>
      <point x="1774" y="214"/>
      <point x="1721" y="146"/>
      <point x="1641" y="93"/>
      <point x="1531" y="61"/>
      <point x="1458" y="61" type="qcurve" smooth="yes"/>
      <point x="1353" y="61"/>
      <point x="1169" y="132"/>
      <point x="1010" y="249"/>
      <point x="877" y="399"/>
      <point x="823" y="477" type="qcurve" smooth="yes"/>
      <point x="697" y="660"/>
      <point x="608" y="893" type="qcurve"/>
      <point x="498" y="756" type="line"/>
      <point x="499" y="681"/>
      <point x="500" y="518"/>
      <point x="503" y="360"/>
      <point x="510" y="214"/>
      <point x="516" y="154" type="qcurve" smooth="yes"/>
      <point x="522" y="92"/>
      <point x="560" y="11"/>
      <point x="608" y="-40"/>
      <point x="656" y="-67"/>
      <point x="672" y="-74" type="qcurve" smooth="yes"/>
      <point x="706" y="-89"/>
      <point x="745" y="-108"/>
      <point x="745" y="-119" type="qcurve" smooth="yes"/>
      <point x="745" y="-124"/>
      <point x="737" y="-131"/>
      <point x="723" y="-131" type="qcurve" smooth="yes"/>
      <point x="691" y="-131"/>
      <point x="610" y="-105"/>
      <point x="515" y="-73"/>
      <point x="410" y="-47"/>
      <point x="354" y="-47" type="qcurve" smooth="yes"/>
      <point x="314" y="-47"/>
      <point x="254" y="-53"/>
      <point x="225" y="-53" type="qcurve" smooth="yes"/>
      <point x="196" y="-53"/>
      <point x="170" y="-42"/>
      <point x="170" y="-31" type="qcurve" smooth="yes"/>
      <point x="170" y="-21"/>
      <point x="190" y="-11"/>
      <point x="221" y="0"/>
      <point x="258" y="17"/>
      <point x="276" y="35" type="qcurve" smooth="yes"/>
      <point x="299" y="58"/>
      <point x="307" y="135"/>
      <point x="307" y="180" type="qcurve" smooth="yes"/>
      <point x="307" y="215"/>
      <point x="302" y="348"/>
      <point x="293" y="518"/>
      <point x="281" y="715"/>
      <point x="268" y="913"/>
      <point x="256" y="1101"/>
      <point x="245" y="1254"/>
      <point x="237" y="1360"/>
      <point x="236" y="1378" type="qcurve" smooth="yes"/>
      <point x="229" y="1442"/>
      <point x="204" y="1514"/>
      <point x="172" y="1534" type="qcurve" smooth="yes"/>
      <point x="163" y="1540"/>
      <point x="135" y="1548"/>
      <point x="105" y="1554"/>
      <point x="74" y="1556"/>
      <point x="61" y="1556" type="qcurve" smooth="yes"/>
      <point x="55" y="1556"/>
      <point x="40" y="1558"/>
      <point x="27" y="1563"/>
      <point x="18" y="1573"/>
      <point x="18" y="1581" type="qcurve" smooth="yes"/>
      <point x="18" y="1595"/>
      <point x="38" y="1608"/>
      <point x="53" y="1610" type="qcurve" smooth="yes"/>
      <point x="95" y="1614"/>
      <point x="167" y="1615"/>
      <point x="240" y="1617"/>
      <point x="318" y="1621"/>
      <point x="365" y="1628" type="qcurve" smooth="yes"/>
      <point x="438" y="1639"/>
      <point x="534" y="1667"/>
      <point x="597" y="1693"/>
      <point x="636" y="1710"/>
      <point x="653" y="1710" type="qcurve" smooth="yes"/>
      <point x="674" y="1710"/>
      <point x="674" y="1692" type="qcurve" smooth="yes"/>
      <point x="674" y="1681"/>
      <point x="652" y="1666"/>
      <point x="641" y="1661" type="qcurve" smooth="yes"/>
      <point x="626" y="1653"/>
      <point x="589" y="1636"/>
      <point x="567" y="1622" type="qcurve" smooth="yes"/>
      <point x="524" y="1594"/>
      <point x="493" y="1509"/>
      <point x="489" y="1444" type="qcurve" smooth="yes"/>
      <point x="488" y="1435"/>
      <point x="487" y="1409"/>
      <point x="487" y="1381"/>
      <point x="487" y="1353"/>
      <point x="487" y="1341" type="qcurve" smooth="yes"/>
      <point x="487" y="1245"/>
      <point x="496" y="1012"/>
      <point x="498" y="881" type="qcurve" smooth="yes"/>
      <point x="498" y="844" type="line"/>
      <point x="515" y="862"/>
      <point x="579" y="934"/>
      <point x="660" y="1025"/>
      <point x="750" y="1125"/>
      <point x="832" y="1220"/>
      <point x="900" y="1301"/>
      <point x="920" y="1327" type="qcurve" smooth="yes"/>
      <point x="954" y="1372"/>
      <point x="985" y="1439"/>
      <point x="985" y="1466" type="qcurve" smooth="yes"/>
      <point x="985" y="1489"/>
      <point x="968" y="1527"/>
      <point x="958" y="1538" type="qcurve" smooth="yes"/>
      <point x="945" y="1554"/>
      <point x="916" y="1581"/>
      <point x="891" y="1605"/>
      <point x="874" y="1625"/>
      <point x="874" y="1634" type="qcurve" smooth="yes"/>
      <point x="874" y="1644"/>
      <point x="885" y="1657"/>
    </contour>
  </outline>
</glyph>
<glyph name="N" format="2">
  <advance width="1638"/>
  <unicode hex="004E"/>
  <outline>
    <contour>
      <point x="475" y="1468" type="qcurve" smooth="yes"/>
      <point x="496" y="1460"/>
      <point x="567" y="1395"/>
      <point x="658" y="1295"/>
      <point x="769" y="1169"/>
      <point x="831" y="1102" type="qcurve" smooth="yes"/>
      <point x="877" y="1052"/>
      <point x="968" y="949"/>
      <point x="1052" y="853"/>
      <point x="1127" y="769"/>
      <point x="1188" y="706"/>
      <point x="1234" y="670"/>
      <point x="1247" y="670" type="qcurve" smooth="yes"/>
      <point x="1255" y="670"/>
      <point x="1267" y="704"/>
      <point x="1276" y="760"/>
      <point x="1282" y="830"/>
      <point x="1286" y="902"/>
      <point x="1288" y="970"/>
      <point x="1288" y="995" type="qcurve" smooth="yes"/>
      <point x="1288" y="1029"/>
      <point x="1285" y="1113"/>
      <point x="1279" y="1192"/>
      <point x="1268" y="1257"/>
      <point x="1260" y="1274" type="qcurve" smooth="yes"/>
      <point x="1248" y="1298"/>
      <point x="1218" y="1330"/>
      <point x="1174" y="1351"/>
      <point x="1112" y="1363"/>
      <point x="1067" y="1368" type="qcurve" smooth="yes"/>
      <point x="1038" y="1371"/>
      <point x="1016" y="1385"/>
      <point x="1016" y="1399" type="qcurve" smooth="yes"/>
      <point x="1016" y="1413"/>
      <point x="1038" y="1421"/>
      <point x="1051" y="1421" type="qcurve" smooth="yes"/>
      <point x="1061" y="1421"/>
      <point x="1102" y="1418"/>
      <point x="1158" y="1415"/>
      <point x="1223" y="1413"/>
      <point x="1257" y="1413" type="qcurve" smooth="yes"/>
      <point x="1312" y="1413"/>
      <point x="1420" y="1429"/>
      <point x="1514" y="1448"/>
      <point x="1588" y="1464"/>
      <point x="1608" y="1464" type="qcurve" smooth="yes"/>
      <point x="1638" y="1464"/>
      <point x="1638" y="1440" type="qcurve" smooth="yes"/>
      <point x="1638" y="1424"/>
      <point x="1613" y="1410"/>
      <point x="1599" y="1407" type="qcurve" smooth="yes"/>
      <point x="1581" y="1403"/>
      <point x="1551" y="1398"/>
      <point x="1523" y="1392"/>
      <point x="1493" y="1383"/>
      <point x="1475" y="1376" type="qcurve" smooth="yes"/>
      <point x="1460" y="1371"/>
      <point x="1431" y="1351"/>
      <point x="1405" y="1318"/>
      <point x="1384" y="1269"/>
      <point x="1378" y="1235" type="qcurve" smooth="yes"/>
      <point x="1372" y="1199"/>
      <point x="1363" y="1070"/>
      <point x="1355" y="911"/>
      <point x="1350" y="736"/>
      <point x="1345" y="573"/>
      <point x="1342" y="434"/>
      <point x="1341" y="391" type="qcurve" smooth="yes"/>
      <point x="1338" y="232"/>
      <point x="1325" y="80"/>
      <point x="1311" y="80" type="qcurve" smooth="yes"/>
      <point x="1303" y="80"/>
      <point x="1258" y="121"/>
      <point x="1196" y="190"/>
      <point x="1120" y="281"/>
      <point x="1040" y="380"/>
      <point x="960" y="483"/>
      <point x="890" y="574"/>
      <point x="833" y="649"/>
      <point x="817" y="672" type="qcurve" smooth="yes"/>
      <point x="621" y="942"/>
      <point x="412" y="1219"/>
      <point x="387" y="1219" type="qcurve" smooth="yes"/>
      <point x="382" y="1219"/>
      <point x="377" y="1159"/>
      <point x="374" y="1057"/>
      <point x="373" y="921"/>
      <point x="373" y="844" type="qcurve" smooth="yes"/>
      <point x="373" y="745"/>
      <point x="374" y="534"/>
      <point x="374" y="346"/>
      <point x="375" y="201"/>
      <point x="375" y="168" type="qcurve" smooth="yes"/>
      <point x="375" y="109"/>
      <point x="378" y="-15"/>
      <point x="387" y="-126"/>
      <point x="403" y="-217"/>
      <point x="416" y="-242" type="qcurve" smooth="yes"/>
      <point x="434" y="-277"/>
      <point x="476" y="-325"/>
      <point x="523" y="-359"/>
      <point x="575" y="-381"/>
      <point x="602" y="-389" type="qcurve" smooth="yes"/>
      <point x="625" y="-397"/>
      <point x="647" y="-409"/>
      <point x="647" y="-420" type="qcurve" smooth="yes"/>
      <point x="647" y="-438"/>
      <point x="616" y="-438" type="qcurve" smooth="yes"/>
      <point x="598" y="-438"/>
      <point x="546" y="-426"/>
      <point x="485" y="-409"/>
      <point x="417" y="-389"/>
      <point x="383" y="-381" type="qcurve" smooth="yes"/>
      <point x="345" y="-372"/>
      <point x="269" y="-362"/>
      <point x="233" y="-362" type="qcurve" smooth="yes"/>
      <point x="209" y="-362"/>
      <point x="158" y="-365"/>
      <point x="114" y="-368"/>
      <point x="82" y="-371"/>
      <point x="76" y="-371" type="qcurve" smooth="yes"/>
      <point x="57" y="-371"/>
      <point x="20" y="-365"/>
      <point x="20" y="-348" type="qcurve" smooth="yes"/>
      <point x="20" y="-336"/>
      <point x="46" y="-328"/>
      <point x="68" y="-328" type="qcurve" smooth="yes"/>
      <point x="97" y="-328"/>
      <point x="170" y="-313"/>
      <point x="201" y="-293" type="qcurve" smooth="yes"/>
      <point x="243" y="-265"/>
      <point x="287" y="-172"/>
      <point x="295" y="-100" type="qcurve" smooth="yes"/>
      <point x="299" y="-66"/>
      <point x="304" y="7"/>
      <point x="307" y="96"/>
      <point x="309" y="210"/>
      <point x="309" y="285" type="qcurve" smooth="yes"/>
      <point x="309" y="317"/>
      <point x="307" y="390"/>
      <point x="307" y="430" type="qcurve" smooth="yes"/>
      <point x="307" y="457"/>
      <point x="306" y="554"/>
      <point x="306" y="678"/>
      <point x="304" y="821"/>
      <point x="300" y="965"/>
      <point x="294" y="1104"/>
      <point x="284" y="1221"/>
      <point x="270" y="1307"/>
      <point x="260" y="1327" type="qcurve" smooth="yes"/>
      <point x="249" y="1349"/>
      <point x="211" y="1373"/>
      <point x="159" y="1385"/>
      <point x="94" y="1388"/>
      <point x="57" y="1389" type="qcurve" smooth="yes"/>
      <point x="33" y="1389"/>
      <point x="0" y="1402"/>
      <point x="0" y="1423" type="qcurve" smooth="yes"/>
      <point x="0" y="1439"/>
      <point x="22" y="1454"/>
      <point x="39" y="1454" type="qcurve" smooth="yes"/>
      <point x="125" y="1454" type="line" smooth="yes"/>
      <point x="186" y="1454"/>
      <point x="279" y="1460" type="qcurve" smooth="yes"/>
      <point x="322" y="1463"/>
      <point x="407" y="1475"/>
      <point x="438" y="1475" type="qcurve" smooth="yes"/>
      <point x="449" y="1475"/>
      <point x="469" y="1472"/>
    </contour>
  </outline>
</glyph>
<glyph name="O" format="2">
  <advance width="1530"/>
  <unicode hex="004F"/>
  <outline>
    <contour>
      <point x="731" y="1561" type="qcurve" smooth="yes"/>
      <point x="908" y="1561"/>
      <point x="1198" y="1449"/>
      <point x="1405" y="1248"/>
      <point x="1518" y="971"/>
      <point x="1518" y="805" type="qcurve" smooth="yes"/>
      <point x="1518" y="711"/>
      <point x="1478" y="525"/>
      <point x="1398" y="357"/>
      <point x="1275" y="213"/>
      <point x="1110" y="107"/>
      <point x="901" y="47"/>
      <point x="774" y="47" type="qcurve" smooth="yes"/>
      <point x="585" y="47"/>
      <point x="299" y="162"/>
      <point x="107" y="367"/>
      <point x="10" y="650"/>
      <point x="10" y="817" type="qcurve" smooth="yes"/>
      <point x="10" y="980"/>
      <point x="116" y="1253"/>
      <point x="307" y="1451"/>
      <point x="572" y="1561"/>
    </contour>
    <contour>
      <point x="690" y="1509" type="qcurve" smooth="yes"/>
      <point x="592" y="1509"/>
      <point x="435" y="1421"/>
      <point x="324" y="1258"/>
      <point x="264" y="1027"/>
      <point x="264" y="883" type="qcurve" smooth="yes"/>
      <point x="264" y="800"/>
      <point x="287" y="620"/>
      <point x="337" y="446"/>
      <point x="419" y="290"/>
      <point x="537" y="172"/>
      <point x="694" y="102"/>
      <point x="795" y="102" type="qcurve" smooth="yes"/>
      <point x="915" y="102"/>
      <point x="1079" y="199"/>
      <point x="1180" y="357"/>
      <point x="1225" y="558"/>
      <point x="1225" y="662" type="qcurve" smooth="yes"/>
      <point x="1225" y="749"/>
      <point x="1206" y="943"/>
      <point x="1159" y="1131"/>
      <point x="1080" y="1302"/>
      <point x="961" y="1432"/>
      <point x="798" y="1509"/>
    </contour>
  </outline>
</glyph>
<glyph name="P" format="2">
  <advance width="1276"/>
  <unicode hex="0050"/>
  <outline>
    <contour>
      <point x="895" y="1532" type="qcurve" smooth="yes"/>
      <point x="957" y="1532"/>
      <point x="1092" y="1503"/>
      <point x="1204" y="1424"/>
      <point x="1276" y="1284"/>
      <point x="1276" y="1174" type="qcurve" smooth="yes"/>
      <point x="1276" y="1072"/>
      <point x="1229" y="919"/>
      <point x="1151" y="808"/>
      <point x="1050" y="736"/>
      <point x="942" y="693"/>
      <point x="834" y="676"/>
      <point x="788" y="676" type="qcurve" smooth="yes"/>
      <point x="722" y="676"/>
      <point x="628" y="689"/>
      <point x="596" y="698" type="qcurve"/>
      <point x="597" y="647"/>
      <point x="598" y="538"/>
      <point x="599" y="441"/>
      <point x="600" y="366"/>
      <point x="600" y="350" type="qcurve" smooth="yes"/>
      <point x="601" y="315"/>
      <point x="607" y="210"/>
      <point x="620" y="98"/>
      <point x="641" y="-9"/>
      <point x="657" y="-45" type="qcurve" smooth="yes"/>
      <point x="674" y="-83"/>
      <point x="728" y="-137"/>
      <point x="791" y="-173"/>
      <point x="859" y="-195"/>
      <point x="891" y="-201" type="qcurve" smooth="yes"/>
      <point x="907" y="-204"/>
      <point x="940" y="-209"/>
      <point x="966" y="-216"/>
      <point x="983" y="-227"/>
      <point x="983" y="-236" type="qcurve" smooth="yes"/>
      <point x="983" y="-248"/>
      <point x="963" y="-262"/>
      <point x="932" y="-262" type="qcurve" smooth="yes"/>
      <point x="900" y="-262"/>
      <point x="802" y="-243"/>
      <point x="681" y="-220"/>
      <point x="545" y="-201"/>
      <point x="477" y="-201" type="qcurve" smooth="yes"/>
      <point x="403" y="-201"/>
      <point x="272" y="-217"/>
      <point x="169" y="-236"/>
      <point x="97" y="-252"/>
      <point x="82" y="-252" type="qcurve" smooth="yes"/>
      <point x="78" y="-252"/>
      <point x="67" y="-251"/>
      <point x="56" y="-247"/>
      <point x="49" y="-239"/>
      <point x="49" y="-231" type="qcurve" smooth="yes"/>
      <point x="49" y="-220"/>
      <point x="76" y="-206"/>
      <point x="121" y="-192"/>
      <point x="178" y="-173"/>
      <point x="207" y="-158" type="qcurve" smooth="yes"/>
      <point x="264" y="-127"/>
      <point x="322" y="-27"/>
      <point x="336" y="39" type="qcurve" smooth="yes"/>
      <point x="342" y="69"/>
      <point x="355" y="183"/>
      <point x="367" y="330"/>
      <point x="378" y="499"/>
      <point x="386" y="668"/>
      <point x="391" y="825"/>
      <point x="391" y="887" type="qcurve" smooth="yes"/>
      <point x="391" y="1009"/>
      <point x="377" y="1195"/>
      <point x="354" y="1247" type="qcurve" smooth="yes"/>
      <point x="336" y="1288"/>
      <point x="275" y="1337"/>
      <point x="202" y="1363"/>
      <point x="122" y="1372"/>
      <point x="84" y="1374" type="qcurve" smooth="yes"/>
      <point x="34" y="1375"/>
      <point x="0" y="1388"/>
      <point x="0" y="1407" type="qcurve" smooth="yes"/>
      <point x="0" y="1436"/>
      <point x="51" y="1436" type="qcurve" smooth="yes"/>
      <point x="73" y="1436"/>
      <point x="169" y="1430"/>
      <point x="236" y="1430" type="qcurve" smooth="yes"/>
      <point x="285" y="1430"/>
      <point x="401" y="1436"/>
      <point x="463" y="1444" type="qcurve" smooth="yes"/>
      <point x="515" y="1450"/>
      <point x="596" y="1469"/>
      <point x="665" y="1488"/>
      <point x="725" y="1507"/>
      <point x="787" y="1523"/>
      <point x="854" y="1532"/>
    </contour>
    <contour>
      <point x="608" y="1227" type="qcurve" smooth="yes"/>
      <point x="604" y="1185"/>
      <point x="600" y="1076"/>
      <point x="597" y="952"/>
      <point x="596" y="818"/>
      <point x="596" y="752" type="qcurve"/>
      <point x="628" y="742"/>
      <point x="708" y="733"/>
      <point x="764" y="733" type="qcurve" smooth="yes"/>
      <point x="839" y="733"/>
      <point x="944" y="805"/>
      <point x="1009" y="924"/>
      <point x="1038" y="1075"/>
      <point x="1038" y="1153" type="qcurve" smooth="yes"/>
      <point x="1038" y="1217"/>
      <point x="1015" y="1337"/>
      <point x="963" y="1428"/>
      <point x="875" y="1483"/>
      <point x="811" y="1483" type="qcurve" smooth="yes"/>
      <point x="761" y="1483"/>
      <point x="689" y="1447"/>
      <point x="641" y="1380"/>
      <point x="614" y="1285"/>
    </contour>
  </outline>
</glyph>
<glyph name="Q" format="2">
  <advance width="1647"/>
  <unicode hex="0051"/>
  <outline>
    <contour>
      <point x="817" y="1583" type="qcurve" smooth="yes"/>
      <point x="912" y="1583"/>
      <point x="1105" y="1541"/>
      <point x="1283" y="1456"/>
      <point x="1438" y="1327"/>
      <point x="1552" y="1153"/>
      <point x="1618" y="934"/>
      <point x="1618" y="801" type="qcurve" smooth="yes"/>
      <point x="1618" y="605"/>
      <point x="1524" y="309"/>
      <point x="1444" y="203" type="qcurve"/>
      <point x="1490" y="112"/>
      <point x="1565" y="-93"/>
      <point x="1597" y="-197" type="qcurve" smooth="yes"/>
      <point x="1638" y="-326"/>
      <point x="1724" y="-518"/>
      <point x="1824" y="-646"/>
      <point x="1945" y="-709"/>
      <point x="2021" y="-709" type="qcurve" smooth="yes"/>
      <point x="2097" y="-709"/>
      <point x="2231" y="-607"/>
      <point x="2273" y="-496" type="qcurve" smooth="yes"/>
      <point x="2288" y="-454"/>
      <point x="2303" y="-390"/>
      <point x="2313" y="-347"/>
      <point x="2322" y="-324"/>
      <point x="2331" y="-324" type="qcurve" smooth="yes"/>
      <point x="2339" y="-324"/>
      <point x="2345" y="-348"/>
      <point x="2345" y="-367" type="qcurve" smooth="yes"/>
      <point x="2345" y="-394"/>
      <point x="2334" y="-494"/>
      <point x="2299" y="-612"/>
      <point x="2237" y="-734"/>
      <point x="2134" y="-834"/>
      <point x="1985" y="-897"/>
      <point x="1882" y="-897" type="qcurve" smooth="yes"/>
      <point x="1759" y="-897"/>
      <point x="1586" y="-812"/>
      <point x="1466" y="-667"/>
      <point x="1390" y="-477"/>
      <point x="1338" y="-268"/>
      <point x="1302" y="-51"/>
      <point x="1282" y="47" type="qcurve"/>
      <point x="1176" y="-27"/>
      <point x="924" y="-96"/>
      <point x="791" y="-96" type="qcurve" smooth="yes"/>
      <point x="690" y="-96"/>
      <point x="495" y="-48"/>
      <point x="321" y="47"/>
      <point x="175" y="188"/>
      <point x="69" y="375"/>
      <point x="10" y="607"/>
      <point x="10" y="745" type="qcurve" smooth="yes"/>
      <point x="10" y="929"/>
      <point x="129" y="1237"/>
      <point x="343" y="1459"/>
      <point x="640" y="1583"/>
    </contour>
    <contour>
      <point x="1049" y="528" type="qcurve" smooth="yes"/>
      <point x="1135" y="528"/>
      <point x="1276" y="448"/>
      <point x="1333" y="379" type="qcurve"/>
      <point x="1349" y="445"/>
      <point x="1366" y="594"/>
      <point x="1366" y="678" type="qcurve" smooth="yes"/>
      <point x="1366" y="781"/>
      <point x="1330" y="985"/>
      <point x="1258" y="1170"/>
      <point x="1151" y="1328"/>
      <point x="1007" y="1445"/>
      <point x="827" y="1511"/>
      <point x="719" y="1511" type="qcurve" smooth="yes"/>
      <point x="621" y="1511"/>
      <point x="448" y="1419"/>
      <point x="320" y="1250"/>
      <point x="246" y="1011"/>
      <point x="246" y="864" type="qcurve" smooth="yes"/>
      <point x="246" y="767"/>
      <point x="276" y="577"/>
      <point x="334" y="402"/>
      <point x="421" y="246"/>
      <point x="536" y="122"/>
      <point x="679" y="34"/>
      <point x="764" y="14" type="qcurve"/>
      <point x="761" y="34"/>
      <point x="756" y="93"/>
      <point x="756" y="133" type="qcurve" smooth="yes"/>
      <point x="756" y="199"/>
      <point x="782" y="339"/>
      <point x="849" y="454"/>
      <point x="962" y="528"/>
    </contour>
    <contour>
      <point x="895" y="0" type="qcurve" smooth="yes"/>
      <point x="1017" y="0"/>
      <point x="1192" y="92"/>
      <point x="1249" y="180" type="qcurve"/>
      <point x="1233" y="238"/>
      <point x="1190" y="333"/>
      <point x="1133" y="402"/>
      <point x="1057" y="440"/>
      <point x="1008" y="440" type="qcurve" smooth="yes"/>
      <point x="947" y="440"/>
      <point x="872" y="374"/>
      <point x="831" y="275"/>
      <point x="817" y="159"/>
      <point x="817" y="109" type="qcurve" smooth="yes"/>
      <point x="817" y="78"/>
      <point x="819" y="20"/>
      <point x="821" y="4" type="qcurve"/>
      <point x="840" y="1"/>
      <point x="876" y="0"/>
    </contour>
  </outline>
</glyph>
<glyph name="R" format="2">
  <advance width="1780"/>
  <unicode hex="0052"/>
  <outline>
    <contour>
      <point x="834" y="1407" type="qcurve" smooth="yes"/>
      <point x="954" y="1407"/>
      <point x="1108" y="1338"/>
      <point x="1198" y="1231"/>
      <point x="1233" y="1102"/>
      <point x="1233" y="1042" type="qcurve" smooth="yes"/>
      <point x="1233" y="983"/>
      <point x="1203" y="862"/>
      <point x="1144" y="756"/>
      <point x="1059" y="671"/>
      <point x="1004" y="649" type="qcurve" smooth="yes"/>
      <point x="963" y="633" type="line"/>
      <point x="1012" y="486"/>
      <point x="1148" y="276"/>
      <point x="1305" y="140"/>
      <point x="1476" y="76"/>
      <point x="1561" y="76" type="qcurve" smooth="yes"/>
      <point x="1610" y="76"/>
      <point x="1691" y="102"/>
      <point x="1750" y="153"/>
      <point x="1782" y="226"/>
      <point x="1782" y="274" type="qcurve" smooth="yes"/>
      <point x="1782" y="310"/>
      <point x="1774" y="358"/>
      <point x="1765" y="389"/>
      <point x="1757" y="407"/>
      <point x="1757" y="414" type="qcurve" smooth="yes"/>
      <point x="1757" y="419"/>
      <point x="1761" y="426"/>
      <point x="1767" y="426" type="qcurve" smooth="yes"/>
      <point x="1776" y="426"/>
      <point x="1802" y="397"/>
      <point x="1825" y="349"/>
      <point x="1841" y="288"/>
      <point x="1841" y="256" type="qcurve" smooth="yes"/>
      <point x="1841" y="180"/>
      <point x="1797" y="50"/>
      <point x="1706" y="-46"/>
      <point x="1568" y="-100"/>
      <point x="1475" y="-100" type="qcurve" smooth="yes"/>
      <point x="1345" y="-100"/>
      <point x="1140" y="-23"/>
      <point x="982" y="99"/>
      <point x="868" y="250"/>
      <point x="788" y="401"/>
      <point x="740" y="535"/>
      <point x="727" y="578" type="qcurve"/>
      <point x="698" y="574"/>
      <point x="646" y="571"/>
      <point x="623" y="571" type="qcurve" smooth="yes"/>
      <point x="595" y="571"/>
      <point x="556" y="573"/>
      <point x="545" y="575" type="qcurve"/>
      <point x="547" y="510"/>
      <point x="554" y="365"/>
      <point x="566" y="231"/>
      <point x="584" y="124"/>
      <point x="596" y="96" type="qcurve" smooth="yes"/>
      <point x="617" y="49"/>
      <point x="683" y="-4"/>
      <point x="747" y="-35"/>
      <point x="793" y="-53"/>
      <point x="793" y="-63" type="qcurve" smooth="yes"/>
      <point x="793" y="-76"/>
      <point x="764" y="-76" type="qcurve" smooth="yes"/>
      <point x="732" y="-76"/>
      <point x="652" y="-57"/>
      <point x="559" y="-35"/>
      <point x="455" y="-16"/>
      <point x="399" y="-16" type="qcurve" smooth="yes"/>
      <point x="345" y="-16"/>
      <point x="231" y="-25"/>
      <point x="184" y="-25" type="qcurve" smooth="yes"/>
      <point x="119" y="-25"/>
      <point x="63" y="-7"/>
      <point x="63" y="14" type="qcurve" smooth="yes"/>
      <point x="63" y="27"/>
      <point x="79" y="43"/>
      <point x="102" y="43" type="qcurve" smooth="yes"/>
      <point x="128" y="43"/>
      <point x="169" y="41"/>
      <point x="190" y="41" type="qcurve" smooth="yes"/>
      <point x="239" y="41"/>
      <point x="310" y="55"/>
      <point x="354" y="98"/>
      <point x="375" y="176"/>
      <point x="375" y="240" type="qcurve" smooth="yes"/>
      <point x="375" y="266"/>
      <point x="371" y="386"/>
      <point x="361" y="544"/>
      <point x="346" y="724"/>
      <point x="326" y="897"/>
      <point x="298" y="1047"/>
      <point x="281" y="1096" type="qcurve" smooth="yes"/>
      <point x="263" y="1145"/>
      <point x="213" y="1201"/>
      <point x="150" y="1231"/>
      <point x="77" y="1241"/>
      <point x="37" y="1245" type="qcurve" smooth="yes"/>
      <point x="20" y="1247"/>
      <point x="0" y="1258"/>
      <point x="0" y="1272" type="qcurve" smooth="yes"/>
      <point x="0" y="1284"/>
      <point x="16" y="1301"/>
      <point x="41" y="1303" type="qcurve" smooth="yes"/>
      <point x="69" y="1305"/>
      <point x="113" y="1305"/>
      <point x="135" y="1305" type="qcurve" smooth="yes"/>
      <point x="165" y="1305"/>
      <point x="221" y="1305"/>
      <point x="284" y="1308"/>
      <point x="361" y="1315"/>
      <point x="412" y="1321" type="qcurve" smooth="yes"/>
      <point x="478" y="1328"/>
      <point x="587" y="1357"/>
      <point x="686" y="1386"/>
      <point x="781" y="1407"/>
    </contour>
    <contour>
      <point x="543" y="627" type="line"/>
      <point x="659" y="628"/>
      <point x="826" y="692"/>
      <point x="934" y="803"/>
      <point x="985" y="953"/>
      <point x="985" y="1040" type="qcurve" smooth="yes"/>
      <point x="985" y="1195"/>
      <point x="871" y="1352"/>
      <point x="766" y="1352" type="qcurve" smooth="yes"/>
      <point x="722" y="1352"/>
      <point x="654" y="1321"/>
      <point x="603" y="1266"/>
      <point x="571" y="1189"/>
      <point x="563" y="1143" type="qcurve" smooth="yes"/>
      <point x="548" y="1047"/>
      <point x="541" y="858"/>
      <point x="541" y="770" type="qcurve" smooth="yes"/>
    </contour>
  </outline>
</glyph>
<glyph name="V" format="2">
  <advance width="1636"/>
  <unicode hex="0056"/>
  <outline>
    <contour>
      <point x="870" y="1606" type="qcurve" smooth="yes"/>
      <point x="891" y="1606"/>
      <point x="891" y="1593" type="qcurve" smooth="yes"/>
      <point x="891" y="1585"/>
      <point x="875" y="1572"/>
      <point x="846" y="1561" type="qcurve" smooth="yes"/>
      <point x="833" y="1556"/>
      <point x="793" y="1541"/>
      <point x="749" y="1522"/>
      <point x="705" y="1501"/>
      <point x="688" y="1491" type="qcurve" smooth="yes"/>
      <point x="670" y="1480"/>
      <point x="651" y="1451"/>
      <point x="651" y="1430" type="qcurve" smooth="yes"/>
      <point x="651" y="1410"/>
      <point x="670" y="1342"/>
      <point x="701" y="1258"/>
      <point x="743" y="1163"/>
      <point x="787" y="1069"/>
      <point x="831" y="981"/>
      <point x="850" y="946" type="qcurve" smooth="yes"/>
      <point x="872" y="903"/>
      <point x="927" y="803"/>
      <point x="983" y="701"/>
      <point x="1039" y="606"/>
      <point x="1086" y="533"/>
      <point x="1121" y="489"/>
      <point x="1130" y="489" type="qcurve" smooth="yes"/>
      <point x="1139" y="489"/>
      <point x="1166" y="534"/>
      <point x="1199" y="603"/>
      <point x="1234" y="688"/>
      <point x="1249" y="729" type="qcurve" smooth="yes"/>
      <point x="1261" y="762"/>
      <point x="1290" y="855"/>
      <point x="1315" y="951"/>
      <point x="1331" y="1037"/>
      <point x="1331" y="1063" type="qcurve" smooth="yes"/>
      <point x="1331" y="1086"/>
      <point x="1312" y="1113"/>
      <point x="1278" y="1126"/>
      <point x="1232" y="1130"/>
      <point x="1204" y="1130" type="qcurve" smooth="yes"/>
      <point x="1181" y="1130"/>
      <point x="1132" y="1128"/>
      <point x="1110" y="1128" type="qcurve" smooth="yes"/>
      <point x="1065" y="1128"/>
      <point x="1065" y="1155" type="qcurve" smooth="yes"/>
      <point x="1065" y="1169"/>
      <point x="1087" y="1181"/>
      <point x="1110" y="1184" type="qcurve" smooth="yes"/>
      <point x="1124" y="1185"/>
      <point x="1197" y="1191"/>
      <point x="1298" y="1207"/>
      <point x="1418" y="1239"/>
      <point x="1479" y="1268" type="qcurve" smooth="yes"/>
      <point x="1551" y="1302"/>
      <point x="1650" y="1371"/>
      <point x="1719" y="1428"/>
      <point x="1763" y="1464"/>
      <point x="1780" y="1464" type="qcurve" smooth="yes"/>
      <point x="1800" y="1464"/>
      <point x="1800" y="1444" type="qcurve" smooth="yes"/>
      <point x="1800" y="1428"/>
      <point x="1754" y="1382"/>
      <point x="1677" y="1308"/>
      <point x="1575" y="1202"/>
      <point x="1518" y="1126" type="qcurve" smooth="yes"/>
      <point x="1484" y="1081"/>
      <point x="1417" y="957"/>
      <point x="1351" y="816"/>
      <point x="1286" y="663"/>
      <point x="1253" y="590" type="qcurve" smooth="yes"/>
      <point x="1187" y="443"/>
      <point x="1102" y="232"/>
      <point x="1048" y="96"/>
      <point x="1018" y="31"/>
      <point x="1008" y="31" type="qcurve" smooth="yes"/>
      <point x="999" y="31"/>
      <point x="969" y="76"/>
      <point x="929" y="156"/>
      <point x="879" y="268"/>
      <point x="850" y="336" type="qcurve" smooth="yes"/>
      <point x="836" y="368"/>
      <point x="786" y="490"/>
      <point x="721" y="646"/>
      <point x="646" y="823"/>
      <point x="566" y="996"/>
      <point x="487" y="1154"/>
      <point x="451" y="1212" type="qcurve" smooth="yes"/>
      <point x="412" y="1275"/>
      <point x="325" y="1366"/>
      <point x="256" y="1391" type="qcurve" smooth="yes"/>
      <point x="216" y="1405"/>
      <point x="143" y="1416"/>
      <point x="98" y="1419" type="qcurve" smooth="yes"/>
      <point x="53" y="1422"/>
      <point x="8" y="1438"/>
      <point x="8" y="1458" type="qcurve" smooth="yes"/>
      <point x="8" y="1478"/>
      <point x="46" y="1495"/>
      <point x="88" y="1495" type="qcurve" smooth="yes"/>
      <point x="110" y="1495"/>
      <point x="152" y="1493"/>
      <point x="196" y="1491"/>
      <point x="245" y="1489"/>
      <point x="274" y="1489" type="qcurve" smooth="yes"/>
      <point x="341" y="1489"/>
      <point x="476" y="1506"/>
      <point x="601" y="1532"/>
      <point x="712" y="1563"/>
      <point x="800" y="1589"/>
      <point x="859" y="1606"/>
    </contour>
  </outline>
</glyph>
<glyph name="X" format="2">
  <advance width="1778"/>
  <unicode hex="0058"/>
  <outline>
    <contour>
      <point x="909" y="1577" type="qcurve" smooth="yes"/>
      <point x="936" y="1577"/>
      <point x="936" y="1559" type="qcurve" smooth="yes"/>
      <point x="936" y="1544"/>
      <point x="899" y="1525"/>
      <point x="856" y="1500"/>
      <point x="819" y="1459"/>
      <point x="819" y="1421" type="qcurve" smooth="yes"/>
      <point x="819" y="1388"/>
      <point x="841" y="1308"/>
      <point x="872" y="1229"/>
      <point x="908" y="1157"/>
      <point x="922" y="1133" type="qcurve" smooth="yes"/>
      <point x="929" y="1118"/>
      <point x="959" y="1065"/>
      <point x="995" y="1002"/>
      <point x="1036" y="938"/>
      <point x="1075" y="885"/>
      <point x="1108" y="852"/>
      <point x="1118" y="852" type="qcurve" smooth="yes"/>
      <point x="1130" y="852"/>
      <point x="1164" y="882"/>
      <point x="1204" y="931"/>
      <point x="1248" y="995"/>
      <point x="1270" y="1030" type="qcurve" smooth="yes"/>
      <point x="1288" y="1059"/>
      <point x="1320" y="1118"/>
      <point x="1344" y="1174"/>
      <point x="1358" y="1223"/>
      <point x="1358" y="1243" type="qcurve" smooth="yes"/>
      <point x="1358" y="1269"/>
      <point x="1321" y="1306"/>
      <point x="1298" y="1323" type="qcurve" smooth="yes"/>
      <point x="1281" y="1335"/>
      <point x="1247" y="1356"/>
      <point x="1219" y="1373"/>
      <point x="1202" y="1389"/>
      <point x="1202" y="1397" type="qcurve" smooth="yes"/>
      <point x="1202" y="1411"/>
      <point x="1217" y="1411" type="qcurve" smooth="yes"/>
      <point x="1229" y="1411"/>
      <point x="1266" y="1392"/>
      <point x="1320" y="1362"/>
      <point x="1395" y="1326"/>
      <point x="1446" y="1309" type="qcurve" smooth="yes"/>
      <point x="1502" y="1290"/>
      <point x="1594" y="1272"/>
      <point x="1632" y="1266" type="qcurve" smooth="yes"/>
      <point x="1663" y="1259"/>
      <point x="1690" y="1248"/>
      <point x="1690" y="1239" type="qcurve" smooth="yes"/>
      <point x="1690" y="1223"/>
      <point x="1663" y="1223" type="qcurve" smooth="yes"/>
      <point x="1644" y="1223"/>
      <point x="1585" y="1235"/>
      <point x="1554" y="1235" type="qcurve" smooth="yes"/>
      <point x="1531" y="1235"/>
      <point x="1487" y="1222"/>
      <point x="1468" y="1208" type="qcurve" smooth="yes"/>
      <point x="1447" y="1193"/>
      <point x="1389" y="1122"/>
      <point x="1324" y="1031"/>
      <point x="1260" y="931"/>
      <point x="1210" y="842"/>
      <point x="1178" y="776"/>
      <point x="1178" y="764" type="qcurve" smooth="yes"/>
      <point x="1178" y="747"/>
      <point x="1210" y="668"/>
      <point x="1262" y="566"/>
      <point x="1326" y="452"/>
      <point x="1389" y="344"/>
      <point x="1445" y="255"/>
      <point x="1462" y="229" type="qcurve" smooth="yes"/>
      <point x="1485" y="195"/>
      <point x="1528" y="141"/>
      <point x="1578" y="95"/>
      <point x="1641" y="55"/>
      <point x="1686" y="37" type="qcurve" smooth="yes"/>
      <point x="1711" y="26"/>
      <point x="1754" y="11"/>
      <point x="1786" y="-2"/>
      <point x="1804" y="-14"/>
      <point x="1804" y="-23" type="qcurve" smooth="yes"/>
      <point x="1804" y="-31"/>
      <point x="1785" y="-43"/>
      <point x="1753" y="-43" type="qcurve" smooth="yes"/>
      <point x="1721" y="-43"/>
      <point x="1631" y="-29"/>
      <point x="1514" y="-12"/>
      <point x="1367" y="2"/>
      <point x="1278" y="2" type="qcurve" smooth="yes"/>
      <point x="1238" y="2"/>
      <point x="1160" y="-1"/>
      <point x="1092" y="-4"/>
      <point x="1035" y="-6"/>
      <point x="1016" y="-6" type="qcurve" smooth="yes"/>
      <point x="991" y="-6"/>
      <point x="961" y="3"/>
      <point x="961" y="20" type="qcurve" smooth="yes"/>
      <point x="961" y="31"/>
      <point x="980" y="47"/>
      <point x="1012" y="49" type="qcurve" smooth="yes"/>
      <point x="1025" y="50"/>
      <point x="1070" y="50"/>
      <point x="1124" y="52"/>
      <point x="1182" y="55"/>
      <point x="1208" y="59" type="qcurve" smooth="yes"/>
      <point x="1236" y="64"/>
      <point x="1270" y="80"/>
      <point x="1270" y="94" type="qcurve" smooth="yes"/>
      <point x="1270" y="108"/>
      <point x="1249" y="158"/>
      <point x="1213" y="224"/>
      <point x="1164" y="304"/>
      <point x="1137" y="348" type="qcurve" smooth="yes"/>
      <point x="1103" y="402"/>
      <point x="1037" y="508"/>
      <point x="981" y="591"/>
      <point x="938" y="643"/>
      <point x="928" y="643" type="qcurve" smooth="yes"/>
      <point x="921" y="643"/>
      <point x="878" y="598"/>
      <point x="819" y="523"/>
      <point x="749" y="425"/>
      <point x="715" y="371" type="qcurve" smooth="yes"/>
      <point x="675" y="309"/>
      <point x="618" y="191"/>
      <point x="618" y="147" type="qcurve" smooth="yes"/>
      <point x="618" y="118"/>
      <point x="639" y="71"/>
      <point x="657" y="51" type="qcurve" smooth="yes"/>
      <point x="669" y="39"/>
      <point x="699" y="19"/>
      <point x="724" y="0"/>
      <point x="741" y="-18"/>
      <point x="741" y="-27" type="qcurve" smooth="yes"/>
      <point x="741" y="-47"/>
      <point x="717" y="-47" type="qcurve" smooth="yes"/>
      <point x="699" y="-47"/>
      <point x="641" y="-25"/>
      <point x="563" y="7"/>
      <point x="469" y="42"/>
      <point x="416" y="55" type="qcurve" smooth="yes"/>
      <point x="345" y="72"/>
      <point x="197" y="80"/>
      <point x="123" y="82" type="qcurve" smooth="yes"/>
      <point x="89" y="82"/>
      <point x="63" y="94"/>
      <point x="63" y="106" type="qcurve" smooth="yes"/>
      <point x="63" y="119"/>
      <point x="89" y="133"/>
      <point x="129" y="133" type="qcurve" smooth="yes"/>
      <point x="149" y="133"/>
      <point x="206" y="135"/>
      <point x="271" y="142"/>
      <point x="339" y="154"/>
      <point x="371" y="164" type="qcurve" smooth="yes"/>
      <point x="416" y="179"/>
      <point x="488" y="220"/>
      <point x="549" y="274"/>
      <point x="604" y="340"/>
      <point x="633" y="379" type="qcurve" smooth="yes"/>
      <point x="648" y="400"/>
      <point x="692" y="459"/>
      <point x="740" y="527"/>
      <point x="788" y="598"/>
      <point x="826" y="662"/>
      <point x="850" y="714"/>
      <point x="850" y="729" type="qcurve" smooth="yes"/>
      <point x="850" y="746"/>
      <point x="819" y="823"/>
      <point x="765" y="925"/>
      <point x="692" y="1043"/>
      <point x="607" y="1161"/>
      <point x="515" y="1270"/>
      <point x="469" y="1311" type="qcurve" smooth="yes"/>
      <point x="429" y="1346"/>
      <point x="334" y="1394"/>
      <point x="227" y="1423"/>
      <point x="109" y="1436"/>
      <point x="47" y="1436" type="qcurve" smooth="yes"/>
      <point x="0" y="1436"/>
      <point x="0" y="1460" type="qcurve" smooth="yes"/>
      <point x="0" y="1471"/>
      <point x="18" y="1485"/>
      <point x="43" y="1485" type="qcurve" smooth="yes"/>
      <point x="78" y="1485"/>
      <point x="154" y="1483"/>
      <point x="199" y="1483" type="qcurve" smooth="yes"/>
      <point x="253" y="1483"/>
      <point x="395" y="1488"/>
      <point x="496" y="1499" type="qcurve" smooth="yes"/>
      <point x="579" y="1508"/>
      <point x="715" y="1534"/>
      <point x="819" y="1559"/>
      <point x="891" y="1577"/>
    </contour>
  </outline>
</glyph>
<glyph name="Y" format="2">
  <advance width="1632"/>
  <unicode hex="0059"/>
  <outline>
    <contour>
      <point x="733" y="1739" type="qcurve" smooth="yes"/>
      <point x="733" y="1729"/>
      <point x="706" y="1712"/>
      <point x="662" y="1693"/>
      <point x="605" y="1670"/>
      <point x="575" y="1655" type="qcurve" smooth="yes"/>
      <point x="555" y="1645"/>
      <point x="530" y="1614"/>
      <point x="530" y="1591" type="qcurve" smooth="yes"/>
      <point x="530" y="1566"/>
      <point x="575" y="1490"/>
      <point x="640" y="1406"/>
      <point x="711" y="1323"/>
      <point x="737" y="1292" type="qcurve" smooth="yes"/>
      <point x="765" y="1258"/>
      <point x="844" y="1172"/>
      <point x="923" y="1094"/>
      <point x="992" y="1041"/>
      <point x="1010" y="1040" type="qcurve" smooth="yes"/>
      <point x="1020" y="1039"/>
      <point x="1053" y="1064"/>
      <point x="1093" y="1104"/>
      <point x="1137" y="1155"/>
      <point x="1180" y="1209"/>
      <point x="1220" y="1259"/>
      <point x="1235" y="1278" type="qcurve" smooth="yes"/>
      <point x="1256" y="1304"/>
      <point x="1310" y="1376"/>
      <point x="1358" y="1448"/>
      <point x="1391" y="1512"/>
      <point x="1391" y="1530" type="qcurve" smooth="yes"/>
      <point x="1391" y="1541"/>
      <point x="1373" y="1561"/>
      <point x="1345" y="1580"/>
      <point x="1310" y="1596"/>
      <point x="1292" y="1602" type="qcurve" smooth="yes"/>
      <point x="1274" y="1608"/>
      <point x="1249" y="1624"/>
      <point x="1249" y="1636" type="qcurve" smooth="yes"/>
      <point x="1249" y="1646"/>
      <point x="1263" y="1655"/>
      <point x="1274" y="1655" type="qcurve" smooth="yes"/>
      <point x="1289" y="1655"/>
      <point x="1330" y="1641"/>
      <point x="1389" y="1621"/>
      <point x="1469" y="1599"/>
      <point x="1524" y="1591" type="qcurve" smooth="yes"/>
      <point x="1569" y="1585"/>
      <point x="1642" y="1578"/>
      <point x="1701" y="1575"/>
      <point x="1748" y="1575"/>
      <point x="1769" y="1575" type="qcurve" smooth="yes"/>
      <point x="1817" y="1575"/>
      <point x="1817" y="1554" type="qcurve" smooth="yes"/>
      <point x="1817" y="1530"/>
      <point x="1763" y="1530" type="qcurve" smooth="yes"/>
      <point x="1752" y="1530"/>
      <point x="1708" y="1532"/>
      <point x="1679" y="1532" type="qcurve" smooth="yes"/>
      <point x="1658" y="1532"/>
      <point x="1609" y="1531"/>
      <point x="1560" y="1524"/>
      <point x="1513" y="1510"/>
      <point x="1493" y="1497" type="qcurve" smooth="yes"/>
      <point x="1469" y="1482"/>
      <point x="1417" y="1427"/>
      <point x="1362" y="1360"/>
      <point x="1304" y="1283"/>
      <point x="1276" y="1245" type="qcurve" smooth="yes"/>
      <point x="1247" y="1207"/>
      <point x="1195" y="1135"/>
      <point x="1149" y="1070"/>
      <point x="1112" y="1015"/>
      <point x="1100" y="995" type="qcurve" smooth="yes"/>
      <point x="1078" y="961"/>
      <point x="1050" y="905"/>
      <point x="1033" y="848"/>
      <point x="1026" y="784"/>
      <point x="1026" y="743" type="qcurve" smooth="yes"/>
      <point x="1026" y="688"/>
      <point x="1029" y="560"/>
      <point x="1035" y="428"/>
      <point x="1041" y="299"/>
      <point x="1049" y="185"/>
      <point x="1056" y="94"/>
      <point x="1059" y="66" type="qcurve" smooth="yes"/>
      <point x="1068" y="-17"/>
      <point x="1109" y="-111"/>
      <point x="1141" y="-137" type="qcurve" smooth="yes"/>
      <point x="1155" y="-149"/>
      <point x="1193" y="-169"/>
      <point x="1227" y="-189"/>
      <point x="1251" y="-209"/>
      <point x="1251" y="-221" type="qcurve" smooth="yes"/>
      <point x="1251" y="-229"/>
      <point x="1240" y="-240"/>
      <point x="1225" y="-240" type="qcurve" smooth="yes"/>
      <point x="1203" y="-240"/>
      <point x="1132" y="-221"/>
      <point x="1038" y="-196"/>
      <point x="924" y="-170"/>
      <point x="860" y="-162" type="qcurve" smooth="yes"/>
      <point x="804" y="-156"/>
      <point x="704" y="-152"/>
      <point x="662" y="-152" type="qcurve" smooth="yes"/>
      <point x="615" y="-152"/>
      <point x="549" y="-154"/>
      <point x="532" y="-154" type="qcurve" smooth="yes"/>
      <point x="505" y="-154"/>
      <point x="473" y="-142"/>
      <point x="473" y="-127" type="qcurve" smooth="yes"/>
      <point x="473" y="-110"/>
      <point x="509" y="-95"/>
      <point x="567" y="-86"/>
      <point x="642" y="-75"/>
      <point x="680" y="-63" type="qcurve" smooth="yes"/>
      <point x="706" y="-55"/>
      <point x="741" y="-27"/>
      <point x="764" y="11"/>
      <point x="777" y="55"/>
      <point x="782" y="80" type="qcurve" smooth="yes"/>
      <point x="788" y="107"/>
      <point x="802" y="212"/>
      <point x="816" y="347"/>
      <point x="825" y="500"/>
      <point x="825" y="575" type="qcurve" smooth="yes"/>
      <point x="825" y="628"/>
      <point x="820" y="722"/>
      <point x="809" y="768" type="qcurve" smooth="yes"/>
      <point x="802" y="798"/>
      <point x="756" y="888"/>
      <point x="687" y="996"/>
      <point x="602" y="1115"/>
      <point x="511" y="1234"/>
      <point x="420" y="1346"/>
      <point x="339" y="1438"/>
      <point x="273" y="1505"/>
      <point x="254" y="1520" type="qcurve" smooth="yes"/>
      <point x="230" y="1538"/>
      <point x="188" y="1562"/>
      <point x="145" y="1579"/>
      <point x="98" y="1590"/>
      <point x="68" y="1595" type="qcurve" smooth="yes"/>
      <point x="20" y="1601"/>
      <point x="20" y="1624" type="qcurve" smooth="yes"/>
      <point x="20" y="1636"/>
      <point x="41" y="1649"/>
      <point x="72" y="1649" type="qcurve" smooth="yes"/>
      <point x="124" y="1649"/>
      <point x="264" y="1654"/>
      <point x="369" y="1669" type="qcurve" smooth="yes"/>
      <point x="451" y="1681"/>
      <point x="566" y="1711"/>
      <point x="646" y="1737"/>
      <point x="696" y="1755"/>
      <point x="713" y="1755" type="qcurve" smooth="yes"/>
      <point x="733" y="1755"/>
    </contour>
  </outline>
</glyph>
<glyph name="Z" format="2">
  <advance width="1286"/>
  <unicode hex="005A"/>
  <outline>
    <contour>
      <point x="201" y="-229" type="qcurve" smooth="yes"/>
      <point x="197" y="-221"/>
      <point x="197" y="-211" type="qcurve" smooth="yes"/>
      <point x="197" y="-176"/>
      <point x="248" y="2"/>
      <point x="299" y="156" type="qcurve" smooth="yes"/>
      <point x="315" y="204"/>
      <point x="358" y="350"/>
      <point x="406" y="523"/>
      <point x="458" y="714"/>
      <point x="508" y="899"/>
      <point x="552" y="1070"/>
      <point x="585" y="1204"/>
      <point x="604" y="1291"/>
      <point x="604" y="1300" type="qcurve" smooth="yes"/>
      <point x="604" y="1305"/>
      <point x="578" y="1314"/>
      <point x="534" y="1321"/>
      <point x="479" y="1325"/>
      <point x="449" y="1325" type="qcurve" smooth="yes"/>
      <point x="419" y="1325"/>
      <point x="357" y="1318"/>
      <point x="299" y="1299"/>
      <point x="246" y="1265"/>
      <point x="225" y="1239" type="qcurve" smooth="yes"/>
      <point x="199" y="1206"/>
      <point x="170" y="1115"/>
      <point x="154" y="1026"/>
      <point x="148" y="954"/>
      <point x="145" y="940" type="qcurve" smooth="yes"/>
      <point x="139" y="899"/>
      <point x="121" y="899" type="qcurve" smooth="yes"/>
      <point x="113" y="899"/>
      <point x="102" y="918"/>
      <point x="102" y="944" type="qcurve" smooth="yes"/>
      <point x="102" y="974"/>
      <point x="109" y="1064"/>
      <point x="116" y="1161"/>
      <point x="123" y="1255"/>
      <point x="123" y="1290" type="qcurve" smooth="yes"/>
      <point x="123" y="1361"/>
      <point x="115" y="1449"/>
      <point x="115" y="1475" type="qcurve" smooth="yes"/>
      <point x="115" y="1495"/>
      <point x="123" y="1495" type="qcurve" smooth="yes"/>
      <point x="130" y="1495"/>
      <point x="179" y="1461"/>
      <point x="281" y="1420"/>
      <point x="449" y="1386"/>
      <point x="575" y="1386" type="qcurve" smooth="yes"/>
      <point x="653" y="1386"/>
      <point x="781" y="1402"/>
      <point x="878" y="1422"/>
      <point x="945" y="1438"/>
      <point x="961" y="1438" type="qcurve" smooth="yes"/>
      <point x="977" y="1438"/>
      <point x="977" y="1421" type="qcurve" smooth="yes"/>
      <point x="977" y="1398"/>
      <point x="940" y="1297"/>
      <point x="915" y="1225" type="qcurve" smooth="yes"/>
      <point x="892" y="1158"/>
      <point x="823" y="977"/>
      <point x="741" y="761"/>
      <point x="651" y="515"/>
      <point x="606" y="385" type="qcurve" smooth="yes"/>
      <point x="565" y="264"/>
      <point x="505" y="90"/>
      <point x="467" y="-28"/>
      <point x="449" y="-94"/>
      <point x="449" y="-106" type="qcurve" smooth="yes"/>
      <point x="449" y="-117"/>
      <point x="467" y="-121"/>
      <point x="479" y="-121" type="qcurve" smooth="yes"/>
      <point x="509" y="-121"/>
      <point x="618" y="-107"/>
      <point x="746" y="-84"/>
      <point x="878" y="-53"/>
      <point x="930" y="-35" type="qcurve" smooth="yes"/>
      <point x="1004" y="-10"/>
      <point x="1091" y="69"/>
      <point x="1136" y="165"/>
      <point x="1149" y="273"/>
      <point x="1149" y="326" type="qcurve" smooth="yes"/>
      <point x="1149" y="352"/>
      <point x="1145" y="409"/>
      <point x="1139" y="465"/>
      <point x="1135" y="514"/>
      <point x="1135" y="532" type="qcurve" smooth="yes"/>
      <point x="1135" y="565"/>
      <point x="1147" y="565" type="qcurve" smooth="yes"/>
      <point x="1157" y="565"/>
      <point x="1174" y="524"/>
      <point x="1193" y="448"/>
      <point x="1219" y="337"/>
      <point x="1237" y="268" type="qcurve" smooth="yes"/>
      <point x="1257" y="194"/>
      <point x="1293" y="70"/>
      <point x="1321" y="-24"/>
      <point x="1337" y="-89"/>
      <point x="1337" y="-104" type="qcurve" smooth="yes"/>
      <point x="1337" y="-121"/>
      <point x="1321" y="-121" type="qcurve" smooth="yes"/>
      <point x="1307" y="-121"/>
      <point x="1254" y="-113"/>
      <point x="1183" y="-102"/>
      <point x="1097" y="-94"/>
      <point x="1051" y="-94" type="qcurve" smooth="yes"/>
      <point x="989" y="-94"/>
      <point x="830" y="-113"/>
      <point x="654" y="-145"/>
      <point x="469" y="-186"/>
      <point x="379" y="-207" type="qcurve" smooth="yes"/>
      <point x="329" y="-219"/>
      <point x="254" y="-240"/>
      <point x="231" y="-240" type="qcurve" smooth="yes"/>
      <point x="220" y="-240"/>
      <point x="206" y="-236"/>
    </contour>
  </outline>
</glyph>
<glyph name="backslash" format="2">
  <advance width="711"/>
  <unicode hex="005C"/>
  <outline>
    <contour>
      <point x="43" y="1942" type="qcurve" smooth="yes"/>
      <point x="61" y="1942"/>
      <point x="94" y="1884"/>
      <point x="122" y="1804"/>
      <point x="145" y="1723"/>
      <point x="152" y="1700" type="qcurve" smooth="yes"/>
      <point x="156" y="1684"/>
      <point x="185" y="1581"/>
      <point x="225" y="1433"/>
      <point x="274" y="1255"/>
      <point x="324" y="1076"/>
      <point x="370" y="909"/>
      <point x="389" y="846" type="qcurve" smooth="yes"/>
      <point x="402" y="802"/>
      <point x="441" y="670"/>
      <point x="488" y="512"/>
      <point x="540" y="337"/>
      <point x="590" y="164"/>
      <point x="635" y="2"/>
      <point x="670" y="-131"/>
      <point x="690" y="-225"/>
      <point x="690" y="-244" type="qcurve" smooth="yes"/>
      <point x="690" y="-258"/>
      <point x="679" y="-274"/>
      <point x="668" y="-274" type="qcurve" smooth="yes"/>
      <point x="648" y="-274"/>
      <point x="614" y="-204"/>
      <point x="594" y="-141" type="qcurve" smooth="yes"/>
      <point x="568" y="-62"/>
      <point x="501" y="162"/>
      <point x="426" y="418"/>
      <point x="349" y="689"/>
      <point x="315" y="815" type="qcurve" smooth="yes"/>
      <point x="298" y="876"/>
      <point x="257" y="1027"/>
      <point x="214" y="1188"/>
      <point x="169" y="1352"/>
      <point x="127" y="1502"/>
      <point x="91" y="1629"/>
      <point x="78" y="1673" type="qcurve" smooth="yes"/>
      <point x="53" y="1757"/>
      <point x="23" y="1880"/>
      <point x="23" y="1911" type="qcurve" smooth="yes"/>
      <point x="23" y="1929"/>
      <point x="35" y="1942"/>
    </contour>
  </outline>
</glyph>
<glyph name="bracketright" format="2">
  <advance width="686"/>
  <unicode hex="005D"/>
  <outline>
    <contour>
      <point x="489" y="1417" type="qcurve" smooth="yes"/>
      <point x="514" y="1417"/>
      <point x="531" y="1384"/>
      <point x="535" y="1362" type="qcurve" smooth="yes"/>
      <point x="537" y="1346"/>
      <point x="547" y="1251"/>
      <point x="561" y="1119"/>
      <point x="577" y="964"/>
      <point x="592" y="811"/>
      <point x="604" y="675"/>
      <point x="608" y="629" type="qcurve" smooth="yes"/>
      <point x="617" y="521"/>
      <point x="637" y="299"/>
      <point x="654" y="100"/>
      <point x="664" y="-59"/>
      <point x="664" y="-102" type="qcurve" smooth="yes"/>
      <point x="664" y="-123"/>
      <point x="659" y="-152"/>
      <point x="648" y="-173"/>
      <point x="630" y="-189"/>
      <point x="616" y="-197" type="qcurve" smooth="yes"/>
      <point x="598" y="-207"/>
      <point x="546" y="-228"/>
      <point x="479" y="-256"/>
      <point x="396" y="-291"/>
      <point x="346" y="-315" type="qcurve" smooth="yes"/>
      <point x="306" y="-335"/>
      <point x="216" y="-383"/>
      <point x="132" y="-426"/>
      <point x="65" y="-455"/>
      <point x="49" y="-455" type="qcurve" smooth="yes"/>
      <point x="34" y="-455"/>
      <point x="20" y="-441"/>
      <point x="20" y="-432" type="qcurve" smooth="yes"/>
      <point x="20" y="-427"/>
      <point x="24" y="-413"/>
      <point x="37" y="-403" type="qcurve" smooth="yes"/>
      <point x="54" y="-391"/>
      <point x="132" y="-355"/>
      <point x="221" y="-305"/>
      <point x="305" y="-240"/>
      <point x="328" y="-199" type="qcurve" smooth="yes"/>
      <point x="343" y="-171"/>
      <point x="361" y="-97"/>
      <point x="369" y="-12"/>
      <point x="371" y="85"/>
      <point x="371" y="137" type="qcurve" smooth="yes"/>
      <point x="371" y="185"/>
      <point x="369" y="280"/>
      <point x="366" y="366"/>
      <point x="363" y="439"/>
      <point x="362" y="465" type="qcurve" smooth="yes"/>
      <point x="361" y="497"/>
      <point x="357" y="620"/>
      <point x="350" y="773"/>
      <point x="343" y="941"/>
      <point x="334" y="1096"/>
      <point x="326" y="1224"/>
      <point x="322" y="1260" type="qcurve" smooth="yes"/>
      <point x="318" y="1284"/>
      <point x="299" y="1298"/>
      <point x="279" y="1298" type="qcurve" smooth="yes"/>
      <point x="262" y="1298"/>
      <point x="218" y="1292"/>
      <point x="173" y="1284"/>
      <point x="133" y="1278"/>
      <point x="119" y="1278" type="qcurve" smooth="yes"/>
      <point x="106" y="1278"/>
      <point x="84" y="1286"/>
      <point x="84" y="1300" type="qcurve" smooth="yes"/>
      <point x="84" y="1314"/>
      <point x="119" y="1333"/>
      <point x="177" y="1349"/>
      <point x="252" y="1364"/>
      <point x="293" y="1374" type="qcurve" smooth="yes"/>
      <point x="340" y="1386"/>
      <point x="403" y="1402"/>
      <point x="447" y="1412"/>
      <point x="476" y="1417"/>
    </contour>
  </outline>
</glyph>
<glyph name="asciicircum" format="2">
  <advance width="1348"/>
  <unicode hex="005E"/>
  <outline>
    <contour>
      <point x="631" y="1612" type="qcurve" smooth="yes"/>
      <point x="645" y="1612"/>
      <point x="678" y="1569"/>
      <point x="734" y="1494"/>
      <point x="822" y="1394"/>
      <point x="891" y="1337" type="qcurve" smooth="yes"/>
      <point x="957" y="1283"/>
      <point x="1084" y="1212"/>
      <point x="1184" y="1167"/>
      <point x="1245" y="1142"/>
      <point x="1245" y="1133" type="qcurve" smooth="yes"/>
      <point x="1245" y="1120"/>
      <point x="1212" y="1104"/>
      <point x="1174" y="1104" type="qcurve" smooth="yes"/>
      <point x="1141" y="1104"/>
      <point x="1049" y="1124"/>
      <point x="947" y="1158"/>
      <point x="844" y="1200"/>
      <point x="801" y="1223" type="qcurve" smooth="yes"/>
      <point x="759" y="1244"/>
      <point x="691" y="1283"/>
      <point x="638" y="1313"/>
      <point x="602" y="1331"/>
      <point x="592" y="1331" type="qcurve" smooth="yes"/>
      <point x="584" y="1331"/>
      <point x="524" y="1302"/>
      <point x="440" y="1258"/>
      <point x="340" y="1206"/>
      <point x="242" y="1162"/>
      <point x="156" y="1133"/>
      <point x="127" y="1133" type="qcurve" smooth="yes"/>
      <point x="116" y="1133"/>
      <point x="102" y="1143"/>
      <point x="102" y="1149" type="qcurve" smooth="yes"/>
      <point x="102" y="1161"/>
      <point x="138" y="1183"/>
      <point x="202" y="1218"/>
      <point x="293" y="1271"/>
      <point x="348" y="1315" type="qcurve" smooth="yes"/>
      <point x="423" y="1373"/>
      <point x="519" y="1480"/>
      <point x="580" y="1563"/>
      <point x="616" y="1612"/>
    </contour>
  </outline>
</glyph>
<glyph name="underscore" format="2">
  <advance width="1389"/>
  <unicode hex="005F"/>
  <outline>
    <contour>
      <point x="1196" y="-487" type="qcurve" smooth="yes"/>
      <point x="1208" y="-487"/>
      <point x="1239" y="-489"/>
      <point x="1267" y="-498"/>
      <point x="1286" y="-516"/>
      <point x="1286" y="-532" type="qcurve" smooth="yes"/>
      <point x="1286" y="-549"/>
      <point x="1253" y="-579"/>
      <point x="1204" y="-580" type="qcurve" smooth="yes"/>
      <point x="1156" y="-582"/>
      <point x="1039" y="-584"/>
      <point x="898" y="-587"/>
      <point x="729" y="-594"/>
      <point x="629" y="-600" type="qcurve" smooth="yes"/>
      <point x="580" y="-603"/>
      <point x="450" y="-614"/>
      <point x="318" y="-625"/>
      <point x="198" y="-633"/>
      <point x="160" y="-633" type="qcurve" smooth="yes"/>
      <point x="152" y="-633"/>
      <point x="132" y="-632"/>
      <point x="114" y="-626"/>
      <point x="102" y="-615"/>
      <point x="102" y="-606" type="qcurve" smooth="yes"/>
      <point x="102" y="-592"/>
      <point x="128" y="-575"/>
      <point x="160" y="-567" type="qcurve" smooth="yes"/>
      <point x="191" y="-560"/>
      <point x="304" y="-546"/>
      <point x="434" y="-533"/>
      <point x="567" y="-522"/>
      <point x="618" y="-518" type="qcurve" smooth="yes"/>
      <point x="664" y="-515"/>
      <point x="770" y="-507"/>
      <point x="880" y="-500"/>
      <point x="989" y="-494"/>
      <point x="1087" y="-490"/>
      <point x="1168" y="-487"/>
    </contour>
  </outline>
</glyph>
<glyph name="grave" format="2">
  <advance width="571"/>
  <unicode hex="0060"/>
  <outline>
    <contour>
      <point x="172" y="1935" type="qcurve" smooth="yes"/>
      <point x="191" y="1935"/>
      <point x="234" y="1909"/>
      <point x="279" y="1864"/>
      <point x="325" y="1805"/>
      <point x="346" y="1772" type="qcurve" smooth="yes"/>
      <point x="370" y="1736"/>
      <point x="414" y="1667"/>
      <point x="447" y="1607"/>
      <point x="467" y="1558"/>
      <point x="467" y="1540" type="qcurve" smooth="yes"/>
      <point x="467" y="1529"/>
      <point x="457" y="1513"/>
      <point x="446" y="1513" type="qcurve" smooth="yes"/>
      <point x="434" y="1513"/>
      <point x="389" y="1542"/>
      <point x="332" y="1589"/>
      <point x="268" y="1649"/>
      <point x="238" y="1681" type="qcurve" smooth="yes"/>
      <point x="214" y="1705"/>
      <point x="165" y="1755"/>
      <point x="126" y="1804"/>
      <point x="102" y="1850"/>
      <point x="102" y="1870" type="qcurve" smooth="yes"/>
      <point x="102" y="1904"/>
      <point x="146" y="1935"/>
    </contour>
  </outline>
</glyph>
<glyph name="a" format="2">
  <advance width="1081"/>
  <unicode hex="0061"/>
  <outline>
    <contour>
      <point x="309" y="721" type="qcurve" smooth="yes"/>
      <point x="272" y="721"/>
      <point x="207" y="749"/>
      <point x="159" y="805"/>
      <point x="131" y="889"/>
      <point x="131" y="946" type="qcurve" smooth="yes"/>
      <point x="131" y="1008"/>
      <point x="166" y="1127"/>
      <point x="240" y="1220"/>
      <point x="355" y="1276"/>
      <point x="436" y="1276" type="qcurve" smooth="yes"/>
      <point x="503" y="1276"/>
      <point x="606" y="1241"/>
      <point x="684" y="1182"/>
      <point x="739" y="1104"/>
      <point x="777" y="1019"/>
      <point x="802" y="932"/>
      <point x="811" y="893" type="qcurve" smooth="yes"/>
      <point x="816" y="871"/>
      <point x="831" y="790"/>
      <point x="849" y="684"/>
      <point x="869" y="563"/>
      <point x="889" y="439"/>
      <point x="908" y="322"/>
      <point x="924" y="225"/>
      <point x="935" y="156"/>
      <point x="938" y="143" type="qcurve" smooth="yes"/>
      <point x="944" y="112"/>
      <point x="959" y="48"/>
      <point x="982" y="-5"/>
      <point x="1016" y="-39"/>
      <point x="1042" y="-39" type="qcurve" smooth="yes"/>
      <point x="1057" y="-39"/>
      <point x="1079" y="-25"/>
      <point x="1092" y="-1"/>
      <point x="1098" y="29"/>
      <point x="1098" y="45" type="qcurve" smooth="yes"/>
      <point x="1098" y="64"/>
      <point x="1096" y="103"/>
      <point x="1096" y="117" type="qcurve" smooth="yes"/>
      <point x="1096" y="132"/>
      <point x="1104" y="154"/>
      <point x="1116" y="154" type="qcurve" smooth="yes"/>
      <point x="1127" y="154"/>
      <point x="1140" y="129"/>
      <point x="1147" y="96"/>
      <point x="1149" y="63"/>
      <point x="1149" y="55" type="qcurve" smooth="yes"/>
      <point x="1149" y="20"/>
      <point x="1137" y="-68"/>
      <point x="1118" y="-109" type="qcurve" smooth="yes"/>
      <point x="1100" y="-151"/>
      <point x="1016" y="-205"/>
      <point x="961" y="-205" type="qcurve" smooth="yes"/>
      <point x="913" y="-205"/>
      <point x="844" y="-177"/>
      <point x="795" y="-135"/>
      <point x="762" y="-87"/>
      <point x="752" y="-66" type="qcurve" smooth="yes"/>
      <point x="724" y="-12"/>
      <point x="695" y="117"/>
      <point x="686" y="176" type="qcurve"/>
      <point x="671" y="151"/>
      <point x="610" y="77"/>
      <point x="520" y="9"/>
      <point x="402" y="-39"/>
      <point x="330" y="-39" type="qcurve" smooth="yes"/>
      <point x="250" y="-39"/>
      <point x="137" y="6"/>
      <point x="65" y="83"/>
      <point x="31" y="186"/>
      <point x="31" y="244" type="qcurve" smooth="yes"/>
      <point x="31" y="306"/>
      <point x="77" y="432"/>
      <point x="182" y="534"/>
      <point x="351" y="598"/>
      <point x="473" y="598" type="qcurve" smooth="yes"/>
      <point x="501" y="598"/>
      <point x="554" y="593"/>
      <point x="597" y="587"/>
      <point x="628" y="581"/>
      <point x="635" y="580" type="qcurve"/>
      <point x="629" y="666"/>
      <point x="620" y="752" type="qcurve" smooth="yes"/>
      <point x="616" y="788"/>
      <point x="607" y="868"/>
      <point x="597" y="949"/>
      <point x="585" y="1027"/>
      <point x="578" y="1061" type="qcurve" smooth="yes"/>
      <point x="562" y="1138"/>
      <point x="469" y="1229"/>
      <point x="397" y="1229" type="qcurve" smooth="yes"/>
      <point x="358" y="1229"/>
      <point x="299" y="1201"/>
      <point x="258" y="1157"/>
      <point x="238" y="1102"/>
      <point x="238" y="1075" type="qcurve" smooth="yes"/>
      <point x="238" y="1046"/>
      <point x="266" y="1007"/>
      <point x="307" y="977"/>
      <point x="355" y="950"/>
      <point x="396" y="915"/>
      <point x="424" y="866"/>
      <point x="424" y="829" type="qcurve" smooth="yes"/>
      <point x="424" y="780"/>
      <point x="357" y="721"/>
    </contour>
    <contour>
      <point x="643" y="518" type="qcurve"/>
      <point x="636" y="521"/>
      <point x="601" y="530"/>
      <point x="553" y="539"/>
      <point x="498" y="545"/>
      <point x="471" y="545" type="qcurve" smooth="yes"/>
      <point x="418" y="545"/>
      <point x="327" y="515"/>
      <point x="261" y="456"/>
      <point x="223" y="367"/>
      <point x="223" y="309" type="qcurve" smooth="yes"/>
      <point x="223" y="256"/>
      <point x="258" y="187"/>
      <point x="313" y="147"/>
      <point x="380" y="131"/>
      <point x="412" y="131" type="qcurve" smooth="yes"/>
      <point x="463" y="131"/>
      <point x="555" y="163"/>
      <point x="625" y="205"/>
      <point x="669" y="245"/>
      <point x="674" y="252" type="qcurve"/>
      <point x="667" y="319"/>
      <point x="661" y="374" type="qcurve" smooth="yes"/>
      <point x="658" y="398"/>
      <point x="653" y="444"/>
      <point x="648" y="484"/>
      <point x="644" y="512"/>
    </contour>
  </outline>
</glyph>
<glyph name="b" format="2">
  <advance width="1192"/>
  <unicode hex="0062"/>
  <outline>
    <contour>
      <point x="311" y="2238" type="qcurve" smooth="yes"/>
      <point x="312" y="2221"/>
      <point x="315" y="2146"/>
      <point x="319" y="2045"/>
      <point x="323" y="1928"/>
      <point x="327" y="1812"/>
      <point x="330" y="1704"/>
      <point x="332" y="1663" type="qcurve" smooth="yes"/>
      <point x="333" y="1637"/>
      <point x="337" y="1540"/>
      <point x="344" y="1410"/>
      <point x="352" y="1253"/>
      <point x="362" y="1083"/>
      <point x="374" y="905"/>
      <point x="381" y="819" type="qcurve"/>
      <point x="429" y="878"/>
      <point x="531" y="954"/>
      <point x="631" y="997"/>
      <point x="725" y="1014"/>
      <point x="764" y="1014" type="qcurve" smooth="yes"/>
      <point x="853" y="1014"/>
      <point x="999" y="952"/>
      <point x="1102" y="841"/>
      <point x="1159" y="684"/>
      <point x="1159" y="590" type="qcurve" smooth="yes"/>
      <point x="1159" y="496"/>
      <point x="1123" y="352"/>
      <point x="1062" y="244"/>
      <point x="980" y="170"/>
      <point x="888" y="122"/>
      <point x="790" y="96"/>
      <point x="743" y="90" type="qcurve" smooth="yes"/>
      <point x="693" y="84"/>
      <point x="605" y="81"/>
      <point x="513" y="77"/>
      <point x="410" y="67"/>
      <point x="346" y="55" type="qcurve" smooth="yes"/>
      <point x="303" y="47"/>
      <point x="206" y="16"/>
      <point x="114" y="-14"/>
      <point x="36" y="-37"/>
      <point x="12" y="-37" type="qcurve" smooth="yes"/>
      <point x="0" y="-37"/>
      <point x="-16" y="-27"/>
      <point x="-16" y="-14" type="qcurve" smooth="yes"/>
      <point x="-16" y="7"/>
      <point x="18" y="16" type="qcurve" smooth="yes"/>
      <point x="76" y="33"/>
      <point x="148" y="76"/>
      <point x="188" y="135"/>
      <point x="203" y="214"/>
      <point x="203" y="268" type="qcurve" smooth="yes"/>
      <point x="203" y="291"/>
      <point x="199" y="426"/>
      <point x="193" y="618"/>
      <point x="185" y="851"/>
      <point x="175" y="1095"/>
      <point x="165" y="1335"/>
      <point x="156" y="1539"/>
      <point x="147" y="1693"/>
      <point x="143" y="1729" type="qcurve" smooth="yes"/>
      <point x="138" y="1785"/>
      <point x="112" y="1852"/>
      <point x="73" y="1887"/>
      <point x="21" y="1898"/>
      <point x="-10" y="1898" type="qcurve" smooth="yes"/>
      <point x="-55" y="1898"/>
      <point x="-112" y="1892"/>
      <point x="-135" y="1892" type="qcurve" smooth="yes"/>
      <point x="-148" y="1892"/>
      <point x="-164" y="1901"/>
      <point x="-164" y="1911" type="qcurve" smooth="yes"/>
      <point x="-164" y="1922"/>
      <point x="-149" y="1934"/>
      <point x="-127" y="1937" type="qcurve" smooth="yes"/>
      <point x="-97" y="1942"/>
      <point x="-25" y="1956"/>
      <point x="48" y="1981"/>
      <point x="120" y="2018"/>
      <point x="150" y="2046" type="qcurve" smooth="yes"/>
      <point x="178" y="2072"/>
      <point x="217" y="2130"/>
      <point x="242" y="2186"/>
      <point x="258" y="2236"/>
      <point x="270" y="2275"/>
      <point x="282" y="2298"/>
      <point x="291" y="2298" type="qcurve" smooth="yes"/>
      <point x="302" y="2298"/>
      <point x="309" y="2266"/>
    </contour>
    <contour>
      <point x="649" y="907" type="qcurve" smooth="yes"/>
      <point x="604" y="907"/>
      <point x="527" y="878"/>
      <point x="462" y="833"/>
      <point x="409" y="777"/>
      <point x="389" y="750" type="qcurve"/>
      <point x="400" y="613"/>
      <point x="423" y="406"/>
      <point x="438" y="334" type="qcurve" smooth="yes"/>
      <point x="447" y="293"/>
      <point x="477" y="221"/>
      <point x="525" y="168"/>
      <point x="595" y="137"/>
      <point x="643" y="137" type="qcurve" smooth="yes"/>
      <point x="727" y="137"/>
      <point x="834" y="205"/>
      <point x="896" y="314"/>
      <point x="920" y="448"/>
      <point x="920" y="514" type="qcurve" smooth="yes"/>
      <point x="920" y="581"/>
      <point x="895" y="720"/>
      <point x="833" y="834"/>
      <point x="728" y="907"/>
    </contour>
  </outline>
</glyph>
<glyph name="d" format="2">
  <advance width="1073"/>
  <unicode hex="0064"/>
  <outline>
    <contour>
      <point x="915" y="2030" type="qcurve" smooth="yes"/>
      <point x="923" y="2030"/>
      <point x="928" y="2001"/>
      <point x="928" y="1976" type="qcurve" smooth="yes"/>
      <point x="928" y="1898"/>
      <point x="925" y="1717"/>
      <point x="921" y="1520"/>
      <point x="916" y="1313"/>
      <point x="913" y="1210" type="qcurve" smooth="yes"/>
      <point x="910" y="1065"/>
      <point x="904" y="789"/>
      <point x="900" y="558"/>
      <point x="897" y="386"/>
      <point x="897" y="344" type="qcurve" smooth="yes"/>
      <point x="897" y="296"/>
      <point x="913" y="234"/>
      <point x="939" y="195"/>
      <point x="974" y="175"/>
      <point x="993" y="168" type="qcurve" smooth="yes"/>
      <point x="1018" y="159"/>
      <point x="1065" y="152"/>
      <point x="1101" y="148"/>
      <point x="1122" y="140"/>
      <point x="1122" y="129" type="qcurve" smooth="yes"/>
      <point x="1122" y="114"/>
      <point x="1079" y="106"/>
      <point x="1055" y="106" type="qcurve" smooth="yes"/>
      <point x="1021" y="106"/>
      <point x="901" y="117"/>
      <point x="823" y="117" type="qcurve" smooth="yes"/>
      <point x="785" y="117"/>
      <point x="709" y="109"/>
      <point x="624" y="100"/>
      <point x="523" y="92"/>
      <point x="459" y="92" type="qcurve" smooth="yes"/>
      <point x="369" y="92"/>
      <point x="211" y="136"/>
      <point x="93" y="231"/>
      <point x="25" y="382"/>
      <point x="25" y="489" type="qcurve" smooth="yes"/>
      <point x="25" y="584"/>
      <point x="94" y="733"/>
      <point x="213" y="835"/>
      <point x="372" y="889"/>
      <point x="461" y="889" type="qcurve" smooth="yes"/>
      <point x="554" y="889"/>
      <point x="679" y="859"/>
      <point x="717" y="844" type="qcurve"/>
      <point x="717" y="940"/>
      <point x="713" y="1139"/>
      <point x="708" y="1328"/>
      <point x="703" y="1496"/>
      <point x="698" y="1624"/>
      <point x="694" y="1704"/>
      <point x="694" y="1710" type="qcurve" smooth="yes"/>
      <point x="693" y="1725"/>
      <point x="690" y="1754"/>
      <point x="683" y="1777"/>
      <point x="669" y="1790"/>
      <point x="657" y="1790" type="qcurve" smooth="yes"/>
      <point x="642" y="1790"/>
      <point x="604" y="1777"/>
      <point x="565" y="1762"/>
      <point x="527" y="1749"/>
      <point x="512" y="1749" type="qcurve" smooth="yes"/>
      <point x="503" y="1749"/>
      <point x="487" y="1756"/>
      <point x="487" y="1767" type="qcurve" smooth="yes"/>
      <point x="487" y="1780"/>
      <point x="506" y="1796"/>
      <point x="524" y="1804" type="qcurve" smooth="yes"/>
      <point x="537" y="1810"/>
      <point x="571" y="1821"/>
      <point x="620" y="1842"/>
      <point x="688" y="1875"/>
      <point x="735" y="1903" type="qcurve" smooth="yes"/>
      <point x="781" y="1930"/>
      <point x="844" y="1976"/>
      <point x="885" y="2010"/>
      <point x="908" y="2030"/>
    </contour>
    <contour>
      <point x="725" y="375" type="qcurve" smooth="yes"/>
      <point x="725" y="419"/>
      <point x="724" y="522"/>
      <point x="723" y="629"/>
      <point x="720" y="735"/>
      <point x="719" y="782" type="qcurve"/>
      <point x="688" y="798"/>
      <point x="598" y="819"/>
      <point x="543" y="819" type="qcurve" smooth="yes"/>
      <point x="476" y="819"/>
      <point x="374" y="773"/>
      <point x="304" y="689"/>
      <point x="268" y="571"/>
      <point x="268" y="498" type="qcurve" smooth="yes"/>
      <point x="268" y="420"/>
      <point x="302" y="293"/>
      <point x="369" y="203"/>
      <point x="471" y="154"/>
      <point x="539" y="154" type="qcurve" smooth="yes"/>
      <point x="597" y="154"/>
      <point x="672" y="191"/>
      <point x="692" y="219" type="qcurve" smooth="yes"/>
      <point x="712" y="247"/>
      <point x="725" y="325"/>
    </contour>
  </outline>
</glyph>
<glyph name="e" format="2">
  <advance width="889"/>
  <unicode hex="0065"/>
  <outline>
    <contour>
      <point x="819" y="530" type="qcurve" smooth="yes"/>
      <point x="833" y="507"/>
      <point x="856" y="429"/>
      <point x="856" y="389" type="qcurve" smooth="yes"/>
      <point x="856" y="316"/>
      <point x="808" y="201"/>
      <point x="718" y="122"/>
      <point x="591" y="80"/>
      <point x="512" y="80" type="qcurve" smooth="yes"/>
      <point x="398" y="80"/>
      <point x="219" y="157"/>
      <point x="97" y="295"/>
      <point x="33" y="486"/>
      <point x="33" y="600" type="qcurve" smooth="yes"/>
      <point x="33" y="703"/>
      <point x="77" y="871"/>
      <point x="153" y="1003"/>
      <point x="253" y="1101"/>
      <point x="365" y="1165"/>
      <point x="481" y="1196"/>
      <point x="535" y="1196" type="qcurve" smooth="yes"/>
      <point x="588" y="1196"/>
      <point x="702" y="1168"/>
      <point x="797" y="1100"/>
      <point x="858" y="989"/>
      <point x="858" y="905" type="qcurve" smooth="yes"/>
      <point x="858" y="832"/>
      <point x="815" y="722"/>
      <point x="745" y="642"/>
      <point x="656" y="590"/>
      <point x="563" y="559"/>
      <point x="474" y="547"/>
      <point x="440" y="547" type="qcurve" smooth="yes"/>
      <point x="391" y="547"/>
      <point x="298" y="561"/>
      <point x="272" y="569" type="qcurve"/>
      <point x="276" y="491"/>
      <point x="317" y="346"/>
      <point x="393" y="236"/>
      <point x="506" y="170"/>
      <point x="582" y="170" type="qcurve" smooth="yes"/>
      <point x="635" y="170"/>
      <point x="712" y="206"/>
      <point x="762" y="267"/>
      <point x="786" y="347"/>
      <point x="786" y="391" type="qcurve" smooth="yes"/>
      <point x="786" y="417"/>
      <point x="779" y="473"/>
      <point x="770" y="498" type="qcurve" smooth="yes"/>
      <point x="764" y="513"/>
      <point x="756" y="539"/>
      <point x="756" y="547" type="qcurve" smooth="yes"/>
      <point x="756" y="567"/>
      <point x="774" y="567" type="qcurve" smooth="yes"/>
      <point x="783" y="567"/>
      <point x="808" y="549"/>
    </contour>
    <contour>
      <point x="268" y="635" type="qcurve"/>
      <point x="294" y="627"/>
      <point x="360" y="616"/>
      <point x="410" y="616" type="qcurve" smooth="yes"/>
      <point x="468" y="616"/>
      <point x="566" y="660"/>
      <point x="636" y="739"/>
      <point x="676" y="851"/>
      <point x="676" y="920" type="qcurve" smooth="yes"/>
      <point x="676" y="981"/>
      <point x="649" y="1064"/>
      <point x="605" y="1114"/>
      <point x="548" y="1135"/>
      <point x="518" y="1135" type="qcurve" smooth="yes"/>
      <point x="480" y="1135"/>
      <point x="392" y="1089"/>
      <point x="317" y="975"/>
      <point x="268" y="782"/>
    </contour>
  </outline>
</glyph>
<glyph name="f" format="2">
  <advance width="614"/>
  <unicode hex="0066"/>
  <outline>
    <contour>
      <point x="678" y="2304" type="qcurve" smooth="yes"/>
      <point x="734" y="2304"/>
      <point x="838" y="2269"/>
      <point x="919" y="2192"/>
      <point x="967" y="2072"/>
      <point x="967" y="1987" type="qcurve" smooth="yes"/>
      <point x="967" y="1911"/>
      <point x="929" y="1787"/>
      <point x="861" y="1699"/>
      <point x="767" y="1651"/>
      <point x="711" y="1651" type="qcurve" smooth="yes"/>
      <point x="674" y="1651"/>
      <point x="616" y="1674"/>
      <point x="576" y="1713"/>
      <point x="555" y="1766"/>
      <point x="555" y="1796" type="qcurve" smooth="yes"/>
      <point x="555" y="1817"/>
      <point x="565" y="1861"/>
      <point x="593" y="1901"/>
      <point x="642" y="1939"/>
      <point x="680" y="1954" type="qcurve" smooth="yes"/>
      <point x="754" y="1983"/>
      <point x="823" y="2067"/>
      <point x="823" y="2126" type="qcurve" smooth="yes"/>
      <point x="823" y="2146"/>
      <point x="809" y="2196"/>
      <point x="773" y="2239"/>
      <point x="709" y="2269"/>
      <point x="659" y="2269" type="qcurve" smooth="yes"/>
      <point x="597" y="2269"/>
      <point x="508" y="2204"/>
      <point x="446" y="2097"/>
      <point x="408" y="1960"/>
      <point x="388" y="1817"/>
      <point x="381" y="1680"/>
      <point x="381" y="1626" type="qcurve" smooth="yes"/>
      <point x="381" y="1587"/>
      <point x="384" y="1510"/>
      <point x="404" y="1449"/>
      <point x="446" y="1411"/>
      <point x="485" y="1411" type="qcurve" smooth="yes"/>
      <point x="516" y="1411"/>
      <point x="581" y="1423"/>
      <point x="640" y="1436"/>
      <point x="690" y="1448"/>
      <point x="707" y="1448" type="qcurve" smooth="yes"/>
      <point x="735" y="1448"/>
      <point x="735" y="1427" type="qcurve" smooth="yes"/>
      <point x="735" y="1413"/>
      <point x="710" y="1397"/>
      <point x="678" y="1391" type="qcurve" smooth="yes"/>
      <point x="663" y="1388"/>
      <point x="626" y="1383"/>
      <point x="578" y="1377"/>
      <point x="518" y="1367"/>
      <point x="479" y="1358" type="qcurve" smooth="yes"/>
      <point x="453" y="1352"/>
      <point x="422" y="1333"/>
      <point x="414" y="1321" type="qcurve" smooth="yes"/>
      <point x="404" y="1305"/>
      <point x="399" y="1258"/>
      <point x="399" y="1229" type="qcurve" smooth="yes"/>
      <point x="399" y="1221"/>
      <point x="402" y="1117"/>
      <point x="407" y="957"/>
      <point x="413" y="755"/>
      <point x="420" y="543"/>
      <point x="427" y="336"/>
      <point x="433" y="166"/>
      <point x="438" y="47"/>
      <point x="440" y="29" type="qcurve" smooth="yes"/>
      <point x="445" y="-31"/>
      <point x="482" y="-109"/>
      <point x="528" y="-123" type="qcurve" smooth="yes"/>
      <point x="544" y="-128"/>
      <point x="571" y="-133"/>
      <point x="600" y="-136"/>
      <point x="633" y="-140"/>
      <point x="655" y="-143" type="qcurve" smooth="yes"/>
      <point x="681" y="-146"/>
      <point x="711" y="-161"/>
      <point x="711" y="-176" type="qcurve" smooth="yes"/>
      <point x="711" y="-196"/>
      <point x="665" y="-215"/>
      <point x="625" y="-215" type="qcurve" smooth="yes"/>
      <point x="602" y="-215"/>
      <point x="523" y="-213"/>
      <point x="479" y="-213" type="qcurve" smooth="yes"/>
      <point x="385" y="-214"/>
      <point x="241" y="-249"/>
      <point x="132" y="-291"/>
      <point x="53" y="-326"/>
      <point x="25" y="-326" type="qcurve" smooth="yes"/>
      <point x="2" y="-326"/>
      <point x="2" y="-307" type="qcurve" smooth="yes"/>
      <point x="2" y="-295"/>
      <point x="25" y="-278"/>
      <point x="47" y="-268" type="qcurve" smooth="yes"/>
      <point x="92" y="-250"/>
      <point x="152" y="-210"/>
      <point x="190" y="-156"/>
      <point x="207" y="-79"/>
      <point x="209" y="-23" type="qcurve" smooth="yes"/>
      <point x="211" y="24"/>
      <point x="211" y="162"/>
      <point x="211" y="246" type="qcurve" smooth="yes"/>
      <point x="211" y="329"/>
      <point x="210" y="515"/>
      <point x="209" y="703"/>
      <point x="207" y="887"/>
      <point x="205" y="1049"/>
      <point x="202" y="1180"/>
      <point x="201" y="1223" type="qcurve" smooth="yes"/>
      <point x="200" y="1248"/>
      <point x="192" y="1280"/>
      <point x="174" y="1298"/>
      <point x="143" y="1305"/>
      <point x="119" y="1305" type="qcurve" smooth="yes"/>
      <point x="98" y="1305"/>
      <point x="46" y="1301"/>
      <point x="-5" y="1296"/>
      <point x="-48" y="1292"/>
      <point x="-61" y="1292" type="qcurve" smooth="yes"/>
      <point x="-78" y="1292"/>
      <point x="-100" y="1302"/>
      <point x="-100" y="1315" type="qcurve" smooth="yes"/>
      <point x="-100" y="1329"/>
      <point x="-76" y="1340"/>
      <point x="-53" y="1343" type="qcurve" smooth="yes"/>
      <point x="-16" y="1348"/>
      <point x="55" y="1355"/>
      <point x="104" y="1364" type="qcurve" smooth="yes"/>
      <point x="146" y="1371"/>
      <point x="194" y="1414"/>
      <point x="222" y="1475"/>
      <point x="234" y="1550"/>
      <point x="240" y="1591" type="qcurve" smooth="yes"/>
      <point x="252" y="1681"/>
      <point x="286" y="1856"/>
      <point x="337" y="2015"/>
      <point x="404" y="2150"/>
      <point x="494" y="2248"/>
      <point x="607" y="2304"/>
    </contour>
  </outline>
</glyph>
<glyph name="h" format="2">
  <advance width="1161"/>
  <unicode hex="0068"/>
  <outline>
    <contour>
      <point x="459" y="2191" type="qcurve" smooth="yes"/>
      <point x="473" y="2191"/>
      <point x="481" y="2175"/>
      <point x="481" y="2167" type="qcurve" smooth="yes"/>
      <point x="481" y="2153"/>
      <point x="473" y="2106"/>
      <point x="461" y="2028"/>
      <point x="446" y="1913"/>
      <point x="438" y="1831" type="qcurve" smooth="yes"/>
      <point x="427" y="1716"/>
      <point x="410" y="1482"/>
      <point x="397" y="1260"/>
      <point x="387" y="1057"/>
      <point x="380" y="887"/>
      <point x="376" y="757"/>
      <point x="375" y="719" type="qcurve"/>
      <point x="391" y="766"/>
      <point x="446" y="860"/>
      <point x="524" y="936"/>
      <point x="626" y="983"/>
      <point x="688" y="983" type="qcurve" smooth="yes"/>
      <point x="725" y="983"/>
      <point x="807" y="964"/>
      <point x="884" y="914"/>
      <point x="947" y="829"/>
      <point x="965" y="762" type="qcurve" smooth="yes"/>
      <point x="981" y="697"/>
      <point x="989" y="572"/>
      <point x="989" y="500" type="qcurve" smooth="yes"/>
      <point x="989" y="446"/>
      <point x="985" y="314"/>
      <point x="985" y="246" type="qcurve" smooth="yes"/>
      <point x="985" y="201"/>
      <point x="1002" y="150"/>
      <point x="1033" y="124"/>
      <point x="1076" y="116"/>
      <point x="1102" y="115" type="qcurve" smooth="yes"/>
      <point x="1112" y="114"/>
      <point x="1133" y="112"/>
      <point x="1150" y="106"/>
      <point x="1161" y="94"/>
      <point x="1161" y="84" type="qcurve" smooth="yes"/>
      <point x="1161" y="73"/>
      <point x="1139" y="55"/>
      <point x="1110" y="55" type="qcurve" smooth="yes"/>
      <point x="1070" y="55"/>
      <point x="975" y="74"/>
      <point x="915" y="74" type="qcurve" smooth="yes"/>
      <point x="877" y="74"/>
      <point x="794" y="58"/>
      <point x="717" y="39"/>
      <point x="653" y="23"/>
      <point x="635" y="23" type="qcurve" smooth="yes"/>
      <point x="619" y="23"/>
      <point x="612" y="34"/>
      <point x="612" y="39" type="qcurve" smooth="yes"/>
      <point x="612" y="47"/>
      <point x="624" y="56"/>
      <point x="641" y="61" type="qcurve" smooth="yes"/>
      <point x="661" y="68"/>
      <point x="692" y="80"/>
      <point x="705" y="88" type="qcurve" smooth="yes"/>
      <point x="720" y="97"/>
      <point x="747" y="138"/>
      <point x="754" y="184" type="qcurve" smooth="yes"/>
      <point x="757" y="209"/>
      <point x="761" y="276"/>
      <point x="764" y="351"/>
      <point x="766" y="431"/>
      <point x="766" y="471" type="qcurve" smooth="yes"/>
      <point x="766" y="537"/>
      <point x="762" y="654"/>
      <point x="756" y="692" type="qcurve" smooth="yes"/>
      <point x="743" y="776"/>
      <point x="673" y="874"/>
      <point x="608" y="874" type="qcurve" smooth="yes"/>
      <point x="577" y="874"/>
      <point x="528" y="850"/>
      <point x="490" y="812"/>
      <point x="460" y="764"/>
      <point x="449" y="739" type="qcurve" smooth="yes"/>
      <point x="429" y="696"/>
      <point x="393" y="562"/>
      <point x="367" y="407"/>
      <point x="352" y="246"/>
      <point x="352" y="176" type="qcurve" smooth="yes"/>
      <point x="352" y="143"/>
      <point x="368" y="102"/>
      <point x="399" y="77"/>
      <point x="442" y="63"/>
      <point x="469" y="57" type="qcurve" smooth="yes"/>
      <point x="483" y="54"/>
      <point x="500" y="45"/>
      <point x="500" y="33" type="qcurve" smooth="yes"/>
      <point x="500" y="10"/>
      <point x="465" y="10" type="qcurve" smooth="yes"/>
      <point x="438" y="10"/>
      <point x="361" y="23"/>
      <point x="274" y="40"/>
      <point x="183" y="53"/>
      <point x="141" y="53" type="qcurve" smooth="yes"/>
      <point x="86" y="53"/>
      <point x="0" y="43"/>
      <point x="-31" y="43" type="qcurve" smooth="yes"/>
      <point x="-74" y="43"/>
      <point x="-74" y="70" type="qcurve" smooth="yes"/>
      <point x="-74" y="81"/>
      <point x="-57" y="94"/>
      <point x="-43" y="94" type="qcurve" smooth="yes"/>
      <point x="-34" y="94"/>
      <point x="-10" y="92"/>
      <point x="2" y="92" type="qcurve" smooth="yes"/>
      <point x="38" y="92"/>
      <point x="90" y="109"/>
      <point x="127" y="151"/>
      <point x="153" y="222"/>
      <point x="162" y="276" type="qcurve" smooth="yes"/>
      <point x="168" y="311"/>
      <point x="183" y="455"/>
      <point x="201" y="646"/>
      <point x="219" y="871"/>
      <point x="236" y="1104"/>
      <point x="252" y="1331"/>
      <point x="263" y="1527"/>
      <point x="270" y="1678"/>
      <point x="270" y="1718" type="qcurve" smooth="yes"/>
      <point x="270" y="1777"/>
      <point x="249" y="1846"/>
      <point x="217" y="1882"/>
      <point x="178" y="1892"/>
      <point x="160" y="1892" type="qcurve" smooth="yes"/>
      <point x="142" y="1892"/>
      <point x="100" y="1885"/>
      <point x="57" y="1877"/>
      <point x="16" y="1870"/>
      <point x="-2" y="1870" type="qcurve" smooth="yes"/>
      <point x="-18" y="1870"/>
      <point x="-31" y="1883"/>
      <point x="-31" y="1894" type="qcurve" smooth="yes"/>
      <point x="-31" y="1907"/>
      <point x="-15" y="1921"/>
      <point x="2" y="1927" type="qcurve" smooth="yes"/>
      <point x="26" y="1935"/>
      <point x="82" y="1951"/>
      <point x="147" y="1974"/>
      <point x="221" y="2007"/>
      <point x="264" y="2032" type="qcurve" smooth="yes"/>
      <point x="313" y="2060"/>
      <point x="375" y="2117"/>
      <point x="417" y="2162"/>
      <point x="444" y="2191"/>
    </contour>
  </outline>
</glyph>
<glyph name="n" format="2">
  <advance width="1198"/>
  <unicode hex="006E"/>
  <outline>
    <contour>
      <point x="344" y="1288" type="qcurve" smooth="yes"/>
      <point x="352" y="1288"/>
      <point x="368" y="1237"/>
      <point x="384" y="1155"/>
      <point x="400" y="1048"/>
      <point x="408" y="993" type="qcurve" smooth="yes"/>
      <point x="444" y="741" type="line"/>
      <point x="449" y="774"/>
      <point x="474" y="860"/>
      <point x="516" y="952"/>
      <point x="576" y="1040"/>
      <point x="655" y="1110"/>
      <point x="754" y="1153"/>
      <point x="815" y="1153" type="qcurve" smooth="yes"/>
      <point x="890" y="1153"/>
      <point x="1000" y="1096"/>
      <point x="1072" y="995"/>
      <point x="1106" y="855"/>
      <point x="1106" y="772" type="qcurve" smooth="yes"/>
      <point x="1106" y="697"/>
      <point x="1089" y="546"/>
      <point x="1070" y="400"/>
      <point x="1053" y="264"/>
      <point x="1053" y="205" type="qcurve" smooth="yes"/>
      <point x="1053" y="170"/>
      <point x="1065" y="118"/>
      <point x="1077" y="96" type="qcurve" smooth="yes"/>
      <point x="1091" y="75"/>
      <point x="1132" y="44"/>
      <point x="1169" y="17"/>
      <point x="1196" y="-10"/>
      <point x="1196" y="-25" type="qcurve" smooth="yes"/>
      <point x="1196" y="-34"/>
      <point x="1186" y="-47"/>
      <point x="1174" y="-47" type="qcurve" smooth="yes"/>
      <point x="1156" y="-47"/>
      <point x="1113" y="-20"/>
      <point x="1050" y="21"/>
      <point x="962" y="68"/>
      <point x="899" y="88" type="qcurve" smooth="yes"/>
      <point x="852" y="104"/>
      <point x="757" y="122"/>
      <point x="694" y="125" type="qcurve" smooth="yes"/>
      <point x="659" y="128"/>
      <point x="659" y="145" type="qcurve" smooth="yes"/>
      <point x="659" y="164"/>
      <point x="682" y="164" type="qcurve" smooth="yes"/>
      <point x="696" y="164"/>
      <point x="746" y="164"/>
      <point x="772" y="166" type="qcurve" smooth="yes"/>
      <point x="812" y="169"/>
      <point x="864" y="212"/>
      <point x="877" y="270" type="qcurve" smooth="yes"/>
      <point x="881" y="293"/>
      <point x="889" y="364"/>
      <point x="895" y="445"/>
      <point x="899" y="529"/>
      <point x="899" y="567" type="qcurve" smooth="yes"/>
      <point x="899" y="601"/>
      <point x="897" y="690"/>
      <point x="886" y="786"/>
      <point x="863" y="878"/>
      <point x="819" y="950"/>
      <point x="751" y="995"/>
      <point x="702" y="995" type="qcurve" smooth="yes"/>
      <point x="660" y="995"/>
      <point x="591" y="953"/>
      <point x="537" y="878"/>
      <point x="499" y="776"/>
      <point x="489" y="715" type="qcurve" smooth="yes"/>
      <point x="478" y="653"/>
      <point x="471" y="522"/>
      <point x="471" y="457" type="qcurve" smooth="yes"/>
      <point x="471" y="402"/>
      <point x="479" y="301"/>
      <point x="493" y="216"/>
      <point x="513" y="150"/>
      <point x="526" y="131" type="qcurve" smooth="yes"/>
      <point x="545" y="105"/>
      <point x="589" y="79"/>
      <point x="604" y="74" type="qcurve" smooth="yes"/>
      <point x="624" y="68"/>
      <point x="641" y="59"/>
      <point x="641" y="51" type="qcurve" smooth="yes"/>
      <point x="641" y="45"/>
      <point x="622" y="35"/>
      <point x="600" y="35" type="qcurve" smooth="yes"/>
      <point x="579" y="35"/>
      <point x="529" y="42"/>
      <point x="475" y="50"/>
      <point x="417" y="57"/>
      <point x="389" y="57" type="qcurve" smooth="yes"/>
      <point x="361" y="57"/>
      <point x="303" y="53"/>
      <point x="250" y="49"/>
      <point x="206" y="45"/>
      <point x="193" y="45" type="qcurve" smooth="yes"/>
      <point x="154" y="45"/>
      <point x="154" y="70" type="qcurve" smooth="yes"/>
      <point x="154" y="79"/>
      <point x="167" y="92"/>
      <point x="184" y="94" type="qcurve" smooth="yes"/>
      <point x="198" y="95"/>
      <point x="220" y="97"/>
      <point x="243" y="98"/>
      <point x="268" y="100"/>
      <point x="285" y="102" type="qcurve" smooth="yes"/>
      <point x="317" y="107"/>
      <point x="340" y="144"/>
      <point x="340" y="176" type="qcurve" smooth="yes"/>
      <point x="340" y="231"/>
      <point x="321" y="389"/>
      <point x="289" y="579"/>
      <point x="244" y="792"/>
      <point x="219" y="903" type="qcurve" smooth="yes"/>
      <point x="207" y="960"/>
      <point x="176" y="1016"/>
      <point x="147" y="1016" type="qcurve" smooth="yes"/>
      <point x="132" y="1016"/>
      <point x="100" y="1005"/>
      <point x="69" y="992"/>
      <point x="41" y="981"/>
      <point x="29" y="981" type="qcurve" smooth="yes"/>
      <point x="10" y="981"/>
      <point x="10" y="997" type="qcurve" smooth="yes"/>
      <point x="10" y="1010"/>
      <point x="31" y="1021"/>
      <point x="43" y="1026" type="qcurve" smooth="yes"/>
      <point x="71" y="1037"/>
      <point x="136" y="1071"/>
      <point x="174" y="1100" type="qcurve" smooth="yes"/>
      <point x="211" y="1129"/>
      <point x="269" y="1195"/>
      <point x="311" y="1251"/>
      <point x="337" y="1288"/>
    </contour>
  </outline>
</glyph>
<glyph name="p" format="2">
  <advance width="1044"/>
  <unicode hex="0070"/>
  <outline>
    <contour>
      <point x="430" y="1044" type="qcurve" smooth="yes"/>
      <point x="430" y="1030"/>
      <point x="428" y="968"/>
      <point x="428" y="926" type="qcurve" smooth="yes"/>
      <point x="428" y="902"/>
      <point x="429" y="874"/>
      <point x="429" y="848"/>
      <point x="430" y="814"/>
      <point x="430" y="784" type="qcurve"/>
      <point x="462" y="828"/>
      <point x="504" y="863" type="qcurve" smooth="yes"/>
      <point x="522" y="878"/>
      <point x="566" y="906"/>
      <point x="619" y="928"/>
      <point x="678" y="942"/>
      <point x="711" y="942" type="qcurve" smooth="yes"/>
      <point x="783" y="942"/>
      <point x="895" y="890"/>
      <point x="972" y="797"/>
      <point x="1012" y="668"/>
      <point x="1012" y="590" type="qcurve" smooth="yes"/>
      <point x="1012" y="473"/>
      <point x="950" y="287"/>
      <point x="844" y="156"/>
      <point x="702" y="86"/>
      <point x="621" y="86" type="qcurve" smooth="yes"/>
      <point x="592" y="86"/>
      <point x="541" y="96"/>
      <point x="497" y="112"/>
      <point x="460" y="131"/>
      <point x="446" y="139" type="qcurve"/>
      <point x="445" y="98"/>
      <point x="444" y="35"/>
      <point x="444" y="-25"/>
      <point x="444" y="-89"/>
      <point x="444" y="-131" type="qcurve" smooth="yes"/>
      <point x="444" y="-199"/>
      <point x="447" y="-363"/>
      <point x="458" y="-520"/>
      <point x="478" y="-650"/>
      <point x="496" y="-682" type="qcurve" smooth="yes"/>
      <point x="513" y="-713"/>
      <point x="563" y="-749"/>
      <point x="588" y="-760" type="qcurve" smooth="yes"/>
      <point x="619" y="-774"/>
      <point x="666" y="-802"/>
      <point x="666" y="-817" type="qcurve" smooth="yes"/>
      <point x="666" y="-828"/>
      <point x="652" y="-842"/>
      <point x="635" y="-842" type="qcurve" smooth="yes"/>
      <point x="608" y="-842"/>
      <point x="511" y="-825"/>
      <point x="398" y="-805"/>
      <point x="286" y="-788"/>
      <point x="244" y="-788" type="qcurve" smooth="yes"/>
      <point x="199" y="-788"/>
      <point x="139" y="-795"/>
      <point x="106" y="-795" type="qcurve" smooth="yes"/>
      <point x="62" y="-795"/>
      <point x="31" y="-784"/>
      <point x="31" y="-776" type="qcurve" smooth="yes"/>
      <point x="31" y="-767"/>
      <point x="51" y="-761"/>
      <point x="85" y="-755"/>
      <point x="127" y="-742"/>
      <point x="150" y="-727" type="qcurve" smooth="yes"/>
      <point x="174" y="-710"/>
      <point x="203" y="-659"/>
      <point x="219" y="-597"/>
      <point x="225" y="-530"/>
      <point x="227" y="-498" type="qcurve" smooth="yes"/>
      <point x="229" y="-473"/>
      <point x="233" y="-370"/>
      <point x="237" y="-233"/>
      <point x="242" y="-71"/>
      <point x="246" y="101"/>
      <point x="250" y="272"/>
      <point x="252" y="426"/>
      <point x="254" y="555"/>
      <point x="254" y="598" type="qcurve" smooth="yes"/>
      <point x="254" y="662"/>
      <point x="247" y="745"/>
      <point x="231" y="794"/>
      <point x="205" y="813"/>
      <point x="186" y="813" type="qcurve" smooth="yes"/>
      <point x="171" y="813"/>
      <point x="138" y="801"/>
      <point x="105" y="788"/>
      <point x="77" y="776"/>
      <point x="68" y="776" type="qcurve" smooth="yes"/>
      <point x="51" y="776"/>
      <point x="51" y="793" type="qcurve" smooth="yes"/>
      <point x="51" y="799"/>
      <point x="63" y="815"/>
      <point x="88" y="827" type="qcurve" smooth="yes"/>
      <point x="104" y="836"/>
      <point x="148" y="855"/>
      <point x="199" y="880"/>
      <point x="254" y="915"/>
      <point x="281" y="940" type="qcurve" smooth="yes"/>
      <point x="317" y="973"/>
      <point x="362" y="1025"/>
      <point x="391" y="1060"/>
      <point x="408" y="1079"/>
      <point x="416" y="1079" type="qcurve" smooth="yes"/>
      <point x="425" y="1079"/>
      <point x="430" y="1058"/>
    </contour>
    <contour>
      <point x="614" y="844" type="qcurve" smooth="yes"/>
      <point x="571" y="844"/>
      <point x="508" y="804"/>
      <point x="464" y="738"/>
      <point x="437" y="654"/>
      <point x="421" y="565"/>
      <point x="416" y="480"/>
      <point x="416" y="446" type="qcurve" smooth="yes"/>
      <point x="416" y="393"/>
      <point x="431" y="286"/>
      <point x="470" y="201"/>
      <point x="538" y="147"/>
      <point x="590" y="147" type="qcurve" smooth="yes"/>
      <point x="631" y="147"/>
      <point x="706" y="189"/>
      <point x="763" y="282"/>
      <point x="797" y="433"/>
      <point x="797" y="541" type="qcurve" smooth="yes"/>
      <point x="797" y="607"/>
      <point x="777" y="718"/>
      <point x="733" y="799"/>
      <point x="663" y="844"/>
    </contour>
  </outline>
</glyph>
